<svg width="32" height="36" viewBox="0 0 32 36" fill="none" xmlns="http://www.w3.org/2000/svg">
<path d="M15.375 14.875H14.125C13.7107 14.8754 13.3136 15.0402 13.0206 15.3331C12.7277 15.6261 12.5629 16.0232 12.5625 16.4375V20.5C12.5625 20.6658 12.6283 20.8247 12.7456 20.9419C12.8628 21.0592 13.0217 21.125 13.1875 21.125C13.3533 21.125 13.5122 21.0592 13.6294 20.9419C13.7467 20.8247 13.8125 20.6658 13.8125 20.5V18.625H15.6875V20.5C15.6875 20.6658 15.7533 20.8247 15.8706 20.9419C15.9878 21.0592 16.1467 21.125 16.3125 21.125C16.4783 21.125 16.6372 21.0592 16.7544 20.9419C16.8717 20.8247 16.9375 20.6658 16.9375 20.5V16.4375C16.9371 16.0232 16.7723 15.6261 16.4794 15.3331C16.1864 15.0402 15.7893 14.8754 15.375 14.875ZM13.8125 17.375V16.4375C13.8126 16.3547 13.8456 16.2752 13.9041 16.2166C13.9627 16.1581 14.0422 16.1251 14.125 16.125H15.375C15.4578 16.1251 15.5373 16.1581 15.5959 16.2166C15.6544 16.2752 15.6874 16.3547 15.6875 16.4375V17.375H13.8125Z" fill="#173401"/>
<path d="M18.1875 15.5V20.5C18.1875 20.6658 18.2533 20.8247 18.3706 20.9419C18.4878 21.0592 18.6467 21.125 18.8125 21.125C18.9783 21.125 19.1372 21.0592 19.2544 20.9419C19.3717 20.8247 19.4375 20.6658 19.4375 20.5V15.5C19.4375 15.3342 19.3717 15.1753 19.2544 15.0581C19.1372 14.9408 18.9783 14.875 18.8125 14.875C18.6467 14.875 18.4878 14.9408 18.3706 15.0581C18.2533 15.1753 18.1875 15.3342 18.1875 15.5Z" fill="#173401"/>
<path d="M27.2678 18C27.8938 17.3938 28.4727 16.7856 28.9828 16.1812C31.3453 13.3687 32.1203 10.9062 31.1641 9.25C29.2756 5.9842 22.1982 7.47357 16.0043 10.401C14.5679 9.71702 13.0902 9.12327 11.5799 8.62317C12.6562 4.34663 14.3902 1.75 16.0078 1.75C16.6953 1.75 17.4016 2.2125 18.0703 3.05625C18.3873 2.77819 18.7603 2.57144 19.1641 2.45C18.2203 1.18125 17.1453 0.5 16.0078 0.5C13.6307 0.5 11.5766 3.54978 10.3806 8.25738C5.70669 6.93902 2.03996 7.19197 0.851571 9.25C-1.03369 12.5149 3.79648 17.9059 9.42541 21.8047C9.55125 23.3894 9.77577 24.9646 10.0977 26.5212C5.85783 27.7265 2.7433 27.5239 1.93281 26.125C1.58906 25.525 1.63906 24.6875 2.03281 23.6938C1.62867 23.5499 1.25849 23.3244 0.945308 23.0312C0.314058 24.4812 0.270308 25.75 0.851558 26.75C1.55781 27.9688 3.13281 28.5562 5.27656 28.5562C7.00662 28.5144 8.7232 28.2402 10.3802 27.7409C11.5761 32.4495 13.6305 35.5 16.0078 35.5C19.7829 35.5 22.0262 28.645 22.587 21.7948C23.9009 20.891 25.1578 19.9071 26.3507 18.8488C26.9393 19.4118 27.4987 20.0047 28.0266 20.625C29.9953 22.9688 30.7453 24.975 30.0828 26.125C29.8329 26.4654 29.509 26.7447 29.1355 26.9417C28.762 27.1388 28.3486 27.2484 27.9266 27.2625C27.959 27.4462 27.9757 27.6322 27.9766 27.8187C27.9749 28.0584 27.9477 28.2973 27.8953 28.5312C29.4703 28.3437 30.5828 27.75 31.1641 26.75C32.1203 25.0937 31.3453 22.6312 28.9828 19.8187C28.4727 19.2143 27.8938 18.6062 27.2678 18ZM9.27031 18C9.27031 18.7435 9.28931 19.4729 9.32238 20.1896C3.91412 16.246 0.766995 11.9033 1.93281 9.875C2.74335 8.47214 5.85798 8.27054 10.098 9.47716C9.53131 12.2823 9.25397 15.1382 9.27031 18ZM16.0078 34.25C14.3903 34.25 12.6564 31.6536 11.5801 27.3774C14.2934 26.4652 16.9059 25.2769 19.3766 23.8313C20.0181 23.4609 20.6387 23.076 21.2486 22.6852C20.5382 29.3524 18.3553 34.25 16.0078 34.25ZM18.7516 22.75C16.3888 24.1317 13.8922 25.2705 11.2999 26.1489C10.7658 23.4659 10.5046 20.7356 10.5203 18C10.5046 15.2639 10.7659 12.5333 11.3002 9.8499C13.8923 10.7291 16.3888 11.8683 18.7516 13.25C21.1297 14.6075 23.3666 16.1987 25.429 18C23.3666 19.8013 21.1297 21.3925 18.7516 22.75ZM19.3766 12.1687C18.7319 11.7966 18.0899 11.448 17.452 11.118C23.574 8.40218 28.9067 7.84348 30.0828 9.875C30.7453 11.025 29.9953 13.0312 28.0266 15.375C27.4987 15.9953 26.9393 16.5882 26.3507 17.1512C24.2004 15.2589 21.8637 13.5895 19.3766 12.1687Z" fill="#173401"/>
<path d="M20.0891 7.30627C21.1246 7.30627 21.9641 6.46681 21.9641 5.43127C21.9641 4.39574 21.1246 3.55627 20.0891 3.55627C19.0536 3.55627 18.2141 4.39574 18.2141 5.43127C18.2141 6.46681 19.0536 7.30627 20.0891 7.30627Z" fill="#173401"/>
<path d="M3.08301 22.625C4.11854 22.625 4.95801 21.7855 4.95801 20.75C4.95801 19.7145 4.11854 18.875 3.08301 18.875C2.04747 18.875 1.20801 19.7145 1.20801 20.75C1.20801 21.7855 2.04747 22.625 3.08301 22.625Z" fill="#173401"/>
<path d="M24.8516 29.6937C25.8871 29.6937 26.7266 28.8543 26.7266 27.8187C26.7266 26.7832 25.8871 25.9437 24.8516 25.9437C23.816 25.9437 22.9766 26.7832 22.9766 27.8187C22.9766 28.8543 23.816 29.6937 24.8516 29.6937Z" fill="#173401"/>
</svg>
