<svg width="40" height="30" viewBox="0 0 40 30" fill="none" xmlns="http://www.w3.org/2000/svg">
<path d="M7.91229 14.3649C5.35338 14.3649 3.27173 12.3022 3.27173 9.76752C3.27173 7.23255 5.35338 5.1698 7.91229 5.1698C10.4709 5.1698 12.5522 7.23224 12.5522 9.76752C12.5522 12.3025 10.4709 14.3649 7.91229 14.3649ZM7.91229 6.46012C6.0647 6.46012 4.56205 7.94387 4.56205 9.76752C4.56205 11.5909 6.0647 13.0746 7.91229 13.0746C9.75925 13.0746 11.2619 11.5909 11.2619 9.76752C11.2619 7.94387 9.75925 6.46012 7.91229 6.46012Z" fill="#173401"/>
<path d="M9.77917 27.0942H1.6863C0.756364 27.0942 0 26.3426 0 25.4186V23.3083C0 18.9881 3.54933 15.4731 7.91236 15.4731C9.62828 15.4731 11.2617 16.0087 12.6345 17.0215C12.9212 17.2332 12.9823 17.637 12.7706 17.924C12.5589 18.2104 12.1554 18.2715 11.8684 18.0601C10.7189 17.2121 9.35106 16.7635 7.91236 16.7635C4.26096 16.7635 1.29032 19.6998 1.29032 23.3083V25.4186C1.29032 25.631 1.46799 25.8039 1.6863 25.8039H9.77949C10.1355 25.8039 10.4246 26.0928 10.4246 26.4491C10.4246 26.8051 10.1355 27.0942 9.77917 27.0942Z" fill="#173401"/>
<path d="M38.3138 26.606H30.2209C29.8649 26.606 29.5757 26.3171 29.5757 25.9608C29.5757 25.6049 29.8649 25.3157 30.2209 25.3157H38.3141C38.5324 25.3157 38.71 25.1431 38.71 24.9307V22.8204C38.71 19.2112 35.7394 16.2756 32.088 16.2756C30.563 16.2756 29.0742 16.8007 27.8957 17.7546C27.6191 17.9786 27.2131 17.936 26.9885 17.6591C26.7645 17.3822 26.8067 16.9758 27.0842 16.7515C28.4914 15.6127 30.2684 14.9852 32.088 14.9852C36.4507 14.9852 40.0001 18.4999 40.0001 22.8204V24.9307C40.0001 25.8544 39.2437 26.606 38.3138 26.606Z" fill="#173401"/>
<path d="M32.0877 14.0461C29.5291 14.0461 27.4478 11.9836 27.4478 9.44867C27.4478 6.9137 29.5291 4.85095 32.0877 4.85095C34.6466 4.85095 36.7282 6.91339 36.7282 9.44867C36.7282 11.984 34.6463 14.0461 32.0877 14.0461ZM32.0877 6.14127C30.2407 6.14127 28.7381 7.62502 28.7381 9.44867C28.7381 11.2723 30.2407 12.7558 32.0877 12.7558C33.9353 12.7558 35.4379 11.2723 35.4379 9.44867C35.4379 7.62502 33.935 6.14127 32.0877 6.14127Z" fill="#173401"/>
<path d="M28.7563 29.1935H11.2437C10.0804 29.1935 9.13403 28.2541 9.13403 27.0993V24.1312C9.13403 18.1993 14.008 13.3735 20 13.3735C25.992 13.3735 30.866 18.1993 30.866 24.1312V27.0993C30.866 28.2541 29.9197 29.1935 28.7563 29.1935ZM20 14.6642C14.72 14.6642 10.4244 18.9113 10.4244 24.1315V27.0996C10.4244 27.5428 10.792 27.9035 11.2437 27.9035H28.756C29.2077 27.9035 29.5754 27.5428 29.5754 27.0996V24.1315C29.5757 18.9113 25.2801 14.6642 20 14.6642Z" fill="#173401"/>
<path d="M19.7757 12.6197C16.4881 12.6197 13.813 9.97002 13.813 6.71271C13.813 3.45572 16.4878 0.806396 19.7757 0.806396C23.0639 0.806396 25.7387 3.45603 25.7387 6.71303C25.7387 9.97033 23.0636 12.6197 19.7757 12.6197ZM19.7757 2.09672C17.1995 2.09672 15.1033 4.16766 15.1033 6.71303C15.1033 9.2587 17.1995 11.3296 19.7757 11.3296C22.3522 11.3296 24.4484 9.2587 24.4484 6.71303C24.4484 4.16766 22.3522 2.09672 19.7757 2.09672Z" fill="#173401"/>
</svg>
