<svg width="40" height="40" viewBox="0 0 40 40" fill="none" xmlns="http://www.w3.org/2000/svg">
<g clip-path="url(#clip0_220_4740)">
<path d="M35.7164 38.874C35.7164 39.4959 35.2124 39.9999 34.5905 39.9999H26.3506C26.3436 40 26.3366 40 26.3296 40C26.3225 40 26.3156 40 26.3086 39.9999H16.5129C16.4989 40.0002 16.4848 40.0002 16.4708 39.9999H6.67548C6.66147 40.0002 6.64733 40.0002 6.63332 39.9999H1.16398C0.542111 39.9999 0.0380859 39.4959 0.0380859 38.874C0.0380859 38.2522 0.542111 37.7481 1.16398 37.7481H5.52844V8.57372C5.52844 7.95185 6.03247 7.44783 6.65434 7.44783C7.27621 7.44783 7.78023 7.95185 7.78023 8.57372V37.7481H15.3659V18.4169C15.3659 17.795 15.8699 17.291 16.4918 17.291C17.1136 17.291 17.6177 17.795 17.6177 18.4169V37.7481H25.2037V26.2915C25.2037 25.6697 25.7077 25.1656 26.3296 25.1656C26.9515 25.1656 27.4555 25.6697 27.4555 26.2915V37.7481H34.5905C35.2124 37.7481 35.7164 38.2522 35.7164 38.874ZM38.836 20.8994C38.2141 20.8994 37.7101 21.4034 37.7101 22.0253V25.0995L12.9403 0.329804C12.7145 0.103999 12.4163 -0.00646333 12.1207 0.000292032H1.16398C0.542111 0.000292032 0.0380859 0.504317 0.0380859 1.12619C0.0380859 1.74805 0.542111 2.25208 1.16398 2.25208H11.6781L36.118 26.6917H33.0437C32.4218 26.6917 31.9178 27.1958 31.9178 27.8176C31.9178 28.4395 32.4218 28.9435 33.0437 28.9435H38.836C39.2009 28.9435 39.5254 28.7699 39.7311 28.5007C39.7773 28.4404 39.8167 28.3762 39.8488 28.3098C39.9212 28.1611 39.9618 27.9941 39.9618 27.8176V22.0252C39.9619 21.4034 39.4578 20.8994 38.836 20.8994Z" fill="#173401"/>
</g>
<defs>
<clipPath id="clip0_220_4740">
<rect width="40" height="40" fill="white"/>
</clipPath>
</defs>
</svg>
