<svg width="36" height="28" viewBox="0 0 36 28" fill="none" xmlns="http://www.w3.org/2000/svg">
<path d="M34.8976 14.2854C34.4571 13.6893 33.8166 13.2719 33.0934 13.1095C32.3702 12.9472 31.6127 13.0509 30.9598 13.4015L24.5036 16.9736C24.3188 16.5521 24.0377 16.1799 23.683 15.8867C23.3282 15.5935 22.9097 15.3877 22.4609 15.2856L15.4857 13.696C15.369 13.6695 15.2496 13.656 15.1299 13.656H9.98556C9.1627 13.6028 8.37951 14.199 7.72671 14.6217V13.2346C7.7267 13.0688 7.66085 12.9098 7.54362 12.7926C7.4264 12.6754 7.26742 12.6095 7.10164 12.6095H1.12507C0.959293 12.6095 0.800309 12.6754 0.683088 12.7926C0.565866 12.9098 0.500008 13.0688 0.5 13.2346V27.1731C0.500015 27.3389 0.565876 27.4979 0.683097 27.6151C0.800317 27.7323 0.959297 27.7982 1.12507 27.7982H7.10165C7.26743 27.7982 7.42641 27.7323 7.54363 27.6151C7.66085 27.4979 7.72671 27.3389 7.72672 27.1731V25.6329C8.36123 26.0436 9.07883 26.5858 9.87968 26.5364L20.6981 26.5365C21.1775 26.5371 21.6474 26.4031 22.0544 26.1498L34.0283 18.7442C34.392 18.5205 34.7053 18.2239 34.9485 17.873C35.1916 17.522 35.3593 17.1245 35.441 16.7055C35.5227 16.2864 35.5166 15.855 35.4231 15.4384C35.3295 15.0219 35.1506 14.6293 34.8976 14.2854ZM6.47659 26.548H1.75013V13.8596H6.47659V26.548ZM34.2206 16.4676C34.1707 16.718 34.0692 16.9552 33.9226 17.1643C33.776 17.3733 33.5875 17.5495 33.3691 17.6818L21.3939 25.0879C21.1856 25.2189 20.9442 25.2878 20.6981 25.2863H9.87966C9.28571 25.3402 8.21291 24.3975 7.72669 24.1435V16.1087C8.23294 15.8424 9.39139 14.8502 9.98551 14.9062H15.1298C15.1562 14.9062 15.1825 14.9092 15.2083 14.915L22.185 16.5048C22.5958 16.5934 22.956 16.8386 23.1891 17.1882C24.099 18.3324 22.769 20.0501 21.414 19.7046L15.154 18.3843C14.9932 18.3537 14.8268 18.3874 14.6906 18.4781C14.5544 18.5688 14.4591 18.7093 14.4253 18.8694C14.3915 19.0296 14.4219 19.1966 14.5098 19.3346C14.5978 19.4726 14.7364 19.5706 14.8958 19.6076L21.1589 20.9286C21.5691 21.0112 21.9921 21.0066 22.4005 20.9153C22.8088 20.8239 23.1934 20.6478 23.5293 20.3982C23.8652 20.1487 24.1449 19.8314 24.3503 19.4668C24.5557 19.1022 24.6821 18.6985 24.7215 18.2819L31.5647 14.4957C31.871 14.3395 32.2149 14.272 32.5575 14.3007C32.9002 14.3294 33.228 14.4532 33.5041 14.6582C33.7801 14.8632 33.9935 15.1411 34.1201 15.4608C34.2467 15.7805 34.2815 16.1292 34.2206 16.4676Z" fill="#173401"/>
<path d="M14.2514 12.8531H26.6905C27.1877 12.8525 27.6643 12.6548 28.0159 12.3032C28.3674 11.9517 28.5651 11.475 28.5657 10.9779V7.53578C32.4708 6.09369 31.4892 0.237736 27.2672 0.201904C26.6625 0.202366 26.0668 0.3479 25.53 0.626289C24.9932 0.904678 24.531 1.30779 24.1823 1.80179H14.2514C13.7543 1.80233 13.2776 2.00007 12.9261 2.35162C12.5745 2.70317 12.3768 3.17982 12.3762 3.67699V10.9779C12.3768 11.475 12.5745 11.9517 12.9261 12.3032C13.2776 12.6548 13.7543 12.8525 14.2514 12.8531ZM27.3156 10.9779C27.3154 11.1436 27.2495 11.3025 27.1323 11.4197C27.0151 11.5369 26.8562 11.6028 26.6905 11.6029H14.2514C14.0857 11.6027 13.9269 11.5368 13.8097 11.4196C13.6925 11.3024 13.6266 11.1436 13.6264 10.9779V5.69594H23.8957C24.2115 6.31916 24.6937 6.8428 25.2888 7.20889C25.8839 7.57498 26.5687 7.76923 27.2673 7.77013C27.2836 7.77013 27.2993 7.76789 27.3156 7.7677V10.9779ZM27.2673 1.45202C27.9354 1.45806 28.5741 1.72769 29.0444 2.20226C29.5147 2.67683 29.7785 3.31792 29.7785 3.98604C29.7785 4.65416 29.5147 5.29525 29.0444 5.76981C28.5741 6.24436 27.9354 6.51398 27.2673 6.52C26.5992 6.51397 25.9605 6.24433 25.4902 5.76977C25.0199 5.2952 24.7561 4.65411 24.7561 3.98599C24.7561 3.31786 25.0199 2.67678 25.4902 2.20222C25.9606 1.72766 26.5992 1.45804 27.2673 1.45202ZM14.2514 3.05193H23.6042C23.4847 3.50642 23.4539 3.97968 23.5136 4.44582H13.6264V3.67699C13.6266 3.51128 13.6925 3.35242 13.8097 3.23524C13.9269 3.11807 14.0857 3.05214 14.2514 3.05193Z" fill="#173401"/>
<path d="M25.513 4.06299L26.3285 5.17456C26.3814 5.24666 26.4491 5.30658 26.5271 5.35028C26.6051 5.39398 26.6916 5.42044 26.7807 5.42787C26.8698 5.4353 26.9594 5.42354 27.0436 5.39337C27.1277 5.36321 27.2045 5.31534 27.2685 5.253L28.9533 3.61496C29.0683 3.49854 29.1331 3.34165 29.1337 3.178C29.1343 3.01434 29.0708 2.85697 28.9567 2.73966C28.8425 2.62235 28.687 2.55447 28.5234 2.55059C28.3598 2.54671 28.2011 2.60714 28.0816 2.7189L26.9121 3.85608L26.5214 3.3238C26.422 3.19369 26.2756 3.10774 26.1136 3.0844C25.9515 3.06107 25.7868 3.10221 25.6548 3.19899C25.5228 3.29578 25.4339 3.44048 25.4074 3.60203C25.3809 3.76358 25.4188 3.92908 25.513 4.06299Z" fill="#173401"/>
</svg>
