<svg width="40" height="40" viewBox="0 0 40 40" fill="none" xmlns="http://www.w3.org/2000/svg">
<g clip-path="url(#clip0_215_4603)">
<path d="M17.9156 17.0813C17.9156 17.4266 18.1953 17.7063 18.5406 17.7063C18.8859 17.7063 19.1656 17.4266 19.1656 17.0813C19.1656 15.3188 17.7336 13.8532 15.8656 13.5821V12.3657C15.8656 12.0204 15.5859 11.7407 15.2406 11.7407C14.8953 11.7407 14.6156 12.0204 14.6156 12.3657V13.5821C12.7477 13.8532 11.3156 15.3188 11.3156 17.0813C11.3156 18.2883 11.757 19.1915 12.6273 19.7657C13.2086 20.1493 13.9086 20.3461 14.6148 20.5047V25.1493C13.4406 24.9071 12.5648 23.9993 12.5648 22.918C12.5648 22.5727 12.2852 22.293 11.9398 22.293C11.5945 22.293 11.3148 22.5727 11.3148 22.918C11.3148 24.6805 12.7469 26.1461 14.6148 26.4172V27.6336C14.6148 27.979 14.8945 28.2586 15.2398 28.2586C15.5852 28.2586 15.8648 27.979 15.8648 27.6336V26.4172C17.7328 26.1461 19.1648 24.6805 19.1648 22.918C19.1648 21.711 18.7234 20.8079 17.8531 20.2336C17.2719 19.85 16.5719 19.6532 15.8656 19.4946V14.85C17.0398 15.0922 17.9156 16.0008 17.9156 17.0813ZM12.5664 17.0813C12.5664 16.0008 13.4422 15.0922 14.6164 14.85V19.2188C13.2977 18.893 12.5664 18.4719 12.5664 17.0813ZM17.9156 22.9188C17.9156 23.9993 17.0398 24.9079 15.8656 25.15V20.7813C17.1844 21.1071 17.9156 21.5282 17.9156 22.9188ZM39.9414 23.8282C39.8391 23.6079 39.618 23.4665 39.375 23.4665H35.5664V10.1422C35.5664 9.79692 35.2867 9.51724 34.9414 9.51724H26.3148C23.4422 6.47896 19.4234 4.74146 15.2414 4.74146C6.83672 4.74146 0 11.5868 0 20.0008C0 28.4141 6.83672 35.2586 15.2406 35.2586C19.4031 35.2586 23.3711 33.554 26.2398 30.5594L30.0141 35.0368C30.1328 35.1774 30.3078 35.2586 30.4922 35.2586C30.6766 35.2586 30.8516 35.1774 30.9703 35.036L39.8531 24.4938C40.0094 24.3086 40.0445 24.0485 39.9414 23.8282ZM21.132 24.4946L23.4352 27.229C21.3586 29.5907 18.4016 30.936 15.2414 30.936C9.21953 30.936 4.31953 26.0305 4.31953 20.0016C4.31953 13.9727 9.21875 9.06645 15.2406 9.06645C19.7172 9.06645 23.7922 11.8594 25.418 16.0266V23.4665H21.6094C21.3664 23.4665 21.1453 23.6071 21.043 23.8282C20.9406 24.0493 20.975 24.3086 21.132 24.4946ZM15.2406 34.0086C7.52656 34.0086 1.25 27.725 1.25 20.0008C1.25 12.2758 7.52656 5.99067 15.2406 5.99067C19.0852 5.99067 22.7805 7.59067 25.418 10.3883V13.3118C24.5797 12.0344 23.5055 10.9211 22.2336 10.0266C20.1789 8.58052 17.7609 7.81646 15.2406 7.81646C8.52891 7.81646 3.06875 13.2829 3.06875 20.0008C3.06875 26.7188 8.52891 32.1852 15.2406 32.1852C18.7 32.1852 21.9414 30.7391 24.2484 28.1938L25.4297 29.5961C22.7891 32.4071 19.1063 34.0086 15.2406 34.0086ZM30.4922 33.6641L26.5281 28.9618L22.9531 24.7172H26.043C26.3883 24.7172 26.668 24.4375 26.668 24.0922V10.7672H34.3156V24.0922C34.3156 24.4375 34.5953 24.7172 34.9406 24.7172H38.0305L30.4922 33.6641Z" fill="#173401"/>
</g>
<defs>
<clipPath id="clip0_215_4603">
<rect width="40" height="40" fill="white"/>
</clipPath>
</defs>
</svg>
