<svg width="38" height="36" viewBox="0 0 38 36" fill="none" xmlns="http://www.w3.org/2000/svg">
<path d="M19.8334 0.5C13.058 0.5 6.91091 4.4075 4.01925 10.5H1.50008C1.21133 10.5 0.942998 10.6496 0.791331 10.895C0.639664 11.1408 0.625915 11.4475 0.754665 11.7058L4.088 18.3725C4.22925 18.655 4.51758 18.8333 4.83341 18.8333C5.14925 18.8333 5.43758 18.655 5.57883 18.3729L8.91216 11.7063C9.04133 11.4479 9.02716 11.1412 8.8755 10.8954C8.72383 10.6496 8.4555 10.5 8.16675 10.5H5.88966C8.63425 5.39917 13.9726 2.16667 19.8334 2.16667C28.5638 2.16667 35.6667 9.26958 35.6667 18C35.6667 26.7304 28.5638 33.8333 19.8334 33.8333C13.3484 33.8333 7.5855 29.9467 5.153 23.9308C4.98008 23.5046 4.49675 23.2996 4.068 23.4708C3.64175 23.6437 3.43508 24.1292 3.608 24.5558C6.29675 31.2042 12.6659 35.5 19.8334 35.5C29.483 35.5 37.3334 27.6496 37.3334 18C37.3334 8.35042 29.483 0.5 19.8334 0.5ZM4.83341 16.1367L2.84841 12.1667H6.818L4.83341 16.1367ZM23.1667 19.6667C23.1667 21.0454 22.0455 22.1667 20.6667 22.1667V23.4167C20.6667 23.8767 20.2934 24.25 19.8334 24.25C19.3734 24.25 19.0001 23.8767 19.0001 23.4167V22.1667H17.7501C17.2901 22.1667 16.9167 21.7933 16.9167 21.3333C16.9167 20.8733 17.2901 20.5 17.7501 20.5H20.6667C21.1263 20.5 21.5001 20.1262 21.5001 19.6667C21.5001 19.2071 21.1263 18.8333 20.6667 18.8333H19.0001C17.6213 18.8333 16.5001 17.7121 16.5001 16.3333C16.5001 14.9546 17.6213 13.8333 19.0001 13.8333V12.5833C19.0001 12.1233 19.3734 11.75 19.8334 11.75C20.2934 11.75 20.6667 12.1233 20.6667 12.5833V13.8333H21.9167C22.3767 13.8333 22.7501 14.2067 22.7501 14.6667C22.7501 15.1267 22.3767 15.5 21.9167 15.5H19.0001C18.5405 15.5 18.1667 15.8737 18.1667 16.3333C18.1667 16.7929 18.5405 17.1667 19.0001 17.1667H20.6667C22.0455 17.1667 23.1667 18.2879 23.1667 19.6667ZM19.8334 27.5833C14.5488 27.5833 10.2501 23.2846 10.2501 18C10.2501 12.7154 14.5488 8.41667 19.8334 8.41667C25.118 8.41667 29.4167 12.7154 29.4167 18C29.4167 23.2846 25.118 27.5833 19.8334 27.5833ZM19.8334 10.0833C15.468 10.0833 11.9167 13.6346 11.9167 18C11.9167 22.3654 15.468 25.9167 19.8334 25.9167C24.1988 25.9167 27.7501 22.3654 27.7501 18C27.7501 13.6346 24.1988 10.0833 19.8334 10.0833Z" fill="#173401"/>
</svg>
