<svg width="213" height="36" viewBox="0 0 213 36" fill="none" xmlns="http://www.w3.org/2000/svg">
<path d="M13.8665 24.7463C11.97 24.7463 10.1149 24.0937 8.64276 22.9085L2.0232 17.5794C-0.657156 15.4985 -0.656778 11.2346 2.0232 9.1541L8.64276 3.82497C11.579 1.39162 16.1541 1.39174 19.0903 3.82497L25.7098 9.1541C27.4014 10.516 28.1168 12.7428 27.5325 14.8273C27.3459 15.4926 26.6513 15.8821 25.9802 15.697C25.3094 15.512 24.9169 14.8226 25.1035 14.1572C25.4189 13.032 25.0333 11.8305 24.121 11.0961L17.5015 5.76687C15.3952 4.07125 12.3378 4.07125 10.2316 5.76687L3.612 11.0961C2.16685 12.218 2.16704 14.5157 3.612 15.6375L10.2316 20.9666C12.3341 22.6593 15.3848 22.6623 17.4907 20.9752L18.5964 20.0423C19.1267 19.5949 19.9223 19.6584 20.3734 20.1846C20.8244 20.7107 20.7602 21.4999 20.2299 21.9473L19.1126 22.89C19.1052 22.8963 19.0978 22.9024 19.0903 22.9085C17.6182 24.0937 15.763 24.7463 13.8665 24.7463ZM19.0903 32.1622L25.7098 26.8331C28.3902 24.7522 28.3898 20.4883 25.7098 18.4078L19.0903 13.0787C16.1541 10.6453 11.5789 10.6455 8.64276 13.0787L7.70953 13.838C6.45845 14.9412 7.97438 16.7726 9.30829 15.7718L10.2336 15.019C12.3399 13.3251 15.396 13.3256 17.5015 15.0206L24.121 20.3498C25.5662 21.4717 25.566 23.7694 24.121 24.8912L17.5015 30.2203C15.3952 31.9159 12.3378 31.9159 10.2316 30.2203L3.612 24.8912C2.77622 24.2183 2.37649 23.1461 2.56879 22.0931C2.6929 21.4135 2.23813 20.7628 1.55312 20.6397C0.868489 20.5168 0.212156 20.9677 0.0879865 21.6472C-0.26826 23.5981 0.473227 25.5852 2.0232 26.8331L8.64276 32.1622C10.1148 33.3473 11.97 34 13.8665 34C15.763 34 17.6182 33.3474 19.0903 32.1622Z" fill="white"/>
<path d="M48.1343 27.4504C47.0333 27.4504 45.8447 27.4004 44.5685 27.3004C43.3174 27.2004 42.1038 27.0754 40.9277 26.9254C39.7766 26.7754 38.8007 26.6129 38 26.4379V2.21289C39.4263 1.91289 40.9402 1.68789 42.5417 1.53789C44.1682 1.36289 45.8197 1.27539 47.4962 1.27539C49.5231 1.27539 51.2497 1.58789 52.676 2.21289C54.1273 2.81289 55.2409 3.65039 56.0166 4.72539C56.8173 5.80039 57.2177 7.03789 57.2177 8.43789C57.2177 9.68789 56.8799 10.8004 56.2042 11.7754C55.5536 12.7504 54.7279 13.5004 53.727 14.0254C54.4777 14.2254 55.2033 14.5629 55.904 15.0379C56.6046 15.4879 57.1801 16.1004 57.6306 16.8754C58.081 17.6254 58.3062 18.5879 58.3062 19.7629C58.3062 21.1629 57.9058 22.4504 57.1051 23.6254C56.3043 24.7754 55.1408 25.7004 53.6144 26.4004C52.113 27.1004 50.2863 27.4504 48.1343 27.4504ZM48.0217 22.9504C49.4731 22.9504 50.6366 22.6254 51.5124 21.9754C52.3882 21.3254 52.8261 20.4879 52.8261 19.4629C52.8261 18.3879 52.3757 17.6004 51.4749 17.1004C50.5741 16.6004 49.423 16.3504 48.0217 16.3504H42.354V12.4879H48.0968C49.373 12.4879 50.3489 12.1754 51.0245 11.5504C51.7001 10.9254 52.0379 10.1254 52.0379 9.15039C52.0379 8.47539 51.8377 7.90039 51.4374 7.42539C51.062 6.92539 50.549 6.53789 49.8984 6.26289C49.2729 5.98789 48.5347 5.85039 47.6839 5.85039C46.8581 5.85039 46.0574 5.88789 45.2817 5.96289C44.506 6.01289 43.8179 6.10039 43.2173 6.22539V22.5004C43.6927 22.6004 44.2307 22.6879 44.8313 22.7629C45.4569 22.8379 46.0574 22.8879 46.6329 22.9129C47.2085 22.9379 47.6714 22.9504 48.0217 22.9504Z" fill="white"/>
<path d="M70.9 27.5627C69.5237 27.5627 68.2225 27.3127 66.9964 26.8127C65.7953 26.2877 64.7193 25.5752 63.7684 24.6752C62.8175 23.7752 62.0793 22.7252 61.5539 21.5252C61.0284 20.3002 60.7656 18.9877 60.7656 17.5877C60.7656 16.1877 61.0284 14.8877 61.5539 13.6877C62.0793 12.4627 62.8175 11.4002 63.7684 10.5002C64.7193 9.5752 65.7953 8.8627 66.9964 8.3627C68.2225 7.8377 69.5237 7.5752 70.9 7.5752C72.2762 7.5752 73.5774 7.8377 74.8036 8.3627C76.0297 8.8627 77.1057 9.5752 78.0315 10.5002C78.9824 11.4002 79.7206 12.4627 80.2461 13.6877C80.7966 14.8877 81.0718 16.1877 81.0718 17.5877C81.0718 18.9877 80.7966 20.3002 80.2461 21.5252C79.7206 22.7252 78.9824 23.7752 78.0315 24.6752C77.1057 25.5752 76.0297 26.2877 74.8036 26.8127C73.5774 27.3127 72.2762 27.5627 70.9 27.5627ZM70.9 22.9502C71.8258 22.9502 72.6641 22.7502 73.4148 22.3502C74.1905 21.9252 74.8161 21.3127 75.2915 20.5127C75.7669 19.6877 76.0047 18.7127 76.0047 17.5877C76.0047 16.4127 75.7669 15.4252 75.2915 14.6252C74.8161 13.8252 74.1905 13.2252 73.4148 12.8252C72.6641 12.4002 71.8258 12.1877 70.9 12.1877C70.0242 12.1877 69.1859 12.4002 68.3852 12.8252C67.6094 13.2252 66.9839 13.8252 66.5084 14.6252C66.058 15.4252 65.8328 16.4127 65.8328 17.5877C65.8328 18.7127 66.058 19.6877 66.5084 20.5127C66.9839 21.3127 67.6094 21.9252 68.3852 22.3502C69.1859 22.7502 70.0242 22.9502 70.9 22.9502Z" fill="white"/>
<path d="M93.6276 27.5627C92.2513 27.5627 90.9501 27.3127 89.724 26.8127C88.5229 26.2877 87.4469 25.5752 86.496 24.6752C85.5451 23.7752 84.807 22.7252 84.2815 21.5252C83.756 20.3002 83.4932 18.9877 83.4932 17.5877C83.4932 16.1877 83.756 14.8877 84.2815 13.6877C84.807 12.4627 85.5451 11.4002 86.496 10.5002C87.4469 9.5752 88.5229 8.8627 89.724 8.3627C90.9501 7.8377 92.2513 7.5752 93.6276 7.5752C95.0038 7.5752 96.305 7.8377 97.5312 8.3627C98.7573 8.8627 99.8333 9.5752 100.759 10.5002C101.71 11.4002 102.448 12.4627 102.974 13.6877C103.524 14.8877 103.8 16.1877 103.8 17.5877C103.8 18.9877 103.524 20.3002 102.974 21.5252C102.448 22.7252 101.71 23.7752 100.759 24.6752C99.8333 25.5752 98.7573 26.2877 97.5312 26.8127C96.305 27.3127 95.0038 27.5627 93.6276 27.5627ZM93.6276 22.9502C94.5534 22.9502 95.3917 22.7502 96.1424 22.3502C96.9181 21.9252 97.5437 21.3127 98.0191 20.5127C98.4945 19.6877 98.7323 18.7127 98.7323 17.5877C98.7323 16.4127 98.4945 15.4252 98.0191 14.6252C97.5437 13.8252 96.9181 13.2252 96.1424 12.8252C95.3917 12.4002 94.5534 12.1877 93.6276 12.1877C92.7518 12.1877 91.9135 12.4002 91.1128 12.8252C90.337 13.2252 89.7115 13.8252 89.236 14.6252C88.7856 15.4252 88.5604 16.4127 88.5604 17.5877C88.5604 18.7127 88.7856 19.6877 89.236 20.5127C89.7115 21.3127 90.337 21.9252 91.1128 22.3502C91.9135 22.7502 92.7518 22.9502 93.6276 22.9502Z" fill="white"/>
<path d="M112.715 27.5627C111.864 27.5627 111.026 27.4627 110.2 27.2627C109.374 27.0877 108.611 26.8502 107.91 26.5502C107.235 26.2502 106.684 25.9502 106.259 25.6502V21.4877C106.734 21.8127 107.31 22.1252 107.985 22.4252C108.661 22.7252 109.362 22.9752 110.087 23.1752C110.813 23.3502 111.476 23.4377 112.077 23.4377C113.028 23.4377 113.753 23.2627 114.254 22.9127C114.779 22.5627 115.042 22.0877 115.042 21.4877C115.042 21.0127 114.829 20.6377 114.404 20.3627C113.978 20.0877 113.353 19.8127 112.527 19.5377L110.2 18.7127C108.774 18.2377 107.773 17.5627 107.197 16.6877C106.647 15.8127 106.371 14.7752 106.371 13.5752C106.371 12.3752 106.672 11.3377 107.272 10.4627C107.898 9.5627 108.761 8.8627 109.862 8.3627C110.988 7.8377 112.252 7.5752 113.653 7.5752C114.829 7.5752 115.918 7.7502 116.919 8.1002C117.945 8.4252 118.72 8.8252 119.246 9.3002V13.5002C118.67 13.1002 117.945 12.7127 117.069 12.3377C116.218 11.9627 115.317 11.7752 114.366 11.7752C113.465 11.7752 112.752 11.9752 112.227 12.3752C111.701 12.7752 111.439 13.2502 111.439 13.8002C111.439 14.2002 111.589 14.5752 111.889 14.9252C112.214 15.2502 112.79 15.5377 113.616 15.7877L115.755 16.5002C117.231 16.9252 118.32 17.5627 119.021 18.4127C119.721 19.2377 120.071 20.2627 120.071 21.4877C120.071 22.6377 119.734 23.6752 119.058 24.6002C118.407 25.5252 117.519 26.2502 116.393 26.7752C115.292 27.3002 114.066 27.5627 112.715 27.5627Z" fill="white"/>
<path d="M131.201 27.5623C130.075 27.5623 129.049 27.3123 128.123 26.8123C127.223 26.3123 126.509 25.6123 125.984 24.7123C125.458 23.7873 125.196 22.6998 125.196 21.4498V12.0373H122.043V9.5998C123.269 9.1748 124.27 8.3873 125.046 7.2373C125.846 6.0873 126.547 4.6498 127.148 2.9248H129.963V8.0623H135.668V12.0373H129.963V20.2123C129.963 21.0623 130.175 21.7373 130.601 22.2373C131.051 22.7123 131.702 22.9498 132.552 22.9498C133.303 22.9498 133.954 22.8373 134.504 22.6123C135.055 22.3873 135.543 22.1498 135.968 21.8998V25.9498C135.518 26.4248 134.88 26.8123 134.054 27.1123C133.253 27.4123 132.302 27.5623 131.201 27.5623Z" fill="white"/>
<path d="M140.079 27V0H144.846V27H140.079Z" fill="white"/>
<path d="M149.82 36L157.327 22.35L163.557 8.0625H169L155.225 36H149.82ZM156.163 26.925L147.343 8.0625H152.898L159.729 23.3625L156.163 26.925Z" fill="white"/>
<path d="M163.264 30.0001L166.336 21.6001H168.172L171.232 30.0001H169.516L167.248 23.4481L164.968 30.0001H163.264ZM164.62 28.0921L165.052 26.8321H169.324L169.744 28.0921H164.62ZM175.539 30.1441C174.739 30.1441 174.043 29.9681 173.451 29.6161C172.859 29.2561 172.399 28.7561 172.071 28.1161C171.743 27.4681 171.579 26.7161 171.579 25.8601C171.579 24.9961 171.747 24.2361 172.083 23.5801C172.419 22.9161 172.903 22.3961 173.535 22.0201C174.167 21.6441 174.923 21.4561 175.803 21.4561C176.787 21.4561 177.603 21.6921 178.251 22.1641C178.907 22.6361 179.331 23.2921 179.523 24.1321H177.711C177.591 23.7641 177.367 23.4761 177.039 23.2681C176.719 23.0521 176.303 22.9441 175.791 22.9441C175.247 22.9441 174.783 23.0641 174.399 23.3041C174.015 23.5441 173.723 23.8801 173.523 24.3121C173.323 24.7441 173.223 25.2601 173.223 25.8601C173.223 26.4681 173.323 26.9841 173.523 27.4081C173.723 27.8321 174.007 28.1561 174.375 28.3801C174.751 28.5961 175.191 28.7041 175.695 28.7041C176.431 28.7041 176.987 28.5081 177.363 28.1161C177.747 27.7161 177.975 27.2001 178.047 26.5681H175.983V25.3561H179.679V30.0001H178.179L178.059 28.9321C177.883 29.1961 177.675 29.4201 177.435 29.6041C177.203 29.7801 176.931 29.9121 176.619 30.0001C176.307 30.0961 175.947 30.1441 175.539 30.1441ZM181.195 30.0001V21.6001H186.715V22.9081H182.815V25.1041H186.355V26.3641H182.815V28.6921H186.715V30.0001H181.195ZM188.191 30.0001V21.6001H189.811L193.675 27.3961V21.6001H195.295V30.0001H193.675L189.811 24.2161V30.0001H188.191ZM200.701 30.1441C199.861 30.1441 199.137 29.9641 198.529 29.6041C197.929 29.2361 197.465 28.7281 197.137 28.0801C196.817 27.4241 196.657 26.6681 196.657 25.8121C196.657 24.9561 196.817 24.2001 197.137 23.5441C197.465 22.8881 197.929 22.3761 198.529 22.0081C199.137 21.6401 199.861 21.4561 200.701 21.4561C201.717 21.4561 202.549 21.7081 203.197 22.2121C203.845 22.7161 204.249 23.4281 204.409 24.3481H202.645C202.541 23.9001 202.321 23.5521 201.985 23.3041C201.657 23.0481 201.225 22.9201 200.689 22.9201C200.193 22.9201 199.765 23.0401 199.405 23.2801C199.053 23.5121 198.781 23.8441 198.589 24.2761C198.397 24.7001 198.301 25.2121 198.301 25.8121C198.301 26.4041 198.397 26.9161 198.589 27.3481C198.781 27.7801 199.053 28.1121 199.405 28.3441C199.765 28.5761 200.193 28.6921 200.689 28.6921C201.225 28.6921 201.657 28.5761 201.985 28.3441C202.313 28.1041 202.529 27.7721 202.633 27.3481H204.409C204.249 28.2201 203.845 28.9041 203.197 29.4001C202.549 29.8961 201.717 30.1441 200.701 30.1441ZM207.531 30.0001V27.0481L204.699 21.6001H206.535L208.515 25.7521H208.191L210.159 21.6001H211.983L209.151 27.0481V30.0001H207.531Z" fill="white"/>
</svg>
