<svg width="213" height="36" viewBox="0 0 213 36" fill="none" xmlns="http://www.w3.org/2000/svg">
<path d="M13.8665 24.7463C11.97 24.7463 10.1149 24.0937 8.64276 22.9085L2.0232 17.5794C-0.657156 15.4985 -0.656778 11.2346 2.0232 9.1541L8.64276 3.82497C11.579 1.39162 16.1541 1.39174 19.0903 3.82497L25.7098 9.1541C27.4014 10.516 28.1168 12.7428 27.5325 14.8273C27.3459 15.4926 26.6513 15.8821 25.9802 15.697C25.3094 15.512 24.9169 14.8226 25.1035 14.1572C25.4189 13.032 25.0333 11.8305 24.121 11.0961L17.5015 5.76687C15.3952 4.07125 12.3378 4.07125 10.2316 5.76687L3.612 11.0961C2.16685 12.218 2.16704 14.5157 3.612 15.6375L10.2316 20.9666C12.3341 22.6593 15.3848 22.6623 17.4907 20.9752L18.5964 20.0423C19.1267 19.5948 19.9223 19.6584 20.3734 20.1846C20.8244 20.7107 20.7602 21.4999 20.2299 21.9473L19.1126 22.89C19.1052 22.8963 19.0978 22.9024 19.0903 22.9085C17.6182 24.0937 15.763 24.7463 13.8665 24.7463ZM19.0903 32.1622L25.7098 26.8331C28.3902 24.7522 28.3898 20.4883 25.7098 18.4078L19.0903 13.0787C16.1541 10.6453 11.5789 10.6455 8.64276 13.0787L7.70953 13.838C6.45845 14.9412 7.97438 16.7726 9.30829 15.7718L10.2336 15.019C12.3399 13.3251 15.396 13.3256 17.5015 15.0206L24.121 20.3498C25.5662 21.4717 25.566 23.7694 24.121 24.8912L17.5015 30.2203C15.3952 31.9159 12.3378 31.9159 10.2316 30.2203L3.612 24.8912C2.77622 24.2183 2.37649 23.1461 2.56879 22.0931C2.6929 21.4135 2.23813 20.7628 1.55312 20.6397C0.868489 20.5168 0.212156 20.9677 0.0879865 21.6472C-0.26826 23.5981 0.473227 25.5852 2.0232 26.8331L8.64276 32.1622C10.1148 33.3473 11.97 34 13.8665 34C15.763 34 17.6182 33.3474 19.0903 32.1622Z" fill="#6A47ED"/>
<path d="M48.1343 27.45C47.0333 27.45 45.8447 27.4 44.5685 27.3C43.3174 27.2 42.1038 27.075 40.9277 26.925C39.7766 26.775 38.8007 26.6125 38 26.4375V2.2125C39.4263 1.9125 40.9402 1.6875 42.5417 1.5375C44.1682 1.3625 45.8197 1.275 47.4962 1.275C49.5231 1.275 51.2497 1.5875 52.676 2.2125C54.1273 2.8125 55.2409 3.65 56.0166 4.725C56.8173 5.8 57.2177 7.0375 57.2177 8.4375C57.2177 9.6875 56.8799 10.8 56.2042 11.775C55.5536 12.75 54.7279 13.5 53.727 14.025C54.4777 14.225 55.2033 14.5625 55.904 15.0375C56.6046 15.4875 57.1801 16.1 57.6306 16.875C58.081 17.625 58.3062 18.5875 58.3062 19.7625C58.3062 21.1625 57.9058 22.45 57.1051 23.625C56.3043 24.775 55.1408 25.7 53.6144 26.4C52.113 27.1 50.2863 27.45 48.1343 27.45ZM48.0217 22.95C49.4731 22.95 50.6366 22.625 51.5124 21.975C52.3882 21.325 52.8261 20.4875 52.8261 19.4625C52.8261 18.3875 52.3757 17.6 51.4749 17.1C50.5741 16.6 49.423 16.35 48.0217 16.35H42.354V12.4875H48.0968C49.373 12.4875 50.3489 12.175 51.0245 11.55C51.7001 10.925 52.0379 10.125 52.0379 9.15C52.0379 8.475 51.8377 7.9 51.4374 7.425C51.062 6.925 50.549 6.5375 49.8984 6.2625C49.2729 5.9875 48.5347 5.85 47.6839 5.85C46.8581 5.85 46.0574 5.8875 45.2817 5.9625C44.506 6.0125 43.8179 6.1 43.2173 6.225V22.5C43.6927 22.6 44.2307 22.6875 44.8313 22.7625C45.4569 22.8375 46.0574 22.8875 46.6329 22.9125C47.2085 22.9375 47.6714 22.95 48.0217 22.95Z" fill="#6A47ED"/>
<path d="M70.8998 27.5625C69.5235 27.5625 68.2223 27.3125 66.9962 26.8125C65.7951 26.2875 64.7191 25.575 63.7682 24.675C62.8173 23.775 62.0791 22.725 61.5537 21.525C61.0282 20.3 60.7654 18.9875 60.7654 17.5875C60.7654 16.1875 61.0282 14.8875 61.5537 13.6875C62.0791 12.4625 62.8173 11.4 63.7682 10.5C64.7191 9.575 65.7951 8.8625 66.9962 8.3625C68.2223 7.8375 69.5235 7.575 70.8998 7.575C72.276 7.575 73.5772 7.8375 74.8034 8.3625C76.0295 8.8625 77.1055 9.575 78.0313 10.5C78.9822 11.4 79.7204 12.4625 80.2459 13.6875C80.7964 14.8875 81.0716 16.1875 81.0716 17.5875C81.0716 18.9875 80.7964 20.3 80.2459 21.525C79.7204 22.725 78.9822 23.775 78.0313 24.675C77.1055 25.575 76.0295 26.2875 74.8034 26.8125C73.5772 27.3125 72.276 27.5625 70.8998 27.5625ZM70.8998 22.95C71.8256 22.95 72.6639 22.75 73.4146 22.35C74.1903 21.925 74.8159 21.3125 75.2913 20.5125C75.7667 19.6875 76.0045 18.7125 76.0045 17.5875C76.0045 16.4125 75.7667 15.425 75.2913 14.625C74.8159 13.825 74.1903 13.225 73.4146 12.825C72.6639 12.4 71.8256 12.1875 70.8998 12.1875C70.024 12.1875 69.1857 12.4 68.3849 12.825C67.6092 13.225 66.9837 13.825 66.5082 14.625C66.0578 15.425 65.8326 16.4125 65.8326 17.5875C65.8326 18.7125 66.0578 19.6875 66.5082 20.5125C66.9837 21.3125 67.6092 21.925 68.3849 22.35C69.1857 22.75 70.024 22.95 70.8998 22.95Z" fill="#6A47ED"/>
<path d="M93.6277 27.5625C92.2514 27.5625 90.9502 27.3125 89.7241 26.8125C88.523 26.2875 87.447 25.575 86.4961 24.675C85.5452 23.775 84.8071 22.725 84.2816 21.525C83.7561 20.3 83.4933 18.9875 83.4933 17.5875C83.4933 16.1875 83.7561 14.8875 84.2816 13.6875C84.8071 12.4625 85.5452 11.4 86.4961 10.5C87.447 9.575 88.523 8.8625 89.7241 8.3625C90.9502 7.8375 92.2514 7.575 93.6277 7.575C95.0039 7.575 96.3051 7.8375 97.5313 8.3625C98.7574 8.8625 99.8334 9.575 100.759 10.5C101.71 11.4 102.448 12.4625 102.974 13.6875C103.524 14.8875 103.8 16.1875 103.8 17.5875C103.8 18.9875 103.524 20.3 102.974 21.525C102.448 22.725 101.71 23.775 100.759 24.675C99.8334 25.575 98.7574 26.2875 97.5313 26.8125C96.3051 27.3125 95.0039 27.5625 93.6277 27.5625ZM93.6277 22.95C94.5535 22.95 95.3918 22.75 96.1425 22.35C96.9182 21.925 97.5438 21.3125 98.0192 20.5125C98.4946 19.6875 98.7324 18.7125 98.7324 17.5875C98.7324 16.4125 98.4946 15.425 98.0192 14.625C97.5438 13.825 96.9182 13.225 96.1425 12.825C95.3918 12.4 94.5535 12.1875 93.6277 12.1875C92.7519 12.1875 91.9136 12.4 91.1129 12.825C90.3371 13.225 89.7116 13.825 89.2361 14.625C88.7857 15.425 88.5605 16.4125 88.5605 17.5875C88.5605 18.7125 88.7857 19.6875 89.2361 20.5125C89.7116 21.3125 90.3371 21.925 91.1129 22.35C91.9136 22.75 92.7519 22.95 93.6277 22.95Z" fill="#6A47ED"/>
<path d="M112.715 27.5625C111.864 27.5625 111.026 27.4625 110.2 27.2625C109.374 27.0875 108.611 26.85 107.91 26.55C107.235 26.25 106.684 25.95 106.259 25.65V21.4875C106.734 21.8125 107.31 22.125 107.985 22.425C108.661 22.725 109.362 22.975 110.087 23.175C110.813 23.35 111.476 23.4375 112.077 23.4375C113.028 23.4375 113.753 23.2625 114.254 22.9125C114.779 22.5625 115.042 22.0875 115.042 21.4875C115.042 21.0125 114.829 20.6375 114.404 20.3625C113.978 20.0875 113.353 19.8125 112.527 19.5375L110.2 18.7125C108.774 18.2375 107.773 17.5625 107.197 16.6875C106.647 15.8125 106.371 14.775 106.371 13.575C106.371 12.375 106.672 11.3375 107.272 10.4625C107.898 9.5625 108.761 8.8625 109.862 8.3625C110.988 7.8375 112.252 7.575 113.653 7.575C114.829 7.575 115.918 7.75 116.919 8.1C117.945 8.425 118.72 8.825 119.246 9.3V13.5C118.67 13.1 117.945 12.7125 117.069 12.3375C116.218 11.9625 115.317 11.775 114.366 11.775C113.465 11.775 112.752 11.975 112.227 12.375C111.701 12.775 111.439 13.25 111.439 13.8C111.439 14.2 111.589 14.575 111.889 14.925C112.214 15.25 112.79 15.5375 113.616 15.7875L115.755 16.5C117.231 16.925 118.32 17.5625 119.021 18.4125C119.721 19.2375 120.071 20.2625 120.071 21.4875C120.071 22.6375 119.734 23.675 119.058 24.6C118.407 25.525 117.519 26.25 116.393 26.775C115.292 27.3 114.066 27.5625 112.715 27.5625Z" fill="#6A47ED"/>
<path d="M131.201 27.5625C130.075 27.5625 129.049 27.3125 128.123 26.8125C127.223 26.3125 126.509 25.6125 125.984 24.7125C125.458 23.7875 125.196 22.7 125.196 21.45V12.0375H122.043V9.6C123.269 9.175 124.27 8.3875 125.046 7.2375C125.846 6.0875 126.547 4.65 127.148 2.925H129.963V8.0625H135.668V12.0375H129.963V20.2125C129.963 21.0625 130.175 21.7375 130.601 22.2375C131.051 22.7125 131.702 22.95 132.552 22.95C133.303 22.95 133.954 22.8375 134.504 22.6125C135.055 22.3875 135.543 22.15 135.968 21.9V25.95C135.518 26.425 134.88 26.8125 134.054 27.1125C133.253 27.4125 132.302 27.5625 131.201 27.5625Z" fill="#6A47ED"/>
<path d="M140.079 27V0H144.846V27H140.079Z" fill="#6A47ED"/>
<path d="M149.82 36L157.327 22.35L163.557 8.0625H169L155.225 36H149.82ZM156.163 26.925L147.343 8.0625H152.898L159.729 23.3625L156.163 26.925Z" fill="#6A47ED"/>
<path d="M163.264 30L166.336 21.6H168.172L171.232 30H169.516L167.248 23.448L164.968 30H163.264ZM164.62 28.092L165.052 26.832H169.324L169.744 28.092H164.62ZM175.539 30.144C174.739 30.144 174.043 29.968 173.451 29.616C172.859 29.256 172.399 28.756 172.071 28.116C171.743 27.468 171.579 26.716 171.579 25.86C171.579 24.996 171.747 24.236 172.083 23.58C172.419 22.916 172.903 22.396 173.535 22.02C174.167 21.644 174.923 21.456 175.803 21.456C176.787 21.456 177.603 21.692 178.251 22.164C178.907 22.636 179.331 23.292 179.523 24.132H177.711C177.591 23.764 177.367 23.476 177.039 23.268C176.719 23.052 176.303 22.944 175.791 22.944C175.247 22.944 174.783 23.064 174.399 23.304C174.015 23.544 173.723 23.88 173.523 24.312C173.323 24.744 173.223 25.26 173.223 25.86C173.223 26.468 173.323 26.984 173.523 27.408C173.723 27.832 174.007 28.156 174.375 28.38C174.751 28.596 175.191 28.704 175.695 28.704C176.431 28.704 176.987 28.508 177.363 28.116C177.747 27.716 177.975 27.2 178.047 26.568H175.983V25.356H179.679V30H178.179L178.059 28.932C177.883 29.196 177.675 29.42 177.435 29.604C177.203 29.78 176.931 29.912 176.619 30C176.307 30.096 175.947 30.144 175.539 30.144ZM181.195 30V21.6H186.715V22.908H182.815V25.104H186.355V26.364H182.815V28.692H186.715V30H181.195ZM188.191 30V21.6H189.811L193.675 27.396V21.6H195.295V30H193.675L189.811 24.216V30H188.191ZM200.701 30.144C199.861 30.144 199.137 29.964 198.529 29.604C197.929 29.236 197.465 28.728 197.137 28.08C196.817 27.424 196.657 26.668 196.657 25.812C196.657 24.956 196.817 24.2 197.137 23.544C197.465 22.888 197.929 22.376 198.529 22.008C199.137 21.64 199.861 21.456 200.701 21.456C201.717 21.456 202.549 21.708 203.197 22.212C203.845 22.716 204.249 23.428 204.409 24.348H202.645C202.541 23.9 202.321 23.552 201.985 23.304C201.657 23.048 201.225 22.92 200.689 22.92C200.193 22.92 199.765 23.04 199.405 23.28C199.053 23.512 198.781 23.844 198.589 24.276C198.397 24.7 198.301 25.212 198.301 25.812C198.301 26.404 198.397 26.916 198.589 27.348C198.781 27.78 199.053 28.112 199.405 28.344C199.765 28.576 200.193 28.692 200.689 28.692C201.225 28.692 201.657 28.576 201.985 28.344C202.313 28.104 202.529 27.772 202.633 27.348H204.409C204.249 28.22 203.845 28.904 203.197 29.4C202.549 29.896 201.717 30.144 200.701 30.144ZM207.531 30V27.048L204.699 21.6H206.535L208.515 25.752H208.191L210.159 21.6H211.983L209.151 27.048V30H207.531Z" fill="#6A47ED"/>
</svg>
