<svg width="154" height="32" viewBox="0 0 154 32" fill="none" xmlns="http://www.w3.org/2000/svg">
<path d="M47.9833 14.6251V14.7362C49.3861 15.139 50.525 15.7918 51.3722 16.7223C52.2195 17.6529 52.65 18.7501 52.65 20.0001C52.65 21.764 52.0111 23.1529 50.7472 24.1946C49.4833 25.2362 47.7056 25.7501 45.4278 25.7501C44.3306 25.7501 42.9972 25.6946 41.4278 25.5696C39.8583 25.4446 38.6222 25.3751 37.7195 25.3751H34.9556L34.8445 24.5834C35.6361 24.4029 36.275 23.6946 36.275 22.5834V8.25011C36.275 7.15289 35.6361 6.44455 34.8445 6.264L34.9556 5.45844H44.9139C46.8445 5.45844 48.4139 5.91677 49.6222 6.83344C50.8306 7.764 51.4278 8.91677 51.4278 10.3057C51.4278 12.2362 50.1083 13.8612 47.9833 14.6251ZM43.6639 6.97233C42.1083 6.97233 40.8167 7.04177 39.8028 7.16677V13.9723H43.9556C45.15 13.9723 46.1083 13.639 46.8167 12.9584C47.525 12.2779 47.8722 11.4446 47.8722 10.4307C47.8722 9.43066 47.4972 8.59733 46.7611 7.94455C46.025 7.29177 44.9833 6.97233 43.6639 6.97233ZM44.3167 24.0418C45.9139 24.0418 47.1083 23.6529 47.9 22.8612C48.6917 22.0696 49.0945 21.0279 49.0945 19.7362C49.0945 18.4723 48.6222 17.4446 47.6917 16.6668C46.7611 15.889 45.5806 15.5001 44.15 15.5001H39.8028V23.4446C40.0528 23.4862 40.5111 23.5557 41.1639 23.6807C41.8167 23.8057 42.3722 23.889 42.8445 23.9446C43.3167 24.014 43.8028 24.0418 44.3167 24.0418Z" fill="white"/>
<path d="M62.5945 25.889C60.2611 25.889 58.3722 25.1112 56.9139 23.5557C55.4556 22.0001 54.7195 20.0696 54.7195 17.7779C54.7195 15.514 55.4417 13.6529 56.8722 12.1807C58.3028 10.7223 60.1361 9.98622 62.3861 9.98622C64.6639 9.98622 66.525 10.7501 67.9695 12.2779C69.4139 13.8057 70.1361 15.7362 70.1361 18.0696C70.1361 20.3612 69.4417 22.2362 68.0667 23.6946C66.6778 25.1529 64.8583 25.889 62.5945 25.889ZM63.2472 24.2918C64.4278 24.2918 65.3722 23.8196 66.0806 22.8612C66.7889 21.9168 67.15 20.7223 67.15 19.2918C67.15 18.1668 66.9417 17.0279 66.525 15.8751C66.0945 14.7223 65.4556 13.7223 64.6083 12.8751C63.7611 12.0279 62.8028 11.6112 61.7333 11.6112C60.525 11.6112 59.5528 12.0696 58.8167 13.0001C58.0806 13.9307 57.7056 15.1251 57.7056 16.5834C57.7056 17.7084 57.9139 18.8473 58.3445 20.0001C58.775 21.1529 59.4139 22.1668 60.2889 23.014C61.1639 23.8612 62.15 24.2918 63.2472 24.2918Z" fill="white"/>
<path d="M79.8445 25.889C77.5111 25.889 75.6222 25.1112 74.1639 23.5557C72.7056 22.0001 71.9695 20.0696 71.9695 17.7779C71.9695 15.514 72.6917 13.6529 74.1222 12.1807C75.5528 10.7223 77.3861 9.98622 79.6361 9.98622C81.9139 9.98622 83.775 10.7501 85.2195 12.2779C86.6639 13.8057 87.3861 15.7362 87.3861 18.0696C87.3861 20.3612 86.6917 22.2362 85.3167 23.6946C83.9278 25.1529 82.1083 25.889 79.8445 25.889ZM80.4972 24.2918C81.6778 24.2918 82.6222 23.8196 83.3306 22.8612C84.0389 21.9168 84.4 20.7223 84.4 19.2918C84.4 18.1668 84.1917 17.0279 83.775 15.8751C83.3445 14.7223 82.7056 13.7223 81.8583 12.8751C81.0111 12.0279 80.0528 11.6112 78.9833 11.6112C77.775 11.6112 76.8028 12.0696 76.0667 13.0001C75.3306 13.9307 74.9556 15.1251 74.9556 16.5834C74.9556 17.7084 75.1639 18.8473 75.5945 20.0001C76.025 21.1529 76.6639 22.1668 77.5389 23.014C78.4139 23.8612 79.4 24.2918 80.4972 24.2918Z" fill="white"/>
<path d="M96.7195 25.889C95.9556 25.889 95.025 25.7223 93.9278 25.4029C92.8167 25.0834 92.0667 24.9168 91.6917 24.9168C91.2333 24.9168 90.7611 25.1112 90.5806 25.264L90.4417 25.3751H90.1778L88.9 20.3057L89.6361 20.0557C91.4972 22.9862 93.8306 24.4584 96.6361 24.4584C97.5111 24.4584 98.2472 24.2501 98.8722 23.8334C99.4833 23.4168 99.7889 22.8196 99.7889 22.0418C99.7889 21.2084 99.3861 20.5557 98.5806 20.0834C97.775 19.6112 96.6778 19.2084 95.275 18.8612C91.4833 17.9307 89.5806 16.4307 89.5806 14.3334C89.5806 13.0834 90.1222 12.0418 91.1917 11.2223C92.2611 10.4029 93.5945 9.98622 95.1917 9.98622C95.9833 9.98622 96.8583 10.1529 97.7889 10.4723C98.7195 10.7918 99.3583 10.9584 99.6778 10.9584C100.15 10.9584 100.525 10.8196 100.817 10.5279H101.136L102.094 14.9029L101.247 15.1946C99.8028 12.6529 97.9 11.389 95.5528 11.3751C93.8167 11.3751 92.7333 12.2223 92.7333 13.3751C92.7333 14.139 93.1083 14.7223 93.8722 15.1251C94.6361 15.5279 95.7195 15.9168 97.15 16.2779C97.8306 16.4446 98.3861 16.5973 98.8028 16.7223C99.2195 16.8612 99.7195 17.0557 100.303 17.3196C100.872 17.5834 101.331 17.8751 101.65 18.1668C102.289 18.764 102.844 19.7362 102.844 20.9029C102.844 22.4446 102.275 23.6529 101.122 24.5418C99.9695 25.4446 98.5111 25.889 96.7195 25.889Z" fill="white"/>
<path d="M110.039 25.889C107.581 25.889 106.233 24.7779 106.233 21.9584V12.0973H103.761V11.0696C105.053 10.6668 106.039 10.1112 106.733 9.37511C107.428 8.639 107.969 7.62511 108.372 6.31955H109.358V10.5279H113.261V12.0973H109.358V22.0418C109.358 23.5001 109.942 24.2362 111.122 24.2362C111.706 24.2362 112.289 24.1251 112.886 23.9029L113.261 25.2362C112.275 25.6668 111.192 25.889 110.039 25.889Z" fill="white"/>
<path d="M120.483 25.3751H114.761L114.65 24.5834C115.594 24.3473 116.067 23.6946 116.081 22.6112V8.25011C116.081 7.15289 115.442 6.44455 114.65 6.29177L114.761 5.45844C116.386 5.22233 117.914 4.59733 119.317 3.55566L119.636 3.66678C119.331 4.764 119.178 6.43066 119.178 8.65289V22.6112C119.178 23.7084 119.65 24.3751 120.594 24.5834L120.483 25.3751Z" fill="white"/>
<path d="M133.872 9.98622C134.539 9.98622 135.067 10.2084 135.442 10.6668C135.817 11.1251 136.011 11.6807 136.011 12.3473C136.011 13.7084 135.358 15.8473 134.053 18.7779C133.275 20.639 132.608 22.139 132.039 23.2779C131.469 24.4307 130.733 25.6807 129.831 27.0557C128.872 28.6807 127.983 29.8751 127.192 30.6112C126.4 31.3473 125.539 31.7223 124.636 31.7223C124.025 31.7223 123.497 31.5418 123.067 31.1668C122.636 30.7918 122.414 30.3334 122.414 29.7779C122.414 28.7223 123.164 28.014 124.15 28.014C124.581 28.014 124.997 28.1807 125.386 28.514C125.775 28.8473 126.039 29.014 126.192 29.014C126.511 29.014 126.858 28.8057 127.233 28.4029C127.608 28.0001 128.081 27.2779 128.664 26.2501L129.206 25.3751H128.469L124.067 14.6807C123.581 13.5279 122.692 12.8751 121.414 12.7223L121.525 11.9168C122.094 11.8057 122.719 11.5834 123.414 11.2501C124.108 10.9168 124.678 10.5001 125.108 9.98622H125.483L130.664 22.4168H130.831V22.4446C131.456 21.1251 132.053 19.7223 132.594 18.264C133.164 17.0279 133.525 16.1668 133.678 15.6668C133.831 15.1807 133.886 14.7362 133.872 14.3334C133.942 13.264 131.942 13.0696 132.025 11.6112C132.025 10.6251 132.817 9.98622 133.872 9.98622Z" fill="white"/>
<path d="M13.8665 22.7463C11.97 22.7463 10.1149 22.0937 8.64276 20.9085L2.0232 15.5794C-0.657156 13.4985 -0.656778 9.23462 2.0232 7.1541L8.64276 1.82497C11.579 -0.608384 16.1541 -0.608259 19.0903 1.82497L25.7098 7.1541C27.4014 8.51596 28.1168 10.7428 27.5325 12.8273C27.3459 13.4926 26.6513 13.8821 25.9802 13.697C25.3094 13.512 24.9169 12.8226 25.1035 12.1572C25.4189 11.032 25.0333 9.83049 24.121 9.09607L17.5015 3.76687C15.3952 2.07125 12.3378 2.07125 10.2316 3.76687L3.612 9.09607C2.16685 10.218 2.16704 12.5157 3.612 13.6375L10.2316 18.9666C12.3341 20.6593 15.3848 20.6623 17.4907 18.9752L18.5964 18.0423C19.1267 17.5949 19.9223 17.6584 20.3734 18.1846C20.8244 18.7107 20.7602 19.4999 20.2299 19.9473L19.1126 20.89C19.1052 20.8963 19.0978 20.9024 19.0903 20.9085C17.6182 22.0937 15.763 22.7463 13.8665 22.7463ZM19.0903 30.1622L25.7098 24.8331C28.3902 22.7522 28.3898 18.4883 25.7098 16.4078L19.0903 11.0787C16.1541 8.64533 11.5789 8.64545 8.64276 11.0787L7.70953 11.838C6.45845 12.9412 7.97438 14.7726 9.30829 13.7718L10.2336 13.019C12.3399 11.3251 15.396 11.3256 17.5015 13.0206L24.121 18.3498C25.5662 19.4717 25.566 21.7694 24.121 22.8912L17.5015 28.2203C15.3952 29.9159 12.3378 29.9159 10.2316 28.2203L3.612 22.8912C2.77622 22.2183 2.37649 21.1461 2.56879 20.0931C2.6929 19.4135 2.23813 18.7628 1.55312 18.6397C0.868489 18.5168 0.212156 18.9677 0.0879865 19.6472C-0.26826 21.5981 0.473227 23.5852 2.0232 24.8331L8.64276 30.1622C10.1148 31.3473 11.97 32 13.8665 32C15.763 32 17.6182 31.3474 19.0903 30.1622Z" fill="white"/>
<path d="M142.352 20L145.513 12H147.401L150.55 20H148.784L146.451 13.76L144.105 20H142.352ZM143.747 18.1829L144.192 16.9829H148.587L149.019 18.1829H143.747Z" fill="#FEBC5F"/>
<path d="M151.685 20V12H153.352V20H151.685Z" fill="#FEBC5F"/>
</svg>
