<svg width="28" height="32" viewBox="0 0 28 32" fill="none" xmlns="http://www.w3.org/2000/svg">
<path d="M13.8665 22.7463C11.97 22.7463 10.1149 22.0937 8.64276 20.9085L2.0232 15.5794C-0.657156 13.4985 -0.656778 9.23462 2.0232 7.1541L8.64276 1.82497C11.579 -0.608384 16.1541 -0.608259 19.0903 1.82497L25.7098 7.1541C27.4014 8.51596 28.1168 10.7428 27.5325 12.8273C27.3459 13.4926 26.6513 13.8821 25.9802 13.697C25.3094 13.512 24.9169 12.8226 25.1035 12.1572C25.4189 11.032 25.0333 9.83049 24.121 9.09607L17.5015 3.76687C15.3952 2.07125 12.3378 2.07125 10.2316 3.76687L3.612 9.09607C2.16685 10.218 2.16704 12.5157 3.612 13.6375L10.2316 18.9666C12.3341 20.6593 15.3848 20.6623 17.4907 18.9752L18.5964 18.0423C19.1267 17.5949 19.9223 17.6584 20.3734 18.1846C20.8244 18.7107 20.7602 19.4999 20.2299 19.9473L19.1126 20.89C19.1052 20.8963 19.0978 20.9024 19.0903 20.9085C17.6182 22.0937 15.763 22.7463 13.8665 22.7463ZM19.0903 30.1622L25.7098 24.8331C28.3902 22.7522 28.3898 18.4883 25.7098 16.4078L19.0903 11.0787C16.1541 8.64533 11.5789 8.64545 8.64276 11.0787L7.70953 11.838C6.45845 12.9412 7.97438 14.7726 9.30829 13.7718L10.2336 13.019C12.3399 11.3251 15.396 11.3256 17.5015 13.0206L24.121 18.3498C25.5662 19.4717 25.566 21.7694 24.121 22.8912L17.5015 28.2203C15.3952 29.9159 12.3378 29.9159 10.2316 28.2203L3.612 22.8912C2.77622 22.2183 2.37649 21.1461 2.56879 20.0931C2.6929 19.4135 2.23813 18.7628 1.55312 18.6397C0.868489 18.5168 0.212156 18.9677 0.0879865 19.6472C-0.26826 21.5981 0.473227 23.5852 2.0232 24.8331L8.64276 30.1622C10.1148 31.3473 11.97 32 13.8665 32C15.763 32 17.6182 31.3474 19.0903 30.1622Z" fill="#124AFF"/>
</svg>
