<svg width="46" height="46" viewBox="0 0 46 46" fill="none" xmlns="http://www.w3.org/2000/svg">
<g clip-path="url(#clip0_365_53)">
<path d="M12.8901 6.45605C18.7618 6.45605 23.0004 11.3036 23.0002 18.4811C22.9626 28.9097 15.1229 36.283 3.81308 37.6989C2.76379 37.8303 2.3592 36.3768 3.32546 35.9471C7.66514 34.0174 9.85691 31.5688 10.14 29.1451C10.3515 27.3343 9.36716 25.7481 8.13112 25.4511C4.92674 24.6811 2.77978 20.6906 2.77978 16.5663C2.77978 10.9826 7.30631 6.45605 12.8901 6.45605Z" fill="#124AFF"/>
<path d="M34.9487 6.45605C40.8204 6.45605 45.059 11.3036 45.0588 18.4811C45.0212 28.9097 37.1815 36.283 25.8717 37.6989C24.8224 37.8303 24.4178 36.3768 25.3841 35.9471C29.7237 34.0174 31.9155 31.5688 32.1986 29.1451C32.4101 27.3343 31.4258 25.7481 30.1897 25.4511C26.9853 24.6811 24.8384 20.6906 24.8384 16.5663C24.8384 10.9826 29.3649 6.45605 34.9487 6.45605Z" fill="#124AFF"/>
</g>
<defs>
<clipPath id="clip0_365_53">
<rect width="44.1176" height="44.1176" fill="white" transform="translate(0.941406 0.941406)"/>
</clipPath>
</defs>
</svg>
