<?xml version="1.0" encoding="utf-8"?>
<!-- Generator: Adobe Illustrator 24.1.2, SVG Export Plug-In . SVG Version: 6.00 Build 0)  -->
<svg version="1.1" id="Layer_2" xmlns="http://www.w3.org/2000/svg" xmlns:xlink="http://www.w3.org/1999/xlink" x="0px" y="0px"
	 viewBox="0 0 323.03 66.2" style="enable-background:new 0 0 323.03 66.2;" xml:space="preserve">
<path d="M202.55,18.7c-16.57-6.88-35.57-12.63-53.08-15.86c-18.54-3.41-51.37-6.76-63.08,9.17c-0.91,1.23-1.72,2.45-2.44,3.65
	c-10.06-3.77-20.54-6.19-29.89-6.47C25.11,8.33,8.93,23.49,4,29.04v-8.85H0v16h16v-4H6.6c3.87-4.43,19.39-19.81,47.34-19
	c8.69,0.25,18.56,2.53,28.1,6.06c-4.85,10.39-3.13,19.25-0.45,25.27c5.73,12.84,19,20.57,29.15,21.56c0.78,0.08,1.55,0.12,2.3,0.12
	c5.48,0,9.9-2.04,12.59-5.86c2.88-4.07,2.99-9.03,0.34-14.35c-5.31-10.61-20.83-21.65-38.24-28.84c0.57-0.91,1.19-1.84,1.88-2.78
	c7.72-10.49,28.72-13.19,59.13-7.59c16.75,3.08,34.87,8.51,50.82,15.01c-0.05,0.06-0.1,0.12-0.15,0.18
	c-8.14,10.62-6.52,19.43-3.72,24.95c5.1,10.07,18.67,17.48,31.47,17.19c8.51-0.18,14.79-3.77,17.66-10.09
	c3-6.59-3.71-14.93-19.39-24.13c-5.51-3.23-11.82-6.39-18.62-9.37c13.51-8.75,40.81-0.96,62.53,7.76
	c26.92,10.81,51.38,25.48,51.63,25.62l2.06-3.42C319.13,48.13,230.64-4.67,202.55,18.7z M122.39,47.78
	c1.98,3.97,1.98,7.42-0.02,10.26c-2.97,4.2-8.32,4.35-11.25,4.06c-8.77-0.85-20.82-7.88-25.88-19.21
	c-2.33-5.25-3.81-12.99,0.55-22.18C102.48,27.53,117.49,37.97,122.39,47.78z M223.41,33.34c13.06,7.66,19.7,14.77,17.77,19.02
	c-2.97,6.54-10.11,7.66-14.11,7.75c-9.82,0.21-22.92-5.35-27.81-15c-3.27-6.44-2.12-13.6,3.33-20.7c0.26-0.35,0.54-0.68,0.83-1.01
	C210.75,26.54,217.54,29.9,223.41,33.34z"/>
</svg>
