<?xml version="1.0" standalone="no"?>
<!DOCTYPE svg PUBLIC "-//W3C//DTD SVG 20010904//EN"
 "http://www.w3.org/TR/2001/REC-SVG-20010904/DTD/svg10.dtd">
<svg version="1.0" xmlns="http://www.w3.org/2000/svg"
 width="450.000000pt" height="412.000000pt" viewBox="0 0 450.000000 412.000000"
 preserveAspectRatio="xMidYMid meet">

<g transform="translate(0.000000,412.000000) scale(0.100000,-0.100000)"
 stroke="none">
<path d="M3873 4110 c-67 -27 -429 -294 -653 -480 -566 -472 -1156 -1079
-1633 -1681 -72 -92 -136 -168 -140 -168 -4 -1 -225 151 -490 336 -265 185
-491 342 -502 350 -11 7 -35 13 -54 13 -32 0 -51 -16 -213 -177 -220 -220
-216 -204 -101 -362 533 -735 1090 -1543 1253 -1818 40 -69 63 -97 88 -109 38
-18 82 -12 105 14 8 9 66 103 128 207 505 853 1145 1798 1673 2470 326 415
568 690 897 1017 242 241 259 260 259 294 0 46 -14 70 -50 89 -24 12 -76 15
-287 14 -142 0 -268 -4 -280 -9z"/>
</g>
</svg>
