<?xml version="1.0" encoding="utf-8"?>
<!-- Generator: Adobe Illustrator 24.1.2, SVG Export Plug-In . SVG Version: 6.00 Build 0)  -->
<svg version="1.1" id="Layer_2" xmlns="http://www.w3.org/2000/svg" xmlns:xlink="http://www.w3.org/1999/xlink" x="0px" y="0px"
	 viewBox="0 0 474.06 473.06" style="enable-background:new 0 0 474.06 473.06;" xml:space="preserve">
<path d="M201,402C90.17,402,0,311.83,0,201S90.17,0,201,0s201,90.17,201,201S311.83,402,201,402z M201,55.34
	c-80.31,0-145.66,65.34-145.66,145.66S120.69,346.66,201,346.66S346.66,281.31,346.66,201S281.31,55.34,201,55.34z"/>
<path d="M464.92,423.75l-75.67-75.67c-1.23-1.23-2.54-2.31-3.91-3.27c-11.46,15.18-25.03,28.69-40.27,40.07
	c0.98,1.42,2.09,2.77,3.35,4.03l75.67,75.67c11.28,11.28,29.56,11.28,40.83,0v0C476.19,453.31,476.19,435.02,464.92,423.75z"/>
</svg>
