<?xml version="1.0" standalone="no"?>
<!DOCTYPE svg PUBLIC "-//W3C//DTD SVG 20010904//EN"
 "http://www.w3.org/TR/2001/REC-SVG-20010904/DTD/svg10.dtd">
<svg version="1.0" xmlns="http://www.w3.org/2000/svg"
 width="512.000000pt" height="512.000000pt" viewBox="0 0 512.000000 512.000000"
 preserveAspectRatio="xMidYMid meet">

<g transform="translate(0.000000,512.000000) scale(0.100000,-0.100000)"
 stroke="none">
<path d="M940 4984 c-43 -19 -68 -41 -87 -78 -19 -36 -20 -114 -3 -147 30 -56
243 -338 268 -355 42 -28 120 -30 169 -5 74 37 112 138 80 211 -8 19 -66 105
-129 190 -93 127 -121 159 -158 178 -51 26 -91 27 -140 6z"/>
<path d="M4040 4978 c-37 -19 -66 -51 -167 -191 -76 -105 -125 -181 -129 -203
-21 -114 65 -212 180 -202 28 2 63 12 78 22 25 17 238 299 268 355 17 33 16
111 -3 147 -20 38 -44 60 -90 79 -50 21 -85 19 -137 -7z"/>
<path d="M2445 4717 c-69 -23 -118 -54 -168 -104 -40 -41 -80 -114 -251 -459
l-203 -409 -374 -54 c-497 -71 -532 -77 -590 -107 -146 -73 -228 -219 -216
-385 10 -146 14 -151 392 -524 l336 -330 -76 -437 c-41 -240 -75 -454 -75
-475 0 -60 28 -153 61 -205 89 -138 263 -212 419 -179 36 8 188 82 449 219
217 114 400 208 406 210 7 1 191 -92 411 -207 268 -141 417 -214 454 -222 238
-51 478 141 480 384 0 21 -34 235 -75 475 l-76 437 336 330 c381 375 383 378
392 528 4 67 1 94 -17 146 -53 156 -160 246 -332 275 -46 8 -251 38 -457 68
l-374 53 -203 410 c-179 360 -210 415 -255 461 -75 76 -149 107 -264 111 -56
2 -105 -2 -130 -10z m370 -774 c123 -247 234 -456 250 -473 16 -17 45 -35 65
-41 19 -5 238 -39 485 -74 248 -36 462 -68 478 -71 32 -7 51 -37 43 -67 -3
-12 -163 -175 -355 -362 -193 -187 -358 -354 -366 -372 -8 -17 -15 -50 -15
-74 0 -23 36 -253 80 -511 62 -359 78 -473 70 -488 -25 -46 -42 -39 -421 161
-513 271 -536 281 -582 276 -24 -3 -206 -93 -479 -237 -459 -241 -473 -246
-498 -200 -8 15 8 129 70 488 44 258 80 488 80 513 0 24 -8 59 -17 76 -10 18
-151 161 -313 318 -447 433 -430 414 -397 458 14 20 -5 17 547 97 228 33 428
63 443 66 68 14 89 48 308 493 115 234 217 436 225 449 12 18 23 22 47 20 32
-3 35 -9 252 -445z"/>
<path d="M281 2185 c-205 -67 -239 -87 -267 -152 -45 -104 38 -232 150 -233
44 0 372 102 429 133 92 51 111 179 39 261 -24 26 -91 56 -127 55 -16 -1 -117
-29 -224 -64z"/>
<path d="M4545 2231 c-22 -10 -48 -27 -57 -37 -24 -27 -48 -88 -48 -121 0 -48
38 -111 83 -137 58 -32 387 -136 433 -136 55 0 118 41 143 93 35 73 25 136
-32 195 -27 28 -62 43 -232 97 -111 36 -212 65 -225 65 -14 0 -43 -9 -65 -19z"/>
<path d="M2506 800 c-16 -5 -42 -22 -59 -37 -53 -50 -57 -73 -57 -300 0 -186
2 -211 20 -247 56 -115 218 -126 290 -19 24 36 25 41 28 247 2 127 -1 225 -7
246 -18 62 -101 122 -165 119 -12 0 -34 -5 -50 -9z"/>
</g>
</svg>
