<?xml version="1.0" encoding="utf-8"?>
<!-- Generator: Adobe Illustrator 24.1.2, SVG Export Plug-In . SVG Version: 6.00 Build 0)  -->
<svg version="1.1" id="Layer_1" xmlns="http://www.w3.org/2000/svg" xmlns:xlink="http://www.w3.org/1999/xlink" x="0px" y="0px"
	 viewBox="0 0 198.7 20.5" style="enable-background:new 0 0 198.7 20.5;" xml:space="preserve">
<polygon points="198.7,2.83 183.85,17.67 181.02,20.5 178.19,17.67 166.17,5.66 154.15,17.67 151.32,20.5 136.48,5.66 121.63,20.5 
	118.8,17.67 106.78,5.65 94.76,17.68 91.93,20.5 89.1,17.68 77.08,5.66 65.06,17.68 62.23,20.5 59.4,17.68 47.38,5.66 35.36,17.68 
	32.53,20.5 29.7,17.68 17.68,5.66 2.83,20.5 0,17.68 17.68,0 20.51,2.83 32.53,14.85 47.38,0 62.23,14.85 74.25,2.83 77.08,0 
	91.93,14.85 103.95,2.83 106.78,0 109.6,2.83 121.63,14.85 133.65,2.83 136.47,0 139.3,2.83 151.32,14.85 163.34,2.83 166.17,0 
	169,2.83 181.02,14.84 195.87,0 "/>
</svg>
