<?xml version="1.0" encoding="utf-8"?>
<!-- Generator: Adobe Illustrator 24.1.2, SVG Export Plug-In . SVG Version: 6.00 Build 0)  -->
<svg version="1.1" xmlns="http://www.w3.org/2000/svg" xmlns:xlink="http://www.w3.org/1999/xlink" x="0px" y="0px"
	 viewBox="0 0 125.3 21.3" style="enable-background:new 0 0 125.3 21.3;" xml:space="preserve">
<style type="text/css">
	.st0{fill:#FFFFFF;}
</style>
<g id="Layer_2">
	<path class="st0" d="M123.8,19.8c-2,2-5.1,2-7.1,0l-2.1-2.1l-2.1,2.1c-2,2-5.1,2-7.1,0s-2-5.1,0-7.1l2.1-2.1l-2.1-2.1
		c-2-2-2-5.1,0-7.1c1-1,2.3-1.5,3.5-1.5c1.3,0,2.6,0.5,3.5,1.5l2.1,2.1l2.1-2.1c2-2,5.1-2,7.1,0c1,1,1.5,2.3,1.5,3.5
		c0,1.3-0.5,2.6-1.5,3.5l-2.1,2.1l2.1,2.1C125.8,14.7,125.8,17.9,123.8,19.8z"/>
	<path class="st0" d="M97.8,19.8c-2,2-5.1,2-7.1,0l-2.1-2.1l-2.1,2.1c-2,2-5.1,2-7.1,0s-2-5.1,0-7.1l2.1-2.1l-2.1-2.1
		c-2-2-2-5.1,0-7.1c1-1,2.3-1.5,3.5-1.5c1.3,0,2.6,0.5,3.5,1.5l2.1,2.1l2.1-2.1c2-2,5.1-2,7.1,0c1,1,1.5,2.3,1.5,3.5
		c0,1.3-0.5,2.6-1.5,3.5l-2.1,2.1l2.1,2.1C99.8,14.7,99.8,17.9,97.8,19.8z"/>
	<path class="st0" d="M71.8,19.8c-2,2-5.1,2-7.1,0l-2.1-2.1l-2.1,2.1c-2,2-5.1,2-7.1,0s-2-5.1,0-7.1l2.1-2.1l-2.1-2.1
		c-2-2-2-5.1,0-7.1c1-1,2.3-1.5,3.5-1.5c1.3,0,2.6,0.5,3.5,1.5l2.1,2.1l2.1-2.1c2-2,5.1-2,7.1,0c1,1,1.5,2.3,1.5,3.5
		c0,1.3-0.5,2.6-1.5,3.5l-2.1,2.1l2.1,2.1C73.8,14.7,73.8,17.9,71.8,19.8z"/>
	<path class="st0" d="M45.8,19.8c-2,2-5.1,2-7.1,0l-2.1-2.1l-2.1,2.1c-2,2-5.1,2-7.1,0s-2-5.1,0-7.1l2.1-2.1l-2.1-2.1
		c-2-2-2-5.1,0-7.1c1-1,2.3-1.5,3.5-1.5c1.3,0,2.6,0.5,3.5,1.5l2.1,2.1l2.1-2.1c2-2,5.1-2,7.1,0c1,1,1.5,2.3,1.5,3.5
		c0,1.3-0.5,2.6-1.5,3.5l-2.1,2.1l2.1,2.1C47.8,14.7,47.8,17.9,45.8,19.8z"/>
	<path class="st0" d="M19.8,19.8c-2,2-5.1,2-7.1,0l-2.1-2.1l-2.1,2.1c-2,2-5.1,2-7.1,0s-2-5.1,0-7.1l2.1-2.1L1.5,8.5
		c-2-2-2-5.1,0-7.1C2.4,0.5,3.7,0,5,0c1.3,0,2.6,0.5,3.5,1.5l2.1,2.1l2.1-2.1c2-2,5.1-2,7.1,0c1,1,1.5,2.3,1.5,3.5
		c0,1.3-0.5,2.6-1.5,3.5l-2.1,2.1l2.1,2.1C21.8,14.7,21.8,17.9,19.8,19.8z"/>
</g>
<g id="Layer_1">
	<path d="M121.7,3.6c0.8,0.8,0.8,2.1,0,2.8l-4.2,4.2l4.2,4.2c0.8,0.8,0.8,2.1,0,2.8c-0.8,0.8-2,0.8-2.8,0l-4.2-4.2l-4.2,4.2
		c-0.8,0.8-2.1,0.8-2.8,0c-0.4-0.4-0.6-0.9-0.6-1.4c0-0.5,0.2-1,0.6-1.4l4.2-4.2l-4.2-4.2c-0.8-0.8-0.8-2.1,0-2.8
		C108,3.2,108.5,3,109,3c0.5,0,1,0.2,1.4,0.6l4.2,4.2l4.2-4.2C119.7,2.8,120.9,2.8,121.7,3.6z"/>
	<path d="M95.7,3.6c0.8,0.8,0.8,2.1,0,2.8l-4.2,4.2l4.2,4.2c0.8,0.8,0.8,2.1,0,2.8c-0.8,0.8-2,0.8-2.8,0l-4.2-4.2l-4.2,4.2
		c-0.8,0.8-2.1,0.8-2.8,0c-0.4-0.4-0.6-0.9-0.6-1.4c0-0.5,0.2-1,0.6-1.4l4.2-4.2l-4.2-4.2c-0.8-0.8-0.8-2.1,0-2.8
		C82,3.2,82.5,3,83,3c0.5,0,1,0.2,1.4,0.6l4.2,4.2l4.2-4.2C93.7,2.8,94.9,2.8,95.7,3.6z"/>
	<path d="M69.7,3.6c0.8,0.8,0.8,2.1,0,2.8l-4.2,4.2l4.2,4.2c0.8,0.8,0.8,2.1,0,2.8c-0.8,0.8-2,0.8-2.8,0l-4.2-4.2l-4.2,4.2
		c-0.8,0.8-2,0.8-2.8,0c-0.4-0.4-0.6-0.9-0.6-1.4c0-0.5,0.2-1,0.6-1.4l4.2-4.2l-4.2-4.2c-0.8-0.8-0.8-2.1,0-2.8C56,3.2,56.5,3,57,3
		c0.5,0,1,0.2,1.4,0.6l4.2,4.2l4.2-4.2C67.7,2.8,68.9,2.8,69.7,3.6z"/>
	<path d="M43.7,3.6c0.8,0.8,0.8,2.1,0,2.8l-4.2,4.2l4.2,4.2c0.8,0.8,0.8,2.1,0,2.8c-0.8,0.8-2.1,0.8-2.8,0l-4.2-4.2l-4.2,4.2
		c-0.8,0.8-2.1,0.8-2.8,0c-0.4-0.4-0.6-0.9-0.6-1.4c0-0.5,0.2-1,0.6-1.4l4.2-4.2l-4.2-4.2c-0.8-0.8-0.8-2.1,0-2.8
		C30,3.2,30.5,3,31,3c0.5,0,1,0.2,1.4,0.6l4.2,4.2l4.2-4.2C41.7,2.8,42.9,2.8,43.7,3.6z"/>
	<path d="M17.7,3.6c0.8,0.8,0.8,2.1,0,2.8l-4.2,4.2l4.2,4.2c0.8,0.8,0.8,2.1,0,2.8c-0.8,0.8-2.1,0.8-2.8,0l-4.2-4.2l-4.2,4.2
		c-0.8,0.8-2.1,0.8-2.8,0C3.2,17.3,3,16.8,3,16.3c0-0.5,0.2-1,0.6-1.4l4.2-4.2L3.6,6.4c-0.8-0.8-0.8-2.1,0-2.8C4,3.2,4.5,3,5,3
		c0.5,0,1,0.2,1.4,0.6l4.2,4.2l4.2-4.2C15.7,2.8,16.9,2.8,17.7,3.6z"/>
</g>
</svg>
