<?xml version="1.0" standalone="no"?>
<!DOCTYPE svg PUBLIC "-//W3C//DTD SVG 20010904//EN"
 "http://www.w3.org/TR/2001/REC-SVG-20010904/DTD/svg10.dtd">
<svg version="1.0" xmlns="http://www.w3.org/2000/svg"
 width="512.000000pt" height="512.000000pt" viewBox="0 0 512.000000 512.000000"
 preserveAspectRatio="xMidYMid meet">

<g transform="translate(0.000000,512.000000) scale(0.100000,-0.100000)"
stroke="none">
<path d="M39 4197 c-9 -6 -21 -22 -27 -34 -9 -16 -12 -414 -12 -1577 l0 -1555
24 -28 24 -28 799 -3 c834 -3 977 2 1133 38 311 74 532 236 655 480 36 71 72
177 81 237 3 27 9 52 12 57 3 5 19 -36 37 -91 175 -535 618 -805 1278 -780
181 7 295 26 437 73 340 114 533 323 595 644 8 41 15 106 15 143 0 59 -3 71
-25 92 l-24 25 -301 0 -301 0 -24 -25 c-14 -13 -25 -34 -25 -46 0 -86 -76
-182 -173 -218 -89 -33 -239 -47 -334 -33 -190 30 -307 131 -346 300 l-14 62
758 0 c542 0 765 3 783 11 44 20 51 58 50 254 -1 270 -38 451 -134 651 -140
292 -370 473 -695 549 -221 51 -524 42 -741 -21 -426 -123 -718 -467 -818
-963 l-23 -115 -18 55 c-48 148 -159 302 -262 364 l-50 29 71 71 c78 77 130
165 162 275 16 54 19 96 18 240 -1 160 -3 183 -28 265 -92 302 -296 494 -621
582 l-100 28 -910 2 c-713 2 -913 0 -926 -10z m1716 -739 c44 -47 58 -101 57
-216 -1 -150 -32 -224 -105 -251 -18 -7 -171 -11 -433 -11 l-404 0 0 260 0
261 426 -3 426 -3 33 -37z m2395 -679 c30 -15 73 -44 94 -65 36 -36 85 -127
99 -181 l5 -23 -404 0 -404 0 14 35 c36 85 118 175 198 216 79 40 119 48 233
46 95 -2 118 -6 165 -28z m-2409 -451 c56 -16 114 -70 146 -136 26 -53 28 -65
28 -182 0 -80 -5 -139 -14 -163 -17 -50 -64 -103 -115 -130 -40 -22 -50 -22
-478 -25 l-438 -3 0 326 0 325 416 0 c287 0 429 -4 455 -12z"/>
<path d="M3245 4055 l-25 -24 0 -224 c0 -221 0 -224 23 -245 l23 -22 667 0
c651 0 667 0 687 20 29 29 31 49 28 269 l-3 203 -28 24 -28 24 -660 0 -660 0
-24 -25z"/>
</g>
</svg>
