<?xml version="1.0" encoding="utf-8"?>
<!-- Generator: Adobe Illustrator 24.1.2, SVG Export Plug-In . SVG Version: 6.00 Build 0)  -->
<svg version="1.1" id="Layer_1" xmlns="http://www.w3.org/2000/svg" xmlns:xlink="http://www.w3.org/1999/xlink" x="0px" y="0px"
	 viewBox="0 0 307.28 307.2" style="enable-background:new 0 0 307.28 307.2;" xml:space="preserve">
<g>
	<path d="M216.55,293.66c-52.28,24.14-115.84,14.97-157.03-19.2c20.87-46.84,67.22-88.41,122.53-102.94
		C197.61,210.99,209.19,251.61,216.55,293.66z"/>
	<path d="M152.57,109.6c-48.68,17.56-98.76,23.7-150.24,19.89C8.02,84.2,39.27,37.3,88.91,14.64
		C100.17,24.56,144.58,90.7,152.57,109.6z"/>
	<path d="M0.05,147.5c55.33,4.01,108.71-2.64,161.02-21.93c4.61,9.68,9.18,19.28,13.9,29.19c-28.57,8.1-53.76,21.46-76.13,40.05
		c-22.38,18.6-40.32,40.81-53.81,67.4c-11.39-11.26-20.4-23.81-27.63-37.65C4.88,200.6-0.61,175.05,0.05,147.5z"/>
	<path d="M169.75,102.59C151.81,68.82,131,37.44,107.17,7.39c24.36-7.97,48.65-9.28,73.25-4.94c31.69,5.59,58.76,20.16,81.87,42.93
		C234.26,69.06,203.74,88.22,169.75,102.59z"/>
	<path d="M233.15,285.24c-7.42-40.65-18.48-79.54-33.44-117.73c36.42-5.98,71.08-1.83,105.27,11.93
		C296.34,224.84,272.45,259.69,233.15,285.24z"/>
	<path d="M307.23,160.48c-37.28-13.92-75.21-17.19-114.24-9.85c-4.87-10.59-9.7-21.08-14.24-30.97
		c16.74-9.13,33.77-17.47,49.81-27.43c15.96-9.91,30.91-21.44,46.7-32.54C297.78,88.83,308.12,122.58,307.23,160.48z"/>
</g>
</svg>
