<?xml version="1.0" encoding="utf-8"?>
<!-- Generator: Adobe Illustrator 24.1.2, SVG Export Plug-In . SVG Version: 6.00 Build 0)  -->
<svg version="1.1" id="Layer_1" xmlns="http://www.w3.org/2000/svg" xmlns:xlink="http://www.w3.org/1999/xlink" x="0px" y="0px"
	 viewBox="0 0 422.31 396.72" style="enable-background:new 0 0 422.31 396.72;" xml:space="preserve">
<g>
	<path d="M0,78.34c2.02-1.97,3.79-4.34,6.11-5.86C41.28,49.45,76.52,26.52,111.76,3.58c7.86-5.12,13.39-4.75,20.57,1.24
		c25.23,21.04,50.47,42.08,75.71,63.11c0.94,0.79,1.91,1.54,3.17,2.56c7.61-6.3,15.21-12.58,22.79-18.88
		c18.61-15.46,37.21-30.93,55.81-46.4c7.9-6.56,12.96-6.87,21.56-1.26c34.87,22.74,69.74,45.48,104.59,68.24
		c1.49,0.97,2.96,2.02,4.22,3.27c2.65,2.62,2.83,5.59,0.41,8.43c-1.42,1.65-3.13,3.08-4.83,4.45
		c-24.25,19.41-48.53,38.79-72.8,58.19c-1.06,0.85-2.08,1.74-3.5,2.93c2.39,1.95,4.56,3.75,6.76,5.52
		c23.7,19,47.41,37.99,71.1,57.01c1.38,1.11,2.73,2.35,3.75,3.78c1.82,2.54,1.62,5.23-0.52,7.5c-1.3,1.38-2.88,2.55-4.48,3.59
		c-34.96,22.84-69.95,45.66-104.93,68.48c-8.05,5.25-13.59,4.96-20.94-1.14c-23.16-19.23-46.32-38.47-69.47-57.71
		c-6.94-5.77-6.63-9.73,1.21-14.57c37.39-23.11,74.8-46.19,112.2-69.29c1.51-0.94,3.01-1.89,5-3.14c-1.39-0.92-2.47-1.68-3.59-2.37
		c-40.48-24.91-80.96-49.81-121.42-74.75c-1.86-1.15-3.21-1.76-5.46-0.36c-40.76,25.23-81.6,50.34-122.41,75.49
		c-0.9,0.56-1.74,1.22-2.95,2.08c42.7,26.38,85.04,52.54,127.85,78.99c-8.37,6.99-16.25,13.58-24.14,20.16
		c-17.85,14.87-35.7,29.74-53.54,44.62c-8.73,7.28-13.42,7.58-22.91,1.39c-34.65-22.57-69.32-45.1-103.93-67.74
		c-2.45-1.6-4.43-3.91-6.63-5.89c0-1.1,0-2.2,0-3.3c1.69-1.95,3.14-4.2,5.12-5.8c23.65-19.07,47.37-38.03,71.07-57.03
		c2.19-1.76,4.35-3.56,6.72-5.49c-1.46-1.21-2.48-2.1-3.54-2.95C55.1,127.11,30.82,107.74,6.6,88.29c-2.42-1.94-4.41-4.42-6.6-6.65
		C0,80.54,0,79.44,0,78.34z"/>
	<path d="M211.48,244.46c26.39,21.85,52.64,43.57,78.88,65.31c7.77,6.44,13.06,6.76,21.59,1.19c8.72-5.69,17.43-11.38,27.33-17.85
		c-0.46,8.37-0.34,15.74-1.43,22.92c-0.73,4.82-4.26,8.5-8.58,11.09c-38.52,23.07-77.02,46.17-115.6,69.13
		c-1.15,0.69-3.46,0.59-4.65-0.12c-38.32-22.86-76.57-45.85-114.83-68.81c-5.97-3.58-9.37-8.89-9.79-15.77
		c-0.35-5.72-0.07-11.48-0.07-17.76c1.43,0.77,2.5,1.25,3.48,1.88c8.06,5.24,16.09,10.52,24.15,15.77
		c7.61,4.95,13.27,4.62,20.25-1.18c24.84-20.63,49.67-41.28,74.51-61.91C208.29,247.03,209.9,245.75,211.48,244.46z"/>
</g>
</svg>
