<?xml version="1.0" encoding="utf-8"?>
<!-- Generator: Adobe Illustrator 24.1.2, SVG Export Plug-In . SVG Version: 6.00 Build 0)  -->
<svg version="1.1" id="Layer_1" xmlns="http://www.w3.org/2000/svg" xmlns:xlink="http://www.w3.org/1999/xlink" x="0px" y="0px"
	 viewBox="0 0 360.06 264.08" style="enable-background:new 0 0 360.06 264.08;" xml:space="preserve">
<g>
	<path d="M142.55,139.76c4,3.41,8.45,7.21,12.91,11c14.7,12.48,34.83,12.41,49.31-0.17c4.33-3.76,8.64-7.56,12.64-11.06
		c40.45,40.45,80.77,80.77,121.65,121.65c-4.39,0.94-8.68,1.92-13,2.75c-1.33,0.25-2.74,0.11-4.12,0.11
		c-94.59,0-189.19,0-283.78,0.02c-5.92,0-11.59-0.84-16.64-3.28C61.85,220.45,102.09,180.22,142.55,139.76z"/>
	<path d="M24.08,1.47c5.38-0.54,9.76-1.37,14.14-1.37c81.47-0.08,162.93-0.06,244.4-0.06c13.49,0,26.99-0.14,40.48,0.08
		c4.43,0.07,8.84,1.05,14.15,1.73c-1.34,1.47-1.89,2.21-2.57,2.8C286.33,47.1,237.99,89.55,189.6,131.96
		c-6.98,6.11-12.31,6.09-19.17,0C122.5,89.4,74.61,46.81,26.72,4.23C26.1,3.68,25.58,3.04,24.08,1.47z"/>
	<path d="M5.4,17.39c39.65,35.46,78.94,70.6,118.04,105.56C83.41,162.98,43.58,202.82,3.52,242.88c-2.46-4.71-3.5-9.83-3.5-15.22
		c0-18,0-36,0-54c0-45.5,0.02-91-0.02-136.5C-0.01,30.26,1.58,23.86,5.4,17.39z"/>
	<path d="M236.82,122.46C275.9,88.13,315.4,53.45,355.13,18.55c3.58,5.98,4.9,12.18,4.89,18.77c-0.02,37.48-0.01,74.97-0.01,112.45
		c0,25.74,0.14,51.48-0.11,77.22c-0.05,5.33-1.55,10.65-2.41,16.18C316.88,202.53,276.99,162.64,236.82,122.46z"/>
</g>
</svg>
