<?xml version="1.0" encoding="utf-8"?>
<!-- Generator: Adobe Illustrator 24.1.2, SVG Export Plug-In . SVG Version: 6.00 Build 0)  -->
<svg version="1.1" id="Layer_1" xmlns="http://www.w3.org/2000/svg" xmlns:xlink="http://www.w3.org/1999/xlink" x="0px" y="0px"
	 viewBox="0 0 350.18 350.17" style="enable-background:new 0 0 350.18 350.17;" xml:space="preserve">
<g>
	<path d="M58.86,0c77.5,0,155.01,0,232.51,0c0.64,0.21,1.26,0.52,1.91,0.61c26.97,3.72,48.49,23.07,55.07,49.57
		c0.71,2.85,1.22,5.75,1.83,8.63c0,77.5,0,155.01,0,232.51c-0.21,0.64-0.52,1.27-0.61,1.93c-4.8,33.17-31.61,56.77-65.25,56.84
		c-72.83,0.15-145.65,0.05-218.48,0.04c-9.34,0-18.49-1.42-26.86-5.61C13.97,332.01,0.22,311.99,0.1,283.64
		c-0.19-43.53-0.05-87.07-0.05-130.61c0-28.95-0.08-57.9,0.02-86.84C0.18,36.91,17.83,12.35,45.32,3.2C49.7,1.75,54.34,1.05,58.86,0
		z M287.72,175.91c0.69-26.64-21.09-48.7-47.32-49.21c-26.48-0.52-48.92,20.76-49.39,47.54c-0.46,26.73,21.16,48.69,47.37,49.21
		C265,223.98,287.52,202.45,287.72,175.91z M111.64,126.74c-26.62-0.67-48.68,21.1-49.18,47.35c-0.51,26.61,21.01,48.93,47.57,49.36
		c26.63,0.43,48.68-21.15,49.18-47.4C159.72,149.43,138.2,126.93,111.64,126.74z"/>
</g>
</svg>
