<?xml version="1.0" standalone="no"?>
<!DOCTYPE svg PUBLIC "-//W3C//DTD SVG 20010904//EN"
 "http://www.w3.org/TR/2001/REC-SVG-20010904/DTD/svg10.dtd">
<svg version="1.0" xmlns="http://www.w3.org/2000/svg"
 width="512.000000pt" height="512.000000pt" viewBox="0 0 512.000000 512.000000"
 preserveAspectRatio="xMidYMid meet">

<g transform="translate(0.000000,512.000000) scale(0.100000,-0.100000)"
stroke="none">
<path d="M2320 5109 c-199 -19 -452 -76 -635 -144 -238 -87 -531 -254 -731
-415 -123 -99 -320 -303 -418 -433 l-90 -118 441 -441 440 -440 48 90 c262
497 824 779 1383 696 196 -29 372 -96 544 -209 188 -124 158 -138 571 273 186
185 347 354 358 374 46 89 18 145 -127 255 -397 298 -833 467 -1329 513 -125
11 -330 11 -455 -1z"/>
<path d="M226 3603 c-99 -223 -165 -452 -203 -700 -23 -150 -23 -536 0 -686
26 -166 64 -326 112 -466 44 -128 134 -341 144 -341 4 0 216 210 474 468 l467
467 -12 108 c-9 83 -9 131 0 214 l12 108 -467 467 c-258 258 -471 468 -474
468 -3 0 -27 -48 -53 -107z"/>
<path d="M2498 3139 c-23 -12 -46 -35 -58 -59 -19 -38 -20 -58 -20 -520 0
-462 1 -482 20 -520 13 -26 34 -47 60 -60 38 -19 58 -20 660 -20 l621 0 -32
-57 c-52 -92 -116 -178 -195 -262 l-73 -77 425 -425 425 -424 75 80 c446 477
686 1041 711 1670 9 244 -25 570 -65 624 -10 14 -31 34 -46 45 -27 21 -32 21
-1249 23 -1201 2 -1223 2 -1259 -18z"/>
<path d="M886 1561 l-440 -440 90 -118 c101 -134 298 -337 424 -437 613 -488
1383 -669 2145 -506 196 42 460 139 633 232 121 65 341 205 342 218 0 3 -193
198 -429 434 l-430 430 -98 -46 c-193 -91 -337 -122 -558 -122 -178 -1 -262
11 -405 56 -342 109 -643 363 -799 676 -17 34 -32 62 -34 62 -1 0 -200 -198
-441 -439z"/>
</g>
</svg>
