<?xml version="1.0" encoding="utf-8"?>
<!-- Generator: Adobe Illustrator 24.1.2, SVG Export Plug-In . SVG Version: 6.00 Build 0)  -->
<svg version="1.1" id="Layer_1" xmlns="http://www.w3.org/2000/svg" xmlns:xlink="http://www.w3.org/1999/xlink" x="0px" y="0px"
	 viewBox="0 0 13.33 13.19" style="enable-background:new 0 0 13.33 13.19;" xml:space="preserve">
<g>
	<path d="M0,4.82c0.05-0.2,0.09-0.41,0.17-0.6c0.53-1.25,1.98-1.69,3.14-0.97c0.11,0.07,0.21,0.13,0.35,0.22
		C3.6,3.32,3.55,3.2,3.52,3.08C3.4,2.69,3.38,2.3,3.53,1.91c0.25-0.66,0.9-0.88,1.53-0.52C5.32,1.54,5.53,1.75,5.7,2.01
		c0.02,0.03,0.05,0.07,0.09,0.12c0.03-0.17,0.06-0.32,0.1-0.46c0.25-0.93,0.84-1.5,1.79-1.64c1.15-0.17,2.15,0.6,2.38,1.68
		c0.12,0.57,0,1.11-0.3,1.59c-0.2,0.31-0.42,0.61-0.62,0.89C9.26,4.11,9.43,4,9.6,3.92c0.4-0.21,0.83-0.28,1.28-0.21
		c0.48,0.08,0.85,0.39,0.94,0.83c0.06,0.3-0.03,0.58-0.19,0.83c-0.19,0.3-0.45,0.52-0.77,0.68c-0.03,0.02-0.07,0.04-0.13,0.07
		c0.23,0.03,0.43,0.05,0.64,0.08c0.78,0.13,1.4,0.5,1.73,1.23c0.35,0.76,0.28,1.51-0.22,2.18c-0.48,0.65-1.15,0.92-1.96,0.83
		c-0.51-0.05-0.92-0.31-1.32-0.59C9.55,9.82,9.49,9.77,9.42,9.72c0.04,0.18,0.09,0.34,0.12,0.51c0.05,0.27,0.03,0.54-0.04,0.8
		c-0.22,0.74-0.99,1.01-1.63,0.56c-0.39-0.27-0.56-0.49-0.83-1.1C7.01,10.7,7,10.9,6.97,11.09c-0.09,0.67-0.33,1.27-0.9,1.67
		c-0.72,0.5-1.49,0.57-2.26,0.16c-0.79-0.42-1.16-1.12-1.12-2.02c0.02-0.47,0.22-0.88,0.48-1.26c0.03-0.04,0.06-0.09,0.1-0.15
		C3.09,9.55,2.94,9.59,2.79,9.62C2.5,9.69,2.2,9.67,1.92,9.58C1.2,9.36,0.93,8.63,1.34,7.99C1.54,7.69,1.79,7.46,2.1,7.3
		c0.03-0.02,0.06-0.03,0.09-0.05c0.01,0,0.01-0.01,0.03-0.03c-0.18-0.04-0.36-0.06-0.53-0.1c-0.94-0.24-1.5-0.84-1.67-1.81
		c0-0.03-0.01-0.05-0.02-0.07C0,5.1,0,4.96,0,4.82z M3.03,6.71c0.08,0,0.16,0,0.23,0c0.39-0.02,0.77-0.07,1.12-0.25
		c0.26-0.13,0.46-0.32,0.44-0.63c-0.01-0.2-0.08-0.41-0.18-0.57C4.19,4.5,3.53,3.95,2.72,3.57C2.55,3.49,2.35,3.46,2.16,3.45
		C1.39,3.43,0.71,3.99,0.57,4.74c-0.14,0.78,0.3,1.54,1.05,1.79C2.08,6.69,2.55,6.72,3.03,6.71z M10.36,6.66c-0.1,0-0.21,0-0.31,0
		C9.68,6.68,9.31,6.74,8.97,6.9C8.7,7.03,8.5,7.22,8.49,7.54c0,0.22,0.07,0.42,0.19,0.6c0.46,0.73,1.09,1.28,1.87,1.64
		c0.81,0.38,1.76-0.01,2.11-0.83c0.34-0.81-0.05-1.74-0.87-2.07C11.33,6.69,10.84,6.67,10.36,6.66z M6.5,10.17
		c-0.01-0.1-0.01-0.26-0.03-0.42C6.44,9.37,6.37,9,6.16,8.67C6.01,8.44,5.67,8.3,5.4,8.38C5.25,8.42,5.1,8.48,4.97,8.57
		c-0.64,0.41-1.12,0.98-1.5,1.64c-0.2,0.35-0.28,0.72-0.21,1.12c0.12,0.7,0.73,1.25,1.44,1.29c0.76,0.05,1.43-0.41,1.63-1.11
		C6.45,11.1,6.49,10.67,6.5,10.17z M6.27,3.03C6.28,3.16,6.28,3.36,6.3,3.56c0.04,0.33,0.11,0.66,0.3,0.95
		c0.07,0.1,0.14,0.18,0.28,0.18c0.11,0,0.22,0.02,0.32,0.06c0.17,0.08,0.32,0.02,0.47-0.05c0.03-0.02,0.06-0.03,0.09-0.05
		C8.45,4.2,8.96,3.6,9.35,2.88c0.16-0.3,0.22-0.62,0.18-0.95c-0.08-0.7-0.69-1.31-1.38-1.37c-0.79-0.07-1.48,0.38-1.7,1.1
		C6.32,2.08,6.28,2.52,6.27,3.03z M8.18,6.65c0.01-0.82-0.66-1.49-1.49-1.5C5.87,5.13,5.19,5.8,5.18,6.62
		C5.17,7.46,5.83,8.14,6.67,8.15C7.48,8.16,8.17,7.48,8.18,6.65z M3.75,2.59c0.03,0.15,0.04,0.3,0.09,0.44
		c0.18,0.53,0.51,0.97,0.89,1.37c0.16,0.17,0.34,0.32,0.54,0.44C5.52,5,5.72,4.91,5.8,4.63c0.07-0.24,0.1-0.49,0.04-0.74
		C5.8,3.75,5.79,3.61,5.77,3.47C5.74,3.22,5.73,2.96,5.67,2.72c-0.09-0.38-0.3-0.7-0.63-0.92c-0.37-0.25-0.8-0.21-1.06,0.1
		C3.82,2.09,3.76,2.33,3.75,2.59z M8.98,6.12C9.49,6.11,9.95,6.04,10.4,5.9c0.36-0.11,0.66-0.3,0.87-0.62
		c0.2-0.3,0.21-0.67,0.02-0.92c-0.19-0.24-0.45-0.33-0.74-0.34C10.27,4,10.01,4.06,9.76,4.19C9.2,4.48,8.7,4.85,8.31,5.36
		C8.26,5.41,8.26,5.46,8.3,5.52C8.39,5.68,8.47,5.84,8.54,6C8.57,6.07,8.6,6.1,8.68,6.1C8.79,6.1,8.91,6.12,8.98,6.12z M7.12,8.99
		c0.01,0.47,0.08,0.92,0.22,1.37c0.11,0.35,0.3,0.65,0.62,0.86c0.49,0.33,1.02,0.15,1.21-0.4c0.09-0.27,0.09-0.54,0-0.8
		C8.92,9.32,8.48,8.77,7.93,8.29c-0.06-0.05-0.1-0.04-0.16,0c-0.1,0.06-0.21,0.12-0.32,0.17c-0.1,0.05-0.25,0.07-0.3,0.14
		C7.09,8.7,7.12,8.84,7.12,8.96C7.12,8.97,7.12,8.98,7.12,8.99z"/>
</g>
</svg>
