<?xml version="1.0" standalone="no"?>
<!DOCTYPE svg PUBLIC "-//W3C//DTD SVG 20010904//EN"
 "http://www.w3.org/TR/2001/REC-SVG-20010904/DTD/svg10.dtd">
<svg version="1.0" xmlns="http://www.w3.org/2000/svg"
 width="428.000000pt" height="428.000000pt" viewBox="0 0 428.000000 428.000000"
 preserveAspectRatio="xMidYMid meet">
<g transform="translate(0.000000,428.000000) scale(0.100000,-0.100000)"
 stroke="none">
<path d="M826 4269 c-393 -58 -699 -337 -799 -726 l-22 -88 0 -1315 0 -1315
22 -88 c90 -351 342 -609 690 -705 l98 -27 1320 0 1320 0 88 22 c359 92 618
351 710 710 l22 88 0 1315 0 1315 -22 88 c-91 356 -347 614 -705 709 l-83 22
-1290 2 c-710 1 -1317 -2 -1349 -7z m2814 -435 c104 -31 200 -160 200 -268 0
-154 -134 -286 -289 -286 -277 1 -390 364 -161 516 83 55 156 66 250 38z
m-1265 -339 c320 -56 629 -238 831 -489 152 -188 243 -387 290 -631 24 -123
24 -348 -1 -475 -108 -572 -543 -1007 -1115 -1115 -127 -25 -352 -25 -475 -1
-375 72 -673 263 -894 574 -236 330 -308 774 -190 1175 103 349 360 657 688
826 277 142 567 188 866 136z"/>
<path d="M2025 2920 c-314 -50 -565 -274 -647 -579 -16 -58 -21 -106 -21 -201
0 -143 20 -235 73 -341 107 -213 281 -357 507 -421 110 -31 296 -31 406 0 277
78 481 282 559 558 31 111 31 296 0 407 -96 338 -378 564 -726 581 -50 3 -118
1 -151 -4z"/>
</g>
</svg>
