<?xml version="1.0" standalone="no"?>
<!DOCTYPE svg PUBLIC "-//W3C//DTD SVG 20010904//EN"
 "http://www.w3.org/TR/2001/REC-SVG-20010904/DTD/svg10.dtd">
<svg version="1.0" xmlns="http://www.w3.org/2000/svg"
 width="512.000000pt" height="512.000000pt" viewBox="0 0 512.000000 512.000000"
 preserveAspectRatio="xMidYMid meet">

<g transform="translate(0.000000,512.000000) scale(0.100000,-0.100000)"
stroke="none">
<path d="M524 4830 c-192 -17 -347 -101 -438 -239 -51 -78 -74 -142 -82 -231
-15 -158 40 -316 149 -425 105 -105 238 -155 414 -155 179 0 311 48 419 152
103 98 154 220 154 362 0 102 -20 187 -64 274 -103 204 -275 286 -552 262z"/>
<path d="M3715 3424 c-220 -24 -438 -106 -584 -218 -67 -52 -190 -179 -228
-237 l-28 -43 -3 217 -2 217 -548 0 -547 0 -2 -1540 -2 -1540 550 0 549 0 0
903 c0 505 5 930 10 967 15 105 69 201 169 301 126 125 234 169 416 169 178 0
300 -45 391 -143 96 -103 147 -248 164 -462 5 -66 10 -483 10 -927 l0 -808
545 0 545 0 0 933 c0 956 -3 1063 -40 1242 -77 371 -280 665 -570 823 -94 51
-256 105 -380 127 -94 16 -339 27 -415 19z"/>
<path d="M70 1820 l0 -1540 545 0 545 0 0 1540 0 1540 -545 0 -545 0 0 -1540z"/>
</g>
</svg>
