<?xml version="1.0" encoding="utf-8"?>
<!-- Generator: Adobe Illustrator 24.1.2, SVG Export Plug-In . SVG Version: 6.00 Build 0)  -->
<svg version="1.1" id="Layer_1" xmlns="http://www.w3.org/2000/svg" xmlns:xlink="http://www.w3.org/1999/xlink" x="0px" y="0px"
	 viewBox="0 0 307.91 326.1" style="enable-background:new 0 0 307.91 326.1;" xml:space="preserve">
<g>
	<path d="M199.75,0c5.88,1.27,11.92,2.06,17.62,3.89c24.62,7.9,41.73,23.49,48.27,49.12c4.18,16.39,2.47,32.75-2.27,48.7
		c-13.33,44.83-42.86,72.35-88.91,81.45c-7.64,1.51-15.61,1.76-23.44,1.88c-17.41,0.27-34.82,0.12-52.23,0.04
		c-2.34-0.01-3.22,0.65-3.72,3.04c-5.33,25.41-10.8,50.79-16.27,76.17c-1.76,8.19-7.13,12.5-15.6,12.53
		c-15.6,0.04-31.21,0.03-46.81,0.01c-11.95-0.01-18.38-8.02-15.84-19.66c7-32.1,13.98-64.2,20.98-96.3
		C32.29,111.58,43.11,62.31,53.75,13c1.46-6.77,5.42-10.74,11.6-13C110.15,0,154.95,0,199.75,0z M107.21,132.05
		c1.48,0,2.52,0,3.56,0c10.93,0,21.86,0.03,32.8-0.02c2.43-0.01,4.9-0.1,7.29-0.52c20.63-3.68,37.45-21.24,40.49-42.18
		c2.6-17.93-8.82-32.13-26.9-32.76c-12.61-0.44-25.26-0.09-37.89-0.18c-1.93-0.01-2.47,0.82-2.84,2.53
		c-2.32,10.56-4.76,21.08-7.15,31.62C113.48,104.15,110.42,117.79,107.21,132.05z"/>
	<path d="M43.93,291.53c6.17,0,12,0.01,17.83,0c17.2-0.02,28.13-8.89,31.72-25.69c4.67-21.87,9.37-43.73,14.16-66.08
		c1.19,0,2.43,0.01,3.66,0c16.88-0.12,33.77,0.19,50.63-0.46c50.01-1.92,94.39-34.56,111.74-81.69c6.03-16.38,9.3-33.24,8.82-51.48
		c1.36,1.09,2.32,1.8,3.21,2.6c16.22,14.67,23.09,33.36,22.12,54.75c-1.38,30.51-12.23,57.29-34.14,78.97
		c-19.07,18.86-42.33,29.52-68.98,31.1c-21.48,1.28-43.07,0.73-64.62,0.71c-3.54,0-4.58,1.12-5.25,4.36
		c-5.19,25.01-10.57,49.98-15.92,74.96c-1.71,8.01-7.17,12.48-15.3,12.49c-16.03,0.03-32.06,0.04-48.09,0
		c-10.57-0.03-17.12-8.01-15.07-18.37C41.5,302.42,42.71,297.16,43.93,291.53z"/>
</g>
</svg>
