<?xml version="1.0" encoding="utf-8"?>
<!-- Generator: Adobe Illustrator 24.1.2, SVG Export Plug-In . SVG Version: 6.00 Build 0)  -->
<svg version="1.1" id="Layer_1" xmlns="http://www.w3.org/2000/svg" xmlns:xlink="http://www.w3.org/1999/xlink" x="0px" y="0px"
	 viewBox="0 0 239.51 239.08" style="enable-background:new 0 0 239.51 239.08;" xml:space="preserve">
<g>
	<path d="M239.51,125.11c-0.44,3.77-0.62,7.6-1.39,11.3c-1.49,7.15-3.27,14.24-5.05,21.32c-0.15,0.61-1.21,1.41-1.86,1.42
		c-16.14,0.07-32.28,0.05-48.42,0.04c-0.22,0-0.44-0.09-0.84-0.18c0-46.96,0-93.91,0-141.55c4.61,3.36,9.02,6.25,13.07,9.57
		c19.75,16.17,33.28,36.54,40.05,61.16c1.95,7.09,2.69,14.52,3.97,21.79c0.17,0.99,0.31,1.98,0.47,2.97
		C239.51,117,239.51,121.06,239.51,125.11z"/>
	<path d="M227.12,172.03c-4.52,9.43-10.06,17.87-16.73,25.54c-17.36,19.96-38.92,33.05-64.72,39.02
		c-7.07,1.64-14.23,2.45-21.54,2.48c-11.09,0.04-22.17,0.03-32.91-3.13c-6.48-1.91-12.81-4.34-19.24-6.44
		c-1.46-0.48-1.34-1.46-1.34-2.55c0-11.62,0-23.23,0-34.85c0-6.62,0-13.24,0-20.06C122.79,172.03,174.82,172.03,227.12,172.03z"/>
	<path d="M65.27,13.35c14.96,13.58,29.96,27.2,45.22,41.05c-35.34,32.1-70.6,64.13-105.92,96.22
		C-9.96,103.46,10.13,41.2,65.27,13.35z"/>
	<path d="M169.01,90.48c-30.52-27.71-60.64-55.04-91.2-82.79c5.49-1.63,10.51-3.42,15.66-4.59c25.26-5.77,49.82-3.42,73.65,6.75
		c1.36,0.58,2.06,1.18,2.06,2.84c-0.06,25.18-0.04,50.37-0.05,75.55C169.13,88.75,169.07,89.28,169.01,90.48z"/>
	<path d="M57.88,222.29c-5.61-4.21-10.98-7.81-15.88-11.97c-14.35-12.22-25.24-27.06-32.61-44.44c-0.49-1.16-0.75-1.96,0.42-3.02
		c15.62-14.11,31.19-28.28,46.77-42.43c0.33-0.3,0.7-0.56,1.29-1.04C57.88,153.6,57.88,187.53,57.88,222.29z"/>
</g>
</svg>
