<?xml version="1.0" encoding="utf-8"?>
<!-- Generator: Adobe Illustrator 24.1.2, SVG Export Plug-In . SVG Version: 6.00 Build 0)  -->
<svg version="1.1" id="Layer_1" xmlns="http://www.w3.org/2000/svg" xmlns:xlink="http://www.w3.org/1999/xlink" x="0px" y="0px"
	 viewBox="0 0 1200 1028.19" style="enable-background:new 0 0 1200 1028.19;" xml:space="preserve">
<g>
	<path d="M1200,531.48c-0.91,7.58-1.76,15.18-2.74,22.75c-6.35,48.95-24.24,93.53-51.46,134.46c-35,52.63-80.96,93.91-133.93,127.69
		c-67.26,42.9-140.66,70.77-218.27,88.06c-73.26,16.31-147.44,22.18-222.37,18.86c-34.64-1.54-69.07-5.25-103.23-11.19
		c-3.53-0.61-5.84-0.03-8.43,2.38c-27.57,25.64-57.83,47.67-90.73,65.92c-33.57,18.63-69.63,30.78-107.05,38.84
		c-43.69,9.42-87.83,11.34-132.18,6.02c-44.44-5.33-87.14-16.94-127.3-37.12c-0.7-0.35-1.54-0.45-2.31-0.66c0-0.33,0-0.67,0-1
		c15.89-15.37,32.49-30.08,47.51-46.26c28.81-31.03,53.63-64.98,69.82-104.54c10.12-24.73,15.37-50.23,11.7-77.1
		c-0.69-5.08-2.37-9.22-6.16-13.08c-22.63-23.03-42.28-48.41-58.19-76.56c-40.3-71.31-53.12-146.84-33.53-226.89
		c15.24-62.27,48.07-114.67,92.21-160.49c2.46-2.56,4.16-6.27,5.12-9.74c1.13-4.12,1.28-8.55,1.51-12.87
		c1.48-27.5-5.97-53.06-17.45-77.63c-15.94-34.13-37.89-64.27-63.38-91.7C33.57,72.83,16.44,57.48,0,41.48c0-0.33,0-0.67,0-1
		c11.27-4.85,22.36-10.15,33.83-14.47C90.32,4.72,148.74-3.33,208.93,1.23c52.94,4.01,103.27,17.91,150.63,41.6
		c36.22,18.12,68.71,42.01,98.46,69.51c3.66,3.38,6.89,4.38,11.92,3.52c61.65-10.57,123.74-13.76,186.19-10.6
		c66.98,3.38,132.65,14.37,196.74,34.23c73.62,22.81,142.11,55.77,202.74,103.92c46.62,37.02,85.27,80.79,111.92,134.47
		c18.04,36.34,28.86,74.7,31.65,115.25c0.1,1.47,0.54,2.91,0.83,4.36C1200,508.81,1200,520.15,1200,531.48z M127.36,960.31
		c8.72,1.47,16.67,3.17,24.71,4.09c38.23,4.4,75.06-1.87,110.67-15.65c65.44-25.33,119.32-66.84,165.19-119.32
		c2.41-2.75,4.42-3.65,7.98-2.81c46.66,10.96,93.96,17.15,141.85,19.16c78.26,3.29,155.4-4.25,231.13-24.45
		c67.77-18.07,131.49-45.24,188.57-86.62c41.64-30.18,77.14-66.09,101.65-111.83c26.22-48.94,34.77-100.66,22.75-155.18
		c-10.12-45.9-33.27-84.97-64.61-119.43c-41.95-46.13-93.13-79.26-149.53-104.75c-78.94-35.67-162.17-53.67-248.33-58.83
		c-73.07-4.38-145.5,0.84-217,16.87c-68.89,15.45-134.23,39.91-193.99,78.04c-46.17,29.46-86.32,65.28-115.64,112.14
		c-22.53,36-35.67,75-36.76,117.71c-1.18,46.16,11.83,88.39,35.83,127.48c20.38,33.19,46.83,60.91,76.96,85.32
		c1.77,1.43,3.79,3.69,3.99,5.74c2.33,22.96,2.17,45.93-1.12,68.79c-6.81,47.39-25.77,89.65-54.8,127.47
		C147.67,936.26,137.72,947.7,127.36,960.31z"/>
	<path d="M849.59,583.78c-38.05-0.07-68.65-31-68.54-69.29c0.11-37.91,30.94-68.86,68.6-68.86c37.82,0.01,68.6,31.22,68.46,69.45
		C917.98,553.23,887.44,583.85,849.59,583.78z"/>
	<path d="M304.64,514.34c0.29-38.32,31.29-69.1,69.17-68.69c37.64,0.4,68.28,31.77,67.94,69.56c-0.34,38.3-31.35,68.98-69.31,68.57
		C334.53,583.36,304.35,552.45,304.64,514.34z"/>
	<path d="M611.58,583.78c-37.83,0.04-68.5-30.67-68.59-68.65c-0.09-38.23,30.65-69.45,68.44-69.5
		c37.78-0.05,68.68,31.17,68.61,69.31C679.96,552.93,649.32,583.75,611.58,583.78z"/>
</g>
</svg>
