<?xml version="1.0" standalone="no"?>
<!DOCTYPE svg PUBLIC "-//W3C//DTD SVG 20010904//EN"
 "http://www.w3.org/TR/2001/REC-SVG-20010904/DTD/svg10.dtd">
<svg version="1.0" xmlns="http://www.w3.org/2000/svg"
 width="512.000000pt" height="512.000000pt" viewBox="0 0 512.000000 512.000000"
 preserveAspectRatio="xMidYMid meet">

<g transform="translate(0.000000,512.000000) scale(0.100000,-0.100000)"
 stroke="none">
<path d="M347 5110 c-73 -13 -166 -62 -221 -116 -157 -158 -157 -419 1 -578
96 -96 157 -115 413 -127 601 -27 1106 -156 1615 -411 757 -380 1372 -1002
1745 -1763 241 -493 364 -986 390 -1565 6 -139 14 -229 24 -256 50 -141 147
-236 281 -274 62 -18 175 -16 236 3 66 20 152 81 198 139 85 106 101 211 82
518 -20 320 -55 551 -126 846 -248 1019 -835 1931 -1665 2585 -767 604 -1687
949 -2670 999 -218 11 -235 11 -303 0z"/>
<path d="M293 3576 c-195 -64 -321 -267 -285 -459 26 -138 112 -250 238 -309
59 -27 78 -31 217 -39 193 -11 304 -25 442 -54 712 -155 1302 -616 1621 -1270
149 -307 222 -601 239 -970 9 -187 41 -271 136 -360 202 -189 522 -128 646
123 l38 76 -1 191 c-3 733 -306 1486 -831 2057 -504 549 -1157 892 -1913 1004
-150 22 -492 28 -547 10z"/>
<path d="M695 1650 c-267 -48 -488 -221 -604 -472 -57 -123 -74 -202 -74 -343
1 -139 22 -235 79 -355 139 -294 457 -485 779 -466 211 11 372 80 526 224 172
161 259 362 259 597 0 283 -134 534 -368 688 -135 90 -254 127 -422 132 -69 2
-147 0 -175 -5z"/>
</g>
</svg>
