<?xml version="1.0" encoding="utf-8"?>
<!-- Generator: Adobe Illustrator 24.1.2, SVG Export Plug-In . SVG Version: 6.00 Build 0)  -->
<svg version="1.1" id="Layer_1" xmlns="http://www.w3.org/2000/svg" xmlns:xlink="http://www.w3.org/1999/xlink" x="0px" y="0px"
	 viewBox="0 0 307.27 307.28" style="enable-background:new 0 0 307.27 307.28;" xml:space="preserve">
<g>
	<path d="M8.12,154.61c0.92-8.07,1.98-16.61,2.78-25.18c0.18-1.97-0.01-4.31-0.91-6.01C-16.13,74.58,11.29,14.52,65.35,2.31
		c21.92-4.95,42.66-1.96,62.26,9.1c1.38,0.78,3.32,1.17,4.88,0.94c31.5-4.6,61.7-0.3,89.82,14.65
		c44.33,23.55,70.75,60.27,78.16,110.12c2.24,15.06,1.27,30.16-1.47,45.15c-0.41,2.26-0.12,5,0.82,7.09
		c23.91,53.52-13.1,107.74-63.21,116.64c-18.08,3.21-35.29,0.26-51.8-7.55c-1.57-0.74-3.6-1.22-5.26-0.93
		c-79.12,13.71-154.96-39.39-168.88-118.5C9.29,171.19,8.98,163.16,8.12,154.61z M158.37,254.46c4.97-0.55,13.85-1.09,22.55-2.61
		c17.49-3.06,33.3-9.82,45.56-23.21c19.57-21.4,18.75-55.27-1.77-74.02c-9.05-8.26-19.98-13.31-31.59-16.55
		c-16.58-4.62-33.45-8.24-50-12.96c-6.86-1.95-13.76-4.82-19.69-8.72c-8.9-5.86-8.81-15.84-0.61-22.71c2.17-1.82,4.65-3.68,7.3-4.44
		c6.07-1.76,12.27-3.64,18.52-4.06c17.85-1.21,32.49,4.3,40.93,21.5c1.63,3.32,3.81,6.51,6.3,9.25c5.78,6.38,13.31,6.96,21.09,5
		c7.72-1.94,12.42-7.13,14.09-14.93c1.85-8.69-1.02-16.32-5.77-23.32c-6.72-9.9-15.96-16.78-27-21.24
		c-20.08-8.11-40.94-9.73-62.23-7.05c-14.52,1.82-28.27,5.97-40.74,13.97c-28.08,18.03-30.18,59.8-2.5,78.71
		c7.13,4.87,15.05,9.18,23.23,11.76c14.61,4.59,29.7,7.66,44.58,11.38c8.85,2.21,17.72,4.43,25.33,9.82
		c8.45,5.99,10.69,15.89,5.68,24.8c-2.86,5.09-7.19,8.62-12.37,11.09c-10.33,4.93-21.3,5.94-32.56,5.04
		c-15.83-1.28-26.7-9.41-33.27-23.71c-1.72-3.74-3.57-7.45-5.75-10.93c-5.51-8.78-15.38-11.81-26-8.24
		c-8.63,2.89-13.45,10.9-12.6,21.07c0.18,2.1,0.53,4.23,1.08,6.26c4.5,16.39,15.15,27.93,29.45,36.27
		C116.53,251.55,135.3,253.93,158.37,254.46z"/>
</g>
</svg>
