<?xml version="1.0" encoding="utf-8"?>
<!-- Generator: Adobe Illustrator 24.1.2, SVG Export Plug-In . SVG Version: 6.00 Build 0)  -->
<svg version="1.1" id="Layer_1" xmlns="http://www.w3.org/2000/svg" xmlns:xlink="http://www.w3.org/1999/xlink" x="0px" y="0px"
	 viewBox="0 0 384 384" style="enable-background:new 0 0 384 384;" xml:space="preserve">
<g>
	<path d="M0,136.5c2.4-5.95,3.92-12.48,7.37-17.74c7.71-11.75,19.25-17.47,33.34-17.51c33.23-0.08,66.46-0.06,99.7-0.02
		c23.28,0.03,41.02,17.18,41.38,39.9c0.35,22.31-17.02,40.38-40.19,40.67c-33.73,0.42-67.46,0.36-101.19,0.01
		c-20.59-0.21-35.72-13.42-39.74-33.48c-0.14-0.71-0.44-1.39-0.67-2.09C0,143,0,139.75,0,136.5z"/>
	<path d="M247.5,0c2.4,0.63,4.82,1.16,7.18,1.9c16.4,5.14,27.95,20,28.06,37.21c0.24,34.6,0.3,69.21-0.02,103.8
		c-0.2,21.64-18.19,38.77-39.97,38.94c-21.6,0.17-40-17-40.26-38.62c-0.4-34.6-0.35-69.2-0.05-103.8
		c0.17-19.78,13.97-35.22,33.56-38.8c0.6-0.11,1.16-0.41,1.74-0.63C241,0,244.25,0,247.5,0z"/>
	<path d="M384,248.25c-1.99,5.19-3.29,10.79-6.11,15.49c-7.06,11.8-17.81,18.65-31.65,19.07c-17.48,0.53-34.98,0.24-52.47,0.26
		c-16.74,0.02-33.49,0.09-50.23-0.02c-20.71-0.14-36.73-13.21-40.62-32.94c-4.72-23.88,13.83-47.34,38.18-47.56
		c34.61-0.31,69.22-0.22,103.83-0.03c18.5,0.1,34.33,13.66,38.29,32.08c0.18,0.82,0.52,1.6,0.78,2.39
		C384,240.75,384,244.5,384,248.25z"/>
	<path d="M136.5,384c-6.79-1.68-13.43-3.65-19.1-8.05c-10.3-8.01-16.05-18.47-16.12-31.52c-0.18-34.12-0.22-68.23-0.01-102.35
		c0.14-21.77,17.84-39.3,39.36-39.6c22.06-0.31,40.36,16.29,40.9,38.29c0.61,24.98,0.23,49.98,0.26,74.97
		c0.01,9.75,0.23,19.5-0.15,29.24c-0.77,19.8-14.13,34.85-33.64,38.4c-0.6,0.11-1.16,0.41-1.74,0.62C143,384,139.75,384,136.5,384z"
		/>
	<path d="M384,143.25c-1.11,7.71-2.97,15.15-7.7,21.57c-8.01,10.86-18.74,16.72-32.23,16.99c-12.99,0.25-25.99,0.09-38.98,0.09
		c-0.6,0-1.2-0.2-1.41-0.23c0-15.79-1.16-31.49,0.29-46.93c1.85-19.69,20.15-33.85,40.55-33.49c19.41,0.34,36.34,15.49,38.76,34.65
		c0.15,1.21,0.48,2.41,0.72,3.61C384,140.75,384,142,384,143.25z"/>
	<path d="M147,0c7.93,1.94,15.44,4.71,21.55,10.44c8.01,7.52,12.79,16.64,13.04,27.68c0.31,13.48,0.15,26.97,0.17,40.46
		c0,0.59-0.21,1.18-0.39,2.18c-2.54,0-5,0-7.47,0c-10.49,0-20.98,0.1-31.47-0.02c-24.42-0.27-42.01-18.57-41.18-42.72
		c0.61-17.78,14.58-33.85,32.4-37.26c0.97-0.18,1.91-0.5,2.86-0.76C140,0,143.5,0,147,0z"/>
	<path d="M237.75,384c-6.89-1.72-13.66-3.67-19.4-8.19c-9.87-7.78-15.62-17.8-15.9-30.43c-0.3-13.83-0.07-27.68-0.07-41.78
		c1.12-0.13,2.07-0.33,3.02-0.33c12.23-0.02,24.47-0.18,36.7,0.02c24.35,0.4,41.69,18.89,40.66,43.13
		c-0.76,17.73-14.91,33.6-32.83,36.84c-0.83,0.15-1.62,0.49-2.43,0.74C244.25,384,241,384,237.75,384z"/>
	<path d="M0,241.5c1.43-5.38,2.08-11.13,4.45-16.06c7.05-14.65,19.14-22.44,35.4-22.9c13.57-0.38,27.17-0.08,40.98-0.08
		c0.07,1.39,0.19,2.48,0.18,3.57c-0.21,14.6,0.64,29.31-0.94,43.77c-2.12,19.4-20.44,33.74-40.06,33.25
		c-20.31-0.51-37-15.48-39.34-35.27c-0.13-1.1-0.44-2.18-0.67-3.27C0,243.5,0,242.5,0,241.5z"/>
</g>
</svg>
