<?xml version="1.0" encoding="utf-8"?>
<!-- Generator: Adobe Illustrator 24.1.2, SVG Export Plug-In . SVG Version: 6.00 Build 0)  -->
<svg version="1.1" id="Layer_1" xmlns="http://www.w3.org/2000/svg" xmlns:xlink="http://www.w3.org/1999/xlink" x="0px" y="0px"
	 viewBox="0 0 408.81 230.04" style="enable-background:new 0 0 408.81 230.04;" xml:space="preserve">
<g>
	<path d="M408.81,173.2c-2.11,6.79-3.37,14.01-6.49,20.31c-11.37,22.92-30.26,35.72-55.81,36.15c-42.95,0.71-85.92,0.25-128.88,0.2
		c-8.07-0.01-13.19-5.46-13.2-13.82c-0.04-30.33-0.02-60.65-0.02-90.98c0-36.58,0-73.15,0-109.73c0-10.75,5.05-15.66,15.68-15.3
		c50.08,1.73,92.21,33.75,107.09,81.71c2.15,6.92,3.22,14.18,4.75,21.12c7.21,0,14.55-0.75,21.7,0.13
		c28.12,3.49,50.2,25.55,54.43,53.67c0.11,0.75,0.5,1.45,0.76,2.18C408.81,163.62,408.81,168.41,408.81,173.2z"/>
	<path d="M178.86,128.09c0,29.27,0.03,58.53-0.02,87.8c-0.02,9.97-8.24,16.34-16.95,13.2c-5.12-1.85-7.89-5.66-8.5-11.02
		c-0.15-1.31-0.08-2.66-0.08-3.99c0-57.6-0.01-115.2,0.01-172.8c0-1.86-0.07-3.76,0.3-5.56c1.32-6.47,7.32-10.82,13.76-10.15
		c6.46,0.68,11.34,5.92,11.42,12.73c0.14,11.17,0.05,22.35,0.05,33.52C178.86,90.58,178.86,109.33,178.86,128.09z"/>
	<path d="M76.66,153.23c0,21.02,0.06,42.03-0.03,63.05c-0.04,9.79-8.71,16.12-17.31,12.69c-5.19-2.07-7.97-6.1-8.16-11.68
		c-0.16-4.65-0.05-9.31-0.05-13.97c0-36.98,0-73.96,0.01-110.93c0-1.86-0.06-3.76,0.3-5.56c1.28-6.32,7.03-10.63,13.36-10.19
		c6.48,0.45,11.66,5.64,11.81,12.34c0.2,9.57,0.07,19.15,0.08,28.73C76.67,129.55,76.66,141.39,76.66,153.23z"/>
	<path d="M102.21,153.23c0-21.02-0.06-42.03,0.03-63.05c0.04-9.78,8.72-16.11,17.32-12.68c5.19,2.07,7.97,6.11,8.15,11.69
		c0.17,5.18,0.05,10.37,0.05,15.56c0,36.45,0,72.89-0.01,109.34c0,1.86,0.06,3.76-0.3,5.56c-1.28,6.32-7.04,10.63-13.36,10.18
		c-6.48-0.46-11.66-5.64-11.8-12.35c-0.2-9.84-0.07-19.68-0.08-29.53C102.21,176.38,102.21,164.8,102.21,153.23z"/>
	<path d="M25.56,166.05c0,12.23,0.03,24.47-0.01,36.7c-0.02,8.53-5.17,14.29-12.71,14.33c-7.54,0.03-12.81-5.74-12.82-14.21
		c-0.03-24.6-0.03-49.21,0-73.81c0.01-8.44,5.35-14.21,12.9-14.13c7.39,0.08,12.59,5.79,12.62,14.01
		C25.6,141.32,25.56,153.69,25.56,166.05z"/>
</g>
</svg>
