<?xml version="1.0" standalone="no"?>
<!DOCTYPE svg PUBLIC "-//W3C//DTD SVG 20010904//EN"
 "http://www.w3.org/TR/2001/REC-SVG-20010904/DTD/svg10.dtd">
<svg version="1.0" xmlns="http://www.w3.org/2000/svg"
 width="1661.000000pt" height="1661.000000pt" viewBox="0 0 1661.000000 1661.000000"
 preserveAspectRatio="xMidYMid meet">

<g transform="translate(0.000000,1661.000000) scale(0.100000,-0.100000)"
 stroke="none">
<path d="M160 16593 c0 -9 3 -13 7 -10 9 9 44 -23 37 -34 -3 -5 -1 -9 4 -9 5
0 24 -24 42 -52 19 -29 38 -57 42 -63 19 -24 78 -115 78 -120 0 -3 19 -31 43
-62 23 -30 47 -62 52 -71 6 -8 16 -22 24 -31 7 -9 49 -70 92 -136 43 -66 94
-142 114 -170 52 -71 73 -103 174 -255 49 -74 98 -145 109 -157 11 -12 18 -24
15 -27 -3 -3 2 -8 11 -12 9 -3 13 -10 10 -15 -3 -5 -1 -9 5 -9 9 0 201 -281
201 -294 0 -3 7 -14 15 -23 28 -35 81 -107 115 -159 19 -29 61 -90 92 -136
116 -166 138 -199 138 -204 0 -2 7 -12 15 -21 35 -39 93 -122 140 -198 64
-104 135 -205 143 -205 4 0 13 -13 20 -29 7 -17 35 -60 62 -96 27 -37 52 -75
55 -86 4 -10 10 -19 15 -19 5 0 19 -17 31 -37 13 -21 71 -105 129 -188 58 -82
118 -172 134 -200 16 -27 42 -66 57 -86 16 -20 26 -38 23 -41 -2 -3 7 -13 21
-22 14 -9 25 -22 25 -30 0 -7 9 -21 20 -31 11 -10 20 -23 20 -28 0 -6 7 -19
17 -29 9 -10 21 -27 27 -37 26 -44 94 -144 165 -241 43 -58 104 -145 136 -195
32 -49 61 -92 64 -95 4 -3 12 -17 18 -32 12 -28 33 -56 71 -95 12 -13 22 -26
22 -29 0 -3 9 -18 20 -32 28 -37 90 -130 90 -136 0 -6 61 -97 70 -106 9 -8
123 -169 162 -229 10 -14 24 -35 32 -46 66 -91 88 -124 102 -154 16 -35 25
-47 61 -87 12 -13 19 -24 15 -24 -4 0 0 -6 8 -13 19 -15 104 -136 113 -161 4
-10 16 -30 28 -45 53 -69 118 -161 113 -161 -4 0 8 -16 25 -35 17 -20 31 -39
31 -43 0 -4 14 -23 30 -42 16 -19 30 -38 30 -42 0 -10 72 -112 82 -116 5 -2 8
-10 8 -18 0 -8 3 -14 8 -14 4 0 21 -23 37 -51 17 -29 37 -59 46 -68 16 -18 99
-139 194 -286 33 -49 66 -95 75 -102 8 -7 11 -13 7 -13 -5 0 9 -21 30 -47 22
-27 59 -77 83 -113 24 -36 68 -101 98 -145 30 -44 73 -107 95 -140 22 -33 43
-62 47 -65 10 -7 90 -128 90 -135 0 -3 5 -11 10 -18 6 -7 33 -46 60 -87 26
-41 58 -85 69 -97 12 -12 21 -24 21 -27 0 -3 21 -35 47 -73 26 -37 71 -104
101 -148 30 -44 64 -90 76 -103 11 -13 20 -27 19 -30 -1 -4 5 -16 15 -27 9
-11 34 -45 54 -75 21 -30 51 -73 67 -95 17 -22 40 -58 52 -80 26 -48 73 -118
93 -138 8 -8 13 -17 10 -20 -3 -3 3 -12 15 -19 12 -7 21 -16 21 -21 0 -4 9
-18 21 -30 11 -12 25 -32 30 -44 4 -12 31 -53 59 -92 27 -38 50 -74 50 -80 0
-6 4 -11 9 -11 5 0 12 -8 15 -18 4 -10 15 -28 26 -39 17 -19 110 -150 135
-192 20 -33 79 -116 86 -121 3 -3 19 -29 35 -59 16 -29 39 -64 50 -77 12 -12
20 -25 18 -27 -3 -2 7 -12 21 -21 14 -9 25 -21 25 -25 0 -10 74 -126 108 -171
11 -14 26 -38 35 -55 8 -16 25 -40 36 -52 12 -12 21 -26 21 -32 0 -5 4 -11 9
-13 10 -4 121 -167 121 -179 0 -4 5 -9 12 -11 24 -8 -3 -55 -75 -129 -40 -42
-86 -94 -102 -115 -73 -95 -157 -194 -167 -194 -4 0 -8 -5 -8 -11 0 -6 -13
-23 -30 -39 -16 -15 -27 -30 -24 -33 3 -3 -4 -8 -15 -12 -12 -3 -21 -11 -21
-17 0 -6 -26 -40 -58 -76 -31 -36 -86 -99 -121 -141 -34 -42 -74 -87 -86 -101
-13 -14 -45 -50 -72 -81 -26 -31 -65 -76 -87 -100 -21 -24 -131 -152 -244
-284 -113 -132 -210 -244 -216 -250 -7 -5 -38 -41 -70 -80 -32 -38 -74 -88
-93 -110 -106 -119 -203 -233 -203 -239 0 -4 -10 -17 -22 -30 -71 -72 -184
-201 -227 -257 -27 -36 -71 -87 -97 -114 -27 -27 -48 -52 -47 -55 1 -4 -8 -13
-21 -20 -13 -7 -30 -24 -37 -39 -7 -14 -29 -44 -49 -66 -19 -23 -55 -65 -80
-95 -25 -29 -54 -63 -65 -74 -11 -12 -113 -129 -226 -261 -113 -132 -222 -258
-241 -280 -87 -99 -247 -283 -269 -309 -13 -17 -43 -51 -66 -77 -24 -25 -43
-51 -43 -58 0 -6 -4 -11 -9 -11 -5 0 -39 -35 -75 -78 -37 -42 -77 -88 -89
-102 -13 -14 -36 -43 -52 -65 -16 -22 -48 -59 -70 -81 -53 -55 -133 -148 -169
-198 -16 -23 -49 -60 -73 -84 -24 -24 -43 -44 -43 -45 0 -2 -23 -27 -51 -57
-28 -30 -54 -62 -57 -71 -6 -15 -64 -83 -147 -175 -16 -18 -43 -50 -60 -70
-16 -21 -48 -59 -71 -84 -23 -25 -50 -56 -60 -69 -10 -13 -28 -33 -39 -45 -11
-11 -74 -84 -140 -161 -66 -77 -132 -152 -147 -168 -16 -15 -28 -31 -28 -35 0
-4 -24 -32 -53 -63 -28 -31 -61 -67 -71 -80 -11 -13 -49 -58 -86 -99 -36 -41
-79 -91 -95 -111 -17 -20 -79 -94 -140 -164 -104 -121 -135 -157 -248 -281
-26 -28 -47 -54 -47 -58 0 -3 -9 -16 -20 -29 -23 -24 -28 -30 -87 -102 -22
-27 -65 -75 -94 -106 -30 -30 -65 -70 -79 -88 -44 -59 -102 -125 -161 -185
-33 -33 -59 -64 -59 -69 0 -5 -6 -14 -12 -21 -7 -7 -29 -32 -48 -56 -19 -24
-55 -67 -79 -95 -24 -27 -50 -57 -57 -65 -7 -8 -31 -35 -54 -60 -23 -25 -54
-61 -69 -80 -14 -19 -31 -39 -38 -45 -6 -5 -41 -46 -78 -90 -37 -44 -72 -80
-78 -80 -6 0 -12 -6 -15 -12 -3 -10 147 -13 726 -13 l730 0 33 42 c17 24 39
50 48 58 9 9 32 34 51 56 19 22 58 67 87 100 28 32 84 97 123 144 40 47 89
103 109 124 20 22 46 53 58 69 12 16 37 45 55 65 19 21 37 45 41 55 3 9 11 17
16 17 5 0 12 9 16 19 3 11 15 23 26 26 10 4 19 13 19 21 0 8 4 14 8 14 10 0
152 165 152 176 0 7 52 66 161 181 38 40 69 77 69 82 0 6 8 18 18 28 10 10 45
50 77 88 33 39 77 87 97 108 21 21 38 41 38 43 0 3 39 50 88 106 89 102 106
122 271 314 207 241 318 370 366 424 28 31 63 72 79 91 16 19 69 80 118 136
48 56 88 104 88 106 0 2 21 26 48 53 64 67 152 169 182 213 14 20 39 51 57 69
18 18 33 35 33 38 0 2 16 18 35 35 19 17 55 58 81 92 62 83 125 156 207 241
37 38 67 73 67 77 0 4 55 72 123 150 67 77 139 162 160 188 22 25 53 62 71 81
28 31 301 346 367 424 13 15 47 54 74 85 28 31 73 83 100 115 28 32 97 113
155 180 58 67 131 153 163 191 32 39 87 102 121 140 66 73 115 131 179 212 20
26 73 86 117 133 44 46 80 90 80 96 0 7 4 14 9 16 7 3 42 42 156 178 51 60
280 324 321 370 18 19 93 107 169 195 75 88 141 161 145 163 5 2 23 -19 41
-45 17 -26 41 -58 52 -70 11 -13 16 -23 12 -23 -5 0 1 -7 13 -16 12 -8 22 -18
22 -23 0 -9 123 -200 144 -223 9 -10 16 -21 16 -25 0 -9 82 -117 92 -121 4 -2
8 -10 8 -18 0 -8 5 -14 10 -14 6 0 10 -4 10 -9 0 -9 98 -161 110 -171 3 -3 27
-37 53 -76 26 -39 54 -77 62 -84 8 -7 15 -16 15 -21 0 -4 30 -50 67 -101 37
-51 81 -116 98 -144 58 -97 97 -154 106 -154 5 0 9 -7 9 -15 0 -8 9 -20 20
-27 11 -7 20 -16 20 -21 0 -12 102 -166 222 -333 59 -83 108 -156 108 -162 0
-7 3 -12 8 -12 9 0 92 -123 92 -138 0 -5 4 -12 9 -14 4 -1 20 -22 35 -45 14
-24 31 -43 37 -43 5 0 8 -4 5 -8 -3 -5 3 -15 12 -24 18 -16 24 -25 77 -108 19
-30 38 -59 43 -65 4 -5 39 -57 77 -114 87 -128 87 -128 161 -231 33 -47 63
-92 67 -100 4 -8 23 -35 42 -60 42 -55 68 -100 58 -101 -5 0 0 -4 10 -8 10 -4
18 -10 18 -14 -1 -4 7 -16 17 -26 29 -32 45 -56 155 -228 28 -44 80 -121 115
-170 35 -48 94 -133 131 -188 104 -151 196 -281 218 -310 14 -18 80 -119 92
-142 18 -35 122 -178 132 -181 5 -2 9 -8 9 -13 0 -5 16 -31 36 -59 20 -27 32
-50 27 -50 -4 0 -3 -4 2 -8 12 -9 53 -63 109 -145 23 -34 90 -131 149 -215 59
-85 115 -168 124 -185 17 -35 73 -110 85 -115 5 -2 6 -8 3 -12 -3 -5 3 -15 13
-22 10 -7 21 -17 23 -23 8 -21 103 -160 111 -163 4 -2 8 -8 8 -14 0 -6 13 -27
29 -47 15 -20 49 -66 75 -103 25 -38 67 -98 93 -135 109 -157 143 -209 143
-218 0 -5 13 -24 30 -41 16 -18 27 -34 25 -36 -2 -2 14 -24 36 -48 22 -25 60
-79 84 -120 25 -41 77 -120 116 -175 38 -55 82 -118 97 -140 15 -22 35 -49 44
-59 10 -11 20 -28 24 -38 5 -17 93 -18 2440 -18 1339 0 2434 2 2434 4 0 3 -12
17 -26 33 -32 34 -110 147 -188 271 -32 50 -62 92 -67 92 -6 0 -8 4 -4 9 3 5
-3 16 -13 23 -10 7 -75 99 -145 203 -70 105 -170 251 -222 325 -52 74 -109
159 -126 188 -17 30 -38 56 -45 59 -8 3 -12 9 -9 13 3 5 -1 12 -8 17 -14 8
-117 155 -117 166 0 3 -14 26 -30 49 -17 24 -55 79 -85 123 -50 73 -201 290
-293 422 -101 143 -202 292 -202 297 0 2 -26 41 -57 86 -69 98 -216 309 -279
400 -24 36 -82 119 -129 185 -46 66 -100 147 -120 181 -20 33 -68 102 -106
153 -38 51 -69 95 -70 99 0 4 -16 27 -34 52 -19 25 -42 58 -50 73 -9 15 -55
83 -103 150 -88 122 -198 282 -217 314 -28 48 -85 132 -92 135 -5 1 -24 28
-44 58 -90 138 -152 230 -196 293 -171 241 -263 377 -263 389 0 7 -17 32 -37
54 -43 47 -143 188 -143 201 0 5 -13 24 -30 43 -16 19 -29 38 -30 43 0 4 -29
47 -64 95 -35 48 -75 106 -90 128 -14 21 -45 67 -69 100 -117 169 -146 214
-140 214 4 0 -1 6 -10 13 -19 14 -132 170 -149 207 -6 14 -45 72 -86 130 -185
263 -322 462 -466 676 -85 127 -162 236 -170 244 -9 7 -16 19 -16 26 0 8 -4
14 -8 14 -5 0 -16 15 -25 33 -10 17 -44 70 -78 117 -33 47 -71 101 -84 120
-14 19 -67 96 -120 170 -52 74 -110 162 -130 196 -19 34 -44 71 -55 84 -11 13
-20 26 -20 29 0 3 -16 24 -35 46 -20 22 -38 48 -41 58 -3 9 -9 17 -13 17 -4 0
-18 19 -31 43 -30 53 -143 221 -152 225 -3 2 -26 33 -49 70 -24 37 -46 69 -50
72 -8 7 -141 205 -162 243 -10 18 -26 38 -35 45 -9 6 -12 12 -7 12 5 0 -1 9
-13 20 -12 11 -43 53 -68 93 -62 95 -167 252 -204 302 -16 22 -73 103 -125
180 -53 77 -128 185 -166 239 -38 55 -69 105 -69 112 0 7 17 30 37 51 20 21
36 41 35 46 -1 4 2 7 8 7 5 0 46 46 92 102 46 57 90 110 98 118 8 9 51 58 95
109 44 52 114 133 155 180 41 48 100 116 130 151 30 35 62 70 70 79 9 9 40 45
70 81 30 36 57 67 60 70 5 5 156 181 234 273 49 59 52 62 142 163 38 43 110
126 158 184 48 58 102 121 119 140 53 56 110 123 142 166 16 21 46 56 65 76
74 77 155 170 165 188 22 39 161 199 174 199 8 1 12 4 8 7 -3 3 7 17 24 31 16
14 29 29 29 34 0 5 50 67 111 137 62 70 123 141 138 157 14 17 48 57 76 90 27
33 70 83 95 110 25 28 72 81 105 120 33 38 76 87 95 110 20 22 68 78 107 125
40 47 84 99 100 116 15 17 48 55 73 83 25 29 66 76 92 104 26 29 48 58 48 65
0 6 4 12 9 12 10 0 148 158 201 231 20 26 47 58 60 71 36 34 161 175 179 201
22 33 105 129 172 199 33 34 59 66 59 71 0 5 34 48 76 95 42 48 100 114 130
148 29 34 70 81 91 106 61 73 276 320 302 348 13 14 36 41 50 60 15 19 44 55
66 79 22 25 63 70 90 101 28 30 82 93 120 139 39 47 91 107 116 135 91 99 189
214 189 221 0 4 16 21 35 38 19 17 35 34 35 37 0 4 18 27 41 51 23 24 84 97
136 162 52 64 99 117 104 117 5 0 9 4 9 9 0 4 21 30 48 57 26 27 75 85 109
129 34 44 87 106 117 137 31 31 56 61 56 65 0 4 22 31 48 59 56 62 77 86 155
179 32 39 68 78 80 87 21 17 -15 18 -710 18 l-732 0 -37 -47 c-21 -27 -43 -52
-48 -58 -6 -5 -37 -40 -68 -76 -32 -37 -73 -84 -90 -105 -59 -67 -113 -131
-132 -155 -10 -13 -42 -49 -70 -79 -61 -65 -126 -143 -165 -196 -15 -22 -52
-63 -81 -91 -29 -29 -51 -53 -48 -53 2 0 -20 -25 -49 -57 -29 -31 -53 -60 -53
-64 0 -4 -6 -14 -13 -21 -7 -7 -37 -42 -67 -77 -30 -36 -76 -86 -102 -112 -27
-26 -48 -51 -48 -56 0 -4 -10 -19 -23 -33 -12 -14 -53 -61 -91 -105 -38 -44
-95 -110 -128 -148 -33 -37 -70 -79 -81 -95 -12 -15 -28 -34 -37 -42 -8 -8
-40 -44 -70 -80 -30 -36 -88 -104 -130 -151 -41 -47 -106 -123 -145 -169 -38
-45 -77 -90 -85 -99 -79 -86 -210 -241 -210 -250 0 -6 -4 -11 -9 -11 -5 0 -45
-42 -88 -92 -43 -51 -82 -97 -88 -103 -6 -5 -29 -32 -50 -60 -21 -27 -52 -62
-67 -78 -15 -15 -28 -32 -28 -37 0 -6 -4 -10 -9 -10 -8 0 -91 -93 -141 -160
-46 -60 -85 -105 -129 -147 -24 -24 -41 -43 -36 -43 4 0 -4 -9 -18 -20 -15
-12 -32 -32 -39 -45 -7 -12 -94 -117 -194 -232 -99 -114 -194 -223 -210 -242
-16 -19 -51 -60 -79 -91 -65 -73 -198 -227 -404 -469 -36 -42 -68 -78 -71 -81
-4 -3 -78 -88 -164 -190 -86 -102 -167 -196 -181 -210 -14 -14 -25 -31 -25
-38 0 -6 -4 -12 -10 -12 -14 0 -51 -42 -141 -157 -44 -56 -91 -111 -104 -121
-14 -11 -25 -25 -25 -31 0 -6 -4 -11 -9 -11 -9 0 -80 -81 -131 -150 -26 -35
-85 -102 -132 -150 -15 -15 -24 -30 -21 -34 4 -3 -1 -6 -10 -6 -10 0 -16 -4
-15 -9 2 -5 -6 -17 -17 -27 -11 -11 -36 -39 -55 -64 -19 -25 -48 -61 -66 -80
-66 -75 -251 -288 -290 -335 -71 -86 -116 -130 -120 -119 -4 9 -103 152 -370
534 -25 36 -79 112 -120 170 -41 58 -80 116 -86 130 -22 45 -90 140 -99 140
-6 0 -8 4 -5 8 3 5 -3 16 -12 25 -24 22 -32 33 -80 112 -24 39 -72 111 -107
160 -72 101 -63 88 -197 281 -54 78 -98 144 -98 147 0 11 -61 97 -69 97 -3 0
-15 15 -26 33 -10 17 -21 34 -24 37 -11 10 -68 95 -73 111 -4 9 -48 75 -100
148 -183 260 -298 426 -310 451 -7 14 -20 32 -30 40 -9 8 -49 65 -88 125 -40
61 -89 135 -109 165 -20 30 -63 93 -97 140 -33 47 -98 140 -145 207 -46 67
-110 159 -142 205 -63 92 -92 134 -191 286 -37 56 -71 102 -76 102 -6 0 -10 7
-10 15 0 8 -4 15 -9 15 -5 0 -11 8 -14 18 -4 9 -48 78 -100 152 -211 305 -334
485 -377 551 -25 38 -55 80 -67 94 -13 13 -23 28 -23 33 0 5 -9 17 -20 27 -11
10 -20 21 -20 26 0 4 -18 33 -40 65 -23 33 -48 70 -57 84 -16 23 -130 186
-265 378 -32 45 -58 87 -58 93 0 6 -11 25 -25 43 -14 17 -32 40 -40 51 -8 11
-26 34 -40 50 -14 17 -44 62 -67 100 -45 76 -88 138 -100 143 -5 2 -8 8 -8 13
0 8 -98 152 -138 204 -4 6 -18 25 -30 43 l-23 32 -2430 0 c-2260 0 -2429 -1
-2429 -17z"/>
</g>
</svg>
