<?xml version="1.0" standalone="no"?>
<!DOCTYPE svg PUBLIC "-//W3C//DTD SVG 20010904//EN"
 "http://www.w3.org/TR/2001/REC-SVG-20010904/DTD/svg10.dtd">
<svg version="1.0" xmlns="http://www.w3.org/2000/svg"
 width="512.000000pt" height="512.000000pt" viewBox="0 0 512.000000 512.000000"
 preserveAspectRatio="xMidYMid meet">

<g transform="translate(0.000000,512.000000) scale(0.100000,-0.100000)"
stroke="none">
<path d="M4175 4804 c-265 -28 -596 -204 -869 -464 -137 -130 -294 -348 -373
-519 -31 -67 -125 -323 -120 -328 1 -1 67 3 146 8 302 20 433 -19 479 -144 71
-192 17 -456 -168 -822 -202 -400 -335 -546 -463 -504 -56 18 -153 114 -200
199 -98 177 -135 336 -187 805 -56 507 -147 983 -224 1171 -79 194 -211 361
-333 421 -92 46 -184 59 -298 45 -301 -38 -567 -207 -1155 -736 -85 -77 -212
-189 -283 -249 l-127 -109 0 -53 c0 -36 5 -57 16 -66 9 -7 38 -46 65 -85 87
-130 148 -161 292 -151 50 3 129 19 204 41 150 44 212 47 260 10 52 -39 112
-179 204 -474 132 -424 145 -471 270 -968 65 -260 135 -524 154 -588 157 -501
333 -770 579 -885 85 -40 162 -53 276 -45 247 15 502 130 800 360 434 335 869
859 1239 1495 291 501 566 1122 696 1572 50 172 59 230 59 389 1 122 -3 158
-22 225 -63 220 -231 369 -478 425 -87 20 -343 34 -439 24z"/>
</g>
</svg>
