<?xml version="1.0" encoding="utf-8"?>
<!-- Generator: Adobe Illustrator 24.1.2, SVG Export Plug-In . SVG Version: 6.00 Build 0)  -->
<svg version="1.1" id="Layer_1" xmlns="http://www.w3.org/2000/svg" xmlns:xlink="http://www.w3.org/1999/xlink" x="0px" y="0px"
	 viewBox="0 0 438.02 249.91" style="enable-background:new 0 0 438.02 249.91;" xml:space="preserve">
<g>
	<path d="M438.02,236.29c-2.76,8.3-6.8,11.68-15.8,11.97c-19.66,0.64-39.35,0.4-58.98,1.55c-17.06,1-30.58-5.53-42.05-17.1
		c-9.32-9.41-17.87-19.58-27.01-29.17c-3.31-3.48-7.1-6.63-11.08-9.32c-6.82-4.59-11.76-3.73-17.32,2.34
		c-6.32,6.89-8.03,15.55-9.08,24.38c-0.52,4.38-0.49,8.82-0.78,13.23c-0.57,8.43-4.74,13.43-13.14,14.06
		c-9.22,0.7-18.51,0.54-27.76,0.48c-6.54-0.04-13.14-0.1-19.6-0.94c-21.34-2.78-40.12-11.85-58.17-23.26
		c-22.39-14.15-39.43-33.34-55.07-54.26C49.29,126.31,23.92,78.16,1.87,28.12c-4.35-9.88-1.12-15.36,9.75-16.27
		c6.8-0.57,13.67-0.4,20.51-0.45c13.83-0.11,27.66-0.14,41.48-0.19c9.35-0.03,15.58,4.12,19.74,12.76
		c11.11,23.07,22.54,45.99,34.3,68.74c4.91,9.5,11.23,18.21,19.7,25.04c1.87,1.5,3.93,2.89,6.11,3.85c5.49,2.4,10.7,0.96,12.56-4.62
		c2.53-7.61,4.36-15.57,5.42-23.52c2.47-18.61,1.95-37.2-1.85-55.69c-2.24-10.89-8.86-16.72-19.35-18.98
		c-1.67-0.36-3.19-1.38-4.78-2.1c0.89-1.57,1.53-3.36,2.7-4.68c4.41-4.96,10.01-8.05,16.56-9.01c24.67-3.64,49.39-4.2,74.07-0.27
		c12.35,1.97,16.5,6.26,17.66,19.79c0.97,11.31-0.02,22.78-0.14,34.18c-0.16,14.82-0.51,29.65-0.35,44.46
		c0.05,4.32,1.01,8.84,2.55,12.89c3.3,8.64,10.53,10.38,16.95,3.78c7.02-7.21,13.9-14.72,19.68-22.92
		c15.49-21.96,27.76-45.72,37.69-70.7c4.32-10.88,6.38-12.05,18.15-12.15c22.95-0.18,45.9-0.53,68.85-0.71
		c2.97-0.02,6,0.25,8.89,0.88c4.29,0.94,7.97,2.94,9.29,7.64c0,2,0,3.99,0,5.99c-2.76,6.49-5.06,13.23-8.37,19.44
		c-11.02,20.69-25.84,38.79-39.8,57.48c-7.22,9.68-14.25,19.53-20.81,29.66c-3.87,5.97-3.39,12.65,0.82,18.47
		c2.91,4,6.38,7.63,9.87,11.16c12.1,12.25,24.8,23.95,36.36,36.68c9.66,10.64,19.64,21.48,21.93,36.7
		C438.02,235.72,438.02,236.01,438.02,236.29z"/>
</g>
</svg>
