<?xml version="1.0" encoding="utf-8"?>
<!-- Generator: Adobe Illustrator 24.1.2, SVG Export Plug-In . SVG Version: 6.00 Build 0)  -->
<svg version="1.1" id="Layer_1" xmlns="http://www.w3.org/2000/svg" xmlns:xlink="http://www.w3.org/1999/xlink" x="0px" y="0px"
	 viewBox="0 0 408.87 357.53" style="enable-background:new 0 0 408.87 357.53;" xml:space="preserve">
<g>
	<path d="M408.87,238.14c-1.24,5.4-2.12,10.91-3.78,16.18c-6.57,20.79-19.7,36.82-36.82,49.86c-2.54,1.93-5.21,3.68-7.81,5.53
		c-0.21,0.15-0.33,0.41-0.74,0.93c7.6,15.23,15.27,30.62,23.39,46.89c-2.06-0.75-3.25-1.13-4.4-1.62
		c-19.54-8.36-39.11-16.65-58.57-25.19c-3.96-1.74-7.63-2.16-11.86-1.35c-38.24,7.31-74.17,0.9-107.13-19.72
		c-21.11-13.21-36.8-31.3-44.1-55.68c-6.84-22.85-4.14-44.82,7.56-65.44c15.44-27.21,39.6-43.72,68.77-53.04
		c35.73-11.41,71.36-10.22,106.19,3.91c24.41,9.91,44.43,25.45,57.85,48.62c5.8,10.01,9.34,20.8,10.79,32.28
		c0.15,1.16,0.44,2.31,0.67,3.46C408.87,228.56,408.87,233.35,408.87,238.14z M261.92,204.52c-0.05-10.42-8.7-19.04-19.11-19.05
		c-10.41-0.01-19.08,8.6-19.15,19.01c-0.07,10.56,8.76,19.36,19.31,19.25C253.39,223.63,261.97,214.92,261.92,204.52z
		 M319.64,185.47c-10.4-0.12-19.16,8.42-19.33,18.83c-0.17,10.4,8.31,19.19,18.73,19.43c10.55,0.24,19.47-8.46,19.53-19.03
		C338.63,194.3,330.05,185.59,319.64,185.47z"/>
	<path d="M304.14,103.03c-12.89,0-24.74-0.78-36.46,0.14c-44.78,3.49-83.58,20.1-112.9,55.03c-20.46,24.37-29.7,52.76-26.09,84.8
		c0.4,3.53,1.17,7.01,1.99,11.82c-10.4-2.58-20.15-4.44-29.49-7.51c-5.61-1.84-10.16-1.64-15.47,0.8
		c-14.12,6.47-28.51,12.35-42.8,18.45c-1.06,0.45-2.17,0.82-4.32,1.62c6.9-13.85,13.36-26.81,19.67-39.46
		c-7.65-6.51-15.5-12.47-22.49-19.3c-18.69-18.28-30.78-40.25-34.59-66.3c-3.44-23.51,0.8-45.91,12.1-66.7
		C31.88,42.13,61.33,20.89,97.8,9.08c39.66-12.85,79.41-12.11,118.46,2.54c34.96,13.11,62.7,35.1,79.37,69.3
		C299.09,88.01,301.35,95.68,304.14,103.03z M121.4,76.91c0.03-10.41-8.56-19.1-18.98-19.19c-10.4-0.09-19.14,8.46-19.29,18.88
		c-0.15,10.55,8.61,19.41,19.18,19.39C112.72,95.96,121.36,87.32,121.4,76.91z M204.54,95.98c10.41-0.04,19.04-8.69,19.06-19.1
		c0.02-10.41-8.59-19.08-19-19.16c-10.56-0.08-19.36,8.75-19.26,19.3C185.43,87.44,194.13,96.03,204.54,95.98z"/>
</g>
</svg>
