<?xml version="1.0" standalone="no"?>
<!DOCTYPE svg PUBLIC "-//W3C//DTD SVG 20010904//EN"
 "http://www.w3.org/TR/2001/REC-SVG-20010904/DTD/svg10.dtd">
<svg version="1.0" xmlns="http://www.w3.org/2000/svg"
 width="512.000000pt" height="512.000000pt" viewBox="0 0 512.000000 512.000000"
 preserveAspectRatio="xMidYMid meet">

<g transform="translate(0.000000,512.000000) scale(0.100000,-0.100000)"
stroke="none">
<path d="M2415 5114 c-288 -30 -508 -81 -735 -171 -317 -125 -575 -292 -823
-533 -475 -459 -736 -1038 -763 -1696 -18 -425 89 -887 292 -1261 24 -44 44
-87 44 -95 0 -7 -97 -298 -215 -646 -118 -349 -215 -642 -215 -651 0 -21 40
-61 62 -61 8 0 312 94 676 210 363 115 667 210 675 210 8 0 65 -24 128 -54
205 -98 460 -174 709 -213 162 -25 548 -25 710 0 549 85 1041 331 1425 712
236 234 425 518 549 820 78 193 129 383 168 630 16 109 17 494 0 615 -84 599
-352 1117 -783 1517 -377 349 -834 567 -1359 648 -101 15 -459 28 -545 19z
m502 -539 c588 -98 1096 -442 1402 -948 127 -211 228 -499 262 -747 16 -118
16 -396 0 -510 -26 -192 -106 -451 -191 -620 -195 -390 -546 -730 -936 -911
-261 -120 -493 -175 -779 -186 -393 -14 -761 80 -1094 280 -49 29 -95 49 -110
49 -14 -1 -172 -48 -351 -105 -179 -57 -326 -103 -328 -102 -1 1 45 142 103
314 58 172 105 324 105 339 0 16 -27 67 -66 127 -182 276 -291 602 -313 942
-10 141 -2 332 19 448 113 635 508 1161 1085 1448 215 107 431 168 715 201 73
9 389 -4 477 -19z"/>
<path d="M1825 3785 c-155 -24 -225 -53 -298 -124 -179 -171 -230 -510 -121
-799 103 -275 450 -727 738 -961 280 -228 600 -379 966 -456 97 -21 276 -21
354 0 149 39 329 168 387 278 53 100 77 313 43 378 -13 25 -54 49 -247 143
-128 63 -262 125 -299 140 -122 48 -153 36 -260 -98 -129 -160 -152 -186 -163
-186 -5 0 -45 16 -88 34 -163 72 -392 248 -555 429 -70 77 -182 225 -182 239
0 5 31 45 68 88 95 109 127 170 125 240 0 46 -17 94 -107 305 -59 138 -119
267 -133 288 -46 67 -102 82 -228 62z"/>
</g>
</svg>
