<svg width="36" height="36" viewBox="0 0 36 36" fill="none" xmlns="http://www.w3.org/2000/svg">
<g clip-path="url(#clip0_460_461)">
<path d="M11.1951 18.5471C11.6627 18.0794 11.6516 17.4835 11.4852 17.0818C11.3188 16.6801 10.9053 16.251 10.2439 16.251C9.67184 16.251 9.20644 15.7856 9.20644 15.2134V13.5533C9.20644 12.9812 9.67184 12.5158 10.2439 12.5158C10.9053 12.5158 11.3188 12.0866 11.4852 11.685C11.6516 11.2833 11.6627 10.6874 11.195 10.2196C10.7905 9.81513 10.7905 9.15701 11.195 8.7525L12.369 7.57849C12.5649 7.38253 12.8255 7.2746 13.1027 7.2746C13.3798 7.2746 13.6403 7.38253 13.8363 7.57842C14.304 8.04621 14.8999 8.03524 15.3016 7.86874C15.7032 7.70238 16.1324 7.28888 16.1324 6.62745C16.1324 6.05531 16.5978 5.58991 17.1699 5.58991H18.83C19.4021 5.58991 19.8675 6.05531 19.8675 6.62745C19.8675 7.28888 20.2967 7.70238 20.6983 7.86874C21.0999 8.03496 21.6958 8.04614 22.1636 7.57842C22.5681 7.17391 23.2264 7.17405 23.6309 7.57842L24.8049 8.7525C25.2094 9.15701 25.2094 9.81513 24.8049 10.2197C24.3372 10.6874 24.3483 11.2833 24.5147 11.685C24.6811 12.0866 25.0945 12.5158 25.756 12.5158C26.3281 12.5158 26.7935 12.9812 26.7935 13.5533V15.2134C26.7935 15.7856 26.3281 16.251 25.756 16.251C25.0945 16.251 24.6811 16.6802 24.5147 17.0818C24.3483 17.4835 24.3372 18.0794 24.8049 18.5471C25.0009 18.743 25.1088 19.0035 25.1088 19.2807C25.1088 19.5578 25.0009 19.8184 24.8049 20.0145L23.6309 21.1884C23.2263 21.5929 22.5681 21.593 22.1636 21.1883C21.8415 20.8663 21.4046 20.7309 20.9644 20.8177C20.698 20.8703 20.439 20.6965 20.3865 20.4297C20.3341 20.163 20.5078 19.9043 20.7745 19.8518C21.5419 19.7009 22.3017 19.9344 22.8597 20.4922C22.8805 20.513 22.9141 20.513 22.9349 20.4922L24.1089 19.3183C24.1192 19.308 24.1244 19.2954 24.1244 19.2807C24.1244 19.2662 24.1192 19.2535 24.109 19.2433C23.4307 18.565 23.2377 17.5925 23.6052 16.7051C23.9728 15.8179 24.7969 15.2666 25.756 15.2666C25.7853 15.2666 25.809 15.2428 25.809 15.2134V13.5533C25.809 13.524 25.7852 13.5002 25.756 13.5002C24.7969 13.5002 23.9728 12.949 23.6052 12.0617C23.2376 11.1743 23.4307 10.2018 24.1089 9.52355C24.1296 9.50288 24.1296 9.4692 24.1089 9.44845L22.9349 8.27445C22.9141 8.25384 22.8805 8.25384 22.8597 8.27452C22.1815 8.95268 21.2089 9.14569 20.3216 8.77809C19.4344 8.41057 18.8832 7.58651 18.8832 6.62737C18.8832 6.59805 18.8594 6.57422 18.8301 6.57422H17.17C17.1406 6.57422 17.1169 6.59805 17.1169 6.62737C17.1169 7.58651 16.5657 8.41057 15.6784 8.77809C14.791 9.14576 13.8184 8.95268 13.1403 8.27445C13.1197 8.25384 13.0858 8.25384 13.0652 8.27445L11.8912 9.44845C11.8705 9.4692 11.8705 9.50288 11.8912 9.52355C12.5694 10.2018 12.7624 11.1743 12.3948 12.0617C12.0272 12.949 11.2031 13.5002 10.244 13.5002C10.2147 13.5002 10.191 13.524 10.191 13.5533V15.2134C10.191 15.2428 10.2148 15.2666 10.244 15.2666C11.2031 15.2666 12.0272 15.8178 12.3948 16.7051C12.7624 17.5925 12.5693 18.565 11.8912 19.2432C11.8808 19.2535 11.8756 19.2662 11.8756 19.2807C11.8756 19.2954 11.8809 19.308 11.8912 19.3183L13.0652 20.4922C13.0859 20.513 13.1198 20.513 13.1404 20.4922C13.7056 19.9271 14.4743 19.695 15.2493 19.8553C15.5155 19.9104 15.6866 20.1708 15.6316 20.437C15.5765 20.7032 15.3161 20.8746 15.0499 20.8193C14.6052 20.7274 14.163 20.8617 13.8364 21.1882C13.6405 21.3842 13.38 21.4921 13.1028 21.4921C12.8256 21.4921 12.5651 21.3842 12.3692 21.1882L11.1952 20.0144C10.9993 19.8184 10.8913 19.5578 10.8913 19.2807C10.8911 19.0035 10.9991 18.743 11.1951 18.5471ZM13.6301 27.6416C13.6301 27.3698 13.4098 27.1494 13.138 27.1494H1.125C0.853172 27.1494 0.632812 27.3698 0.632812 27.6416C0.632812 27.9134 0.853172 28.1338 1.125 28.1338H13.138C13.4098 28.1338 13.6301 27.9135 13.6301 27.6416ZM18 10.8868C19.928 10.8868 21.4965 12.4554 21.4965 14.3833C21.4965 15.2926 21.1492 16.1539 20.5184 16.8087C20.3298 17.0044 20.3356 17.3161 20.5314 17.5046C20.7272 17.6932 21.0388 17.6873 21.2273 17.4916C22.0357 16.6524 22.4809 15.5485 22.4809 14.3833C22.4809 11.9125 20.4708 9.90239 18 9.90239C15.5292 9.90239 13.5191 11.9125 13.5191 14.3833C13.5191 15.562 13.9731 16.675 14.7974 17.5172C14.8938 17.6156 15.0214 17.6651 15.1492 17.6651C15.2734 17.6651 15.3977 17.6184 15.4934 17.5247C15.6877 17.3346 15.6911 17.0229 15.5009 16.8287C14.8577 16.1715 14.5035 15.3031 14.5035 14.3833C14.5035 12.4554 16.072 10.8868 18 10.8868ZM35.223 27.2936L33.1414 25.212C32.9492 25.0199 32.6375 25.0198 32.4454 25.212C32.2531 25.4042 32.2531 25.7158 32.4454 25.908L33.6868 27.1494H29.6281C29.3562 27.1494 29.1359 27.3698 29.1359 27.6416C29.1359 27.9134 29.3562 28.1338 29.6281 28.1338H33.6869L32.4454 29.3752C32.2532 29.5675 32.2532 29.8791 32.4454 30.0713C32.5415 30.1674 32.6675 30.2155 32.7935 30.2155C32.9195 30.2155 33.0454 30.1674 33.1415 30.0712L35.2232 27.9896C35.3155 27.8973 35.3673 27.7721 35.3673 27.6416C35.3673 27.5111 35.3154 27.3859 35.223 27.2936ZM31.3547 11.1057L32.4927 11.7627C32.7281 11.8985 33.0292 11.818 33.1651 11.5826C33.301 11.3472 33.2203 11.0462 32.9849 10.9102L30.939 9.729C29.0273 4.43067 23.9491 0.632812 18 0.632812C11.7499 0.632812 6.46116 4.82463 4.79559 10.5443L4.13859 9.40648C4.00268 9.171 3.7016 9.09056 3.46627 9.22634C3.23086 9.36232 3.15021 9.66333 3.28612 9.89866L4.46646 11.943C4.32401 12.7352 4.24948 13.5507 4.24948 14.3833C4.24948 19.5423 7.0972 24.2231 11.6813 26.5991C11.7537 26.6366 11.8311 26.6545 11.9074 26.6545C12.0853 26.6545 12.2572 26.5576 12.3448 26.3886C12.4699 26.1473 12.3756 25.8503 12.1343 25.7252C7.87788 23.519 5.23378 19.1731 5.23378 14.3833C5.23378 13.6283 5.30009 12.8886 5.42644 12.1692L7.43414 11.0101C7.66955 10.8741 7.7502 10.5732 7.61428 10.3378C7.47837 10.1023 7.17743 10.0219 6.94195 10.1576L5.72927 10.8578C7.263 5.52776 12.1833 1.61719 18 1.61719C23.5054 1.61719 28.2078 5.12023 29.9959 10.0143L28.8369 12.0217C28.701 12.2572 28.7816 12.5582 29.0171 12.6941C29.0946 12.7388 29.1792 12.76 29.2627 12.76C29.4328 12.76 29.5983 12.6717 29.6894 12.5139L30.3893 11.3016C30.6349 12.2889 30.7662 13.321 30.7662 14.3833C30.7662 17.2131 29.8595 19.8937 28.1439 22.1351C27.9787 22.3509 28.0197 22.6599 28.2356 22.8251C28.4515 22.9904 28.7603 22.9492 28.9256 22.7334C30.7737 20.3187 31.7506 17.4313 31.7506 14.3832C31.7505 13.254 31.6127 12.1565 31.3547 11.1057ZM28.6903 24.6642L28.7249 29.0372C28.7201 30.7944 27.9862 32.4878 26.7114 33.6883C25.554 34.7783 24.0609 35.3671 22.4738 35.3672C22.3508 35.3672 22.2276 35.3637 22.1036 35.3566C18.9388 35.1754 17.962 34.3574 16.3438 33.0021C15.7888 32.5373 15.1599 32.0105 14.3239 31.404C13.3482 30.696 13.0992 29.354 13.7571 28.3487C14.3655 27.4191 15.245 27.3557 16.0642 27.5277L16.0632 16.886C16.0635 16.3669 16.2669 15.8783 16.6359 15.5098C17.0046 15.1417 17.4929 14.9389 18.0111 14.9389H18.0123C18.531 14.9393 19.0196 15.1426 19.3881 15.5116C19.7568 15.8806 19.9595 16.3695 19.9592 16.8882L19.9527 22.9851C20.247 22.8091 20.5794 22.7152 20.9224 22.7152H20.9239C21.4424 22.7156 21.931 22.9189 22.2995 23.2877C22.3265 23.3148 22.3526 23.3424 22.3779 23.3708C22.4035 23.342 22.4301 23.3138 22.4576 23.2864C22.8261 22.9181 23.3145 22.7153 23.8327 22.7153H23.8341C24.3533 22.7156 24.8422 22.9193 25.2109 23.2888C25.2374 23.3155 25.2631 23.3427 25.2878 23.3705C25.3133 23.3419 25.3396 23.314 25.3669 23.2868C25.7354 22.9183 26.2238 22.7153 26.7423 22.7153H26.7437C27.2623 22.7155 27.7509 22.9188 28.1195 23.2879C28.488 23.6566 28.6907 24.1455 28.6903 24.6642ZM27.7406 29.0397L27.706 24.6677C27.7062 24.4076 27.6057 24.1661 27.423 23.9832C27.2403 23.8004 26.9988 23.6995 26.7431 23.6995C26.7429 23.6995 26.7426 23.6995 26.7424 23.6995C26.4867 23.6995 26.2455 23.8 26.0628 23.9826C25.8809 24.1645 25.7804 24.4047 25.7798 24.6593V24.6638C25.7792 24.9353 25.559 25.155 25.2876 25.155C25.2875 25.155 25.2874 25.155 25.2873 25.155C25.0157 25.1548 24.7956 24.9347 24.7954 24.6632C24.7954 24.6627 24.7954 24.6623 24.7954 24.6618C24.7954 24.6618 24.7954 24.6618 24.7954 24.6617C24.7954 24.6608 24.7954 24.6601 24.7954 24.6593C24.7953 24.4055 24.6954 24.1657 24.5138 23.9837C24.3311 23.8006 24.0894 23.6995 23.8333 23.6994C23.8331 23.6994 23.8329 23.6994 23.8327 23.6994C23.5772 23.6994 23.336 23.7999 23.1533 23.9823C22.9705 24.1651 22.8698 24.4067 22.8699 24.6627V24.6637C22.8694 24.9352 22.6492 25.155 22.3777 25.1551C22.3777 25.1551 22.3775 25.1551 22.3774 25.1551C22.1058 25.1549 21.8856 24.9346 21.8855 24.663C21.8855 24.6615 21.8855 24.66 21.8855 24.6585C21.885 24.4048 21.7848 24.1651 21.6031 23.9832C21.4204 23.8004 21.1789 23.6996 20.9231 23.6995C20.9229 23.6995 20.9227 23.6995 20.9225 23.6995C20.6781 23.6995 20.4411 23.8023 20.255 23.9893C20.0635 24.1815 19.9531 24.4389 19.9509 24.6969V24.7121C19.9506 24.9833 19.7309 25.2032 19.4596 25.2037C19.4593 25.2037 19.459 25.2037 19.4586 25.2037C19.1878 25.2037 18.9679 24.9849 18.9664 24.7139C18.9664 24.707 18.9664 24.7001 18.9664 24.6932L18.9747 16.887C18.9749 16.6315 18.8743 16.39 18.6917 16.207C18.5089 16.0241 18.2674 15.9233 18.0116 15.9231C18.0115 15.9231 18.0112 15.9231 18.011 15.9231C17.7556 15.9231 17.5143 16.0237 17.3315 16.2061C17.1485 16.3889 17.0477 16.6302 17.0475 16.886L17.0487 28.174C17.0487 28.3321 16.9727 28.4806 16.8445 28.5732C16.7163 28.6658 16.5514 28.6909 16.4012 28.6412C15.9649 28.4961 15.6412 28.437 15.3945 28.437C14.9298 28.437 14.7383 28.6468 14.5808 28.8875C14.2109 29.4527 14.352 30.208 14.902 30.607C15.7657 31.2337 16.4085 31.7722 16.9758 32.2472C18.5371 33.5548 19.3208 34.2112 22.1599 34.3737C23.6113 34.4572 24.9882 33.9589 26.0366 32.9716C27.1155 31.9558 27.7365 30.5226 27.7406 29.0397Z" fill="white"/>
</g>
<defs>
<clipPath id="clip0_460_461">
<rect width="36" height="36" fill="white"/>
</clipPath>
</defs>
</svg>
