<svg width="36" height="24" viewBox="0 0 36 24" fill="none" xmlns="http://www.w3.org/2000/svg">
<path d="M14.9587 11.9006C15.1253 12.1892 15.4716 12.3211 15.7879 12.2168C16.4997 11.982 17.2439 11.863 18.0001 11.863C18.7557 11.863 19.5001 11.982 20.2125 12.2168C20.285 12.2408 20.3592 12.2523 20.4325 12.2523C20.6782 12.2523 20.9131 12.1229 21.0414 11.9006L25.8879 3.50644C25.9867 3.33537 26.009 3.13062 25.9492 2.94239C25.8894 2.75416 25.7534 2.59962 25.574 2.51665C23.1906 1.41478 20.6424 0.856079 18.0001 0.856079C15.3574 0.856079 12.8092 1.41478 10.4261 2.51665C10.2468 2.59962 10.1107 2.75409 10.051 2.94239C9.9912 3.13069 10.0136 3.33544 10.1123 3.50644L14.9587 11.9006ZM18.0001 2.26233C20.1774 2.26233 22.2849 2.67338 24.2762 3.48542L20.0995 10.7197C19.4158 10.5451 18.712 10.4568 18.0002 10.4568C17.288 10.4568 16.5841 10.5451 15.9008 10.7197L11.7241 3.48542C13.715 2.67331 15.8224 2.26233 18.0001 2.26233Z" fill="white"/>
<path d="M35.997 17.2801C35.7596 14.6651 34.9694 12.1789 33.6483 9.89058C32.3269 7.60198 30.569 5.6745 28.4231 4.16166C28.2617 4.04782 28.0596 4.00725 27.867 4.04958C27.674 4.09205 27.5079 4.21369 27.4091 4.38476L22.5627 12.7789C22.3961 13.0674 22.4549 13.4332 22.7034 13.655C23.0883 13.9985 23.4334 14.3828 23.7345 14.8024L21.2493 16.2372C20.4749 15.3026 19.3058 14.7064 18 14.7064C15.6738 14.7064 13.7812 16.5989 13.7812 18.9251C13.7812 21.2513 15.6738 23.1439 18 23.1439C20.3262 23.1439 22.2188 21.2513 22.2188 18.9251C22.2188 18.408 22.1252 17.9122 21.9542 17.454L24.4375 16.0203C24.6504 16.4906 24.8105 16.9817 24.9157 17.4869C24.9836 17.813 25.271 18.0468 25.6041 18.0468L35.2968 18.0468C35.4944 18.0468 35.6827 17.9637 35.816 17.8179C35.9492 17.672 36.0149 17.4768 35.997 17.2801ZM17.9999 21.7376C16.4491 21.7376 15.1874 20.4759 15.1874 18.9251C15.1874 17.3743 16.4491 16.1126 17.9999 16.1126C19.5507 16.1126 20.8124 17.3743 20.8124 18.9251C20.8124 20.4759 19.5507 21.7376 17.9999 21.7376ZM26.1558 16.6405C26.0282 16.1857 25.8626 15.7425 25.6603 15.3143L29.4778 13.1103C29.8141 12.9161 29.9294 12.4861 29.7352 12.1498C29.541 11.8136 29.111 11.6983 28.7747 11.8924L24.9572 14.0965C24.6874 13.707 24.3864 13.3419 24.0564 13.0042L28.2331 5.76991C29.9319 7.0882 31.3416 8.70778 32.4304 10.5936C33.519 12.4793 34.2167 14.5099 34.5092 16.6405H26.1558Z" fill="white"/>
<path d="M12.5962 11.3222C12.402 10.986 11.972 10.8707 11.6357 11.0649C11.2994 11.2591 11.1842 11.689 11.3784 12.0253L11.9435 13.0042C11.4504 13.509 11.0221 14.0744 10.6661 14.6909C10.3101 15.3077 10.0346 15.9614 9.8441 16.6406L1.49069 16.6405C1.78298 14.5102 2.48076 12.4796 3.56948 10.5937C4.65806 8.70813 6.06783 7.08848 7.76679 5.76998L8.21383 6.54441C8.40804 6.88064 8.83793 6.99602 9.1743 6.80175C9.51061 6.60762 9.62585 6.17759 9.43165 5.84128L8.59078 4.38483C8.49206 4.21376 8.32584 4.09212 8.13291 4.04965C7.9399 4.00718 7.7381 4.04782 7.57666 4.16173C5.43073 5.67485 3.67277 7.60233 2.35167 9.89058C1.03036 12.1792 0.240116 14.6654 0.00288142 17.2801C-0.014978 17.4769 0.0507642 17.672 0.183936 17.8178C0.317108 17.9636 0.505545 18.0468 0.703124 18.0468L10.3958 18.0468C10.729 18.0468 11.0164 17.813 11.0843 17.4869C11.2369 16.7529 11.5059 16.0489 11.8839 15.394C12.2618 14.7395 12.7371 14.1545 13.2966 13.6549C13.5451 13.4331 13.6038 13.0674 13.4372 12.7789L12.5962 11.3222Z" fill="white"/>
<path d="M10.4051 9.6366C10.7933 9.6366 11.1082 9.32174 11.1082 8.93347C11.1082 8.54521 10.7933 8.23035 10.4051 8.23035H10.4045C10.0162 8.23035 9.70166 8.54521 9.70166 8.93347C9.70166 9.32174 10.0168 9.6366 10.4051 9.6366Z" fill="white"/>
</svg>
