<svg width="36" height="36" viewBox="0 0 36 36" fill="none" xmlns="http://www.w3.org/2000/svg">
<g clip-path="url(#clip0_460_442)">
<path d="M33.604 8.39307H24.2416C23.9101 8.39307 23.6414 8.6618 23.6414 8.99319C23.6414 9.32466 23.9102 9.59332 24.2416 9.59332H33.604C33.9348 9.59332 34.2041 9.86262 34.2041 10.1934V13.1942H24.5718C24.2404 13.1942 23.9717 13.463 23.9717 13.7944C23.9717 14.1258 24.2404 14.3945 24.5718 14.3945H34.2041V34.1995C34.2041 34.5303 33.9348 34.7996 33.604 34.7996H2.39616C2.06532 34.7996 1.79603 34.5303 1.79603 34.1995V14.3945H11.4283C11.7598 14.3945 12.0284 14.1258 12.0284 13.7944C12.0284 13.463 11.7597 13.1942 11.4283 13.1942H1.79596V10.1934C1.79596 9.86262 2.06525 9.59332 2.39609 9.59332H11.7586C12.0901 9.59332 12.3587 9.32459 12.3587 8.99319C12.3587 8.66173 12.09 8.39307 11.7586 8.39307H2.39616C1.40331 8.39307 0.595703 9.20067 0.595703 10.1935V34.1995C0.595703 35.1924 1.40331 36 2.39616 36H33.604C34.5968 36 35.4044 35.1924 35.4044 34.1995V10.1935C35.4044 9.20067 34.5968 8.39307 33.604 8.39307Z" fill="white"/>
<path d="M3.17016 10.9677C3.06199 11.0817 2.99609 11.2317 2.99609 11.3938C2.99609 11.5558 3.06199 11.7059 3.17016 11.8198C3.28417 11.9277 3.43418 11.9939 3.59622 11.9939C3.75214 11.9939 3.90835 11.9277 4.02228 11.8198C4.1301 11.7058 4.19635 11.5496 4.19635 11.3938C4.19635 11.2376 4.1301 11.0817 4.02228 10.9677C3.79406 10.7456 3.39198 10.7456 3.17016 10.9677Z" fill="white"/>
<path d="M5.57104 10.9677C5.46287 11.0817 5.39697 11.2377 5.39697 11.3938C5.39697 11.5497 5.46294 11.7059 5.57104 11.8198C5.68505 11.9277 5.84097 11.9939 5.9971 11.9939C6.15302 11.9939 6.30923 11.9277 6.42316 11.8198C6.53098 11.7058 6.59723 11.5496 6.59723 11.3938C6.59723 11.2376 6.53098 11.0817 6.42316 10.9677C6.19494 10.7456 5.79293 10.7456 5.57104 10.9677Z" fill="white"/>
<path d="M7.97143 10.9677C7.86326 11.0817 7.79736 11.2376 7.79736 11.3938C7.79736 11.5558 7.86326 11.7059 7.97143 11.8137C8.08544 11.9277 8.23545 11.994 8.39749 11.994C8.55953 11.994 8.70962 11.9277 8.82355 11.8199C8.93137 11.7059 8.99762 11.5559 8.99762 11.3938C8.99762 11.2376 8.93137 11.0817 8.82355 10.9678C8.60145 10.7456 8.19325 10.7456 7.97143 10.9677Z" fill="white"/>
<path d="M9.11245 20.6431C8.99113 20.8101 8.96385 21.0276 9.04036 21.2193L10.2407 24.22C10.3081 24.3883 10.4482 24.5172 10.6217 24.5705C10.6794 24.5884 10.7389 24.5972 10.7981 24.5972C10.9161 24.5972 11.0334 24.5623 11.1336 24.4946L14.4846 22.2355C14.6948 22.8288 14.8871 23.3108 15.0167 23.6255C15.0171 23.6263 15.0179 23.6269 15.0182 23.6277C15.0487 23.7009 15.0931 23.7668 15.1484 23.822C15.1743 23.8477 15.2078 23.8617 15.2377 23.8821C15.2716 23.9055 15.3017 23.9341 15.3403 23.9503C15.4124 23.9805 15.4902 23.9962 15.5695 23.9966C15.5703 23.9966 15.5709 23.997 15.5718 23.997H15.8285L15.0625 25.529C14.9696 25.7151 14.9795 25.936 15.0888 26.113C15.1981 26.2898 15.3913 26.3976 15.5993 26.3976H20.4005C20.6086 26.3976 20.8017 26.2898 20.911 26.113C21.0203 25.936 21.0303 25.7151 20.9374 25.529L20.1713 23.997H20.2504C20.2814 23.997 20.308 23.9839 20.3377 23.9794C20.3679 23.984 20.3977 23.9973 20.4277 23.9973C20.6636 23.9973 20.8875 23.8572 20.9831 23.6254C21.1127 23.3107 21.3051 22.8286 21.5153 22.2355L24.8661 24.4945C24.9664 24.5622 25.0836 24.5971 25.2017 24.5971C25.2609 24.5971 25.3203 24.5883 25.3781 24.5704C25.5516 24.5171 25.6916 24.3881 25.7591 24.22L26.9594 21.2192C27.0359 21.0275 27.0086 20.8101 26.8873 20.643L23.2097 15.5873C23.5182 13.1695 23.4989 10.3973 22.6575 7.55171C21.8736 4.90258 20.4567 2.42555 18.4461 0.189892C18.2181 -0.0632972 17.7815 -0.0632972 17.5535 0.189892C15.5423 2.42639 14.1255 4.90349 13.3422 7.55171C12.5007 10.3973 12.4815 13.1696 12.79 15.5873L9.11245 20.6431ZM16.5703 25.1973L17.1705 23.997H18.8291L19.4292 25.1973H16.5703ZM22.9416 17.2592L25.7215 21.0812L24.9206 23.0836L21.9211 21.0614C22.2609 20.0412 22.6486 18.7464 22.9416 17.2592ZM14.4933 7.89225C15.1664 5.61615 16.3447 3.47023 17.9998 1.50507C19.6543 3.4696 20.8326 5.61559 21.5063 7.89225C22.324 10.6569 22.324 13.3238 22.0031 15.6494C22.0012 15.6604 22.0001 15.6708 21.9987 15.6819C21.637 18.2752 20.877 20.4406 20.3898 21.8179C20.2552 22.199 20.1298 22.5263 20.0226 22.7967H15.977C15.8698 22.5263 15.7444 22.199 15.6098 21.8176C15.1226 20.4404 14.3626 18.2752 14.0009 15.6819C13.9995 15.6708 13.9985 15.6604 13.9965 15.6495C13.6756 13.3238 13.6756 10.6569 14.4933 7.89225ZM14.0786 21.0614L11.079 23.0836L10.2781 21.0812L13.058 17.2592C13.351 18.7463 13.7388 20.0412 14.0786 21.0614Z" fill="white"/>
<path d="M17.3999 29.3983V31.1988C17.3999 31.5303 17.6686 31.7989 18 31.7989C18.3315 31.7989 18.6002 31.5302 18.6002 31.1988V29.3983C18.6002 29.0669 18.3314 28.7982 18 28.7982C17.6686 28.7982 17.3999 29.0669 17.3999 29.3983Z" fill="white"/>
<path d="M14.9995 28.198V29.9985C14.9995 30.3299 15.2682 30.5986 15.5996 30.5986C15.931 30.5986 16.1998 30.3299 16.1998 29.9985V28.198C16.1998 27.8666 15.931 27.5979 15.5996 27.5979C15.2682 27.5979 14.9995 27.8666 14.9995 28.198Z" fill="white"/>
<path d="M20.4009 27.5979C20.0694 27.5979 19.8008 27.8666 19.8008 28.198V29.9985C19.8008 30.3299 20.0695 30.5986 20.4009 30.5986C20.7323 30.5986 21.001 30.3299 21.001 29.9985V28.198C21.001 27.8666 20.7323 27.5979 20.4009 27.5979Z" fill="white"/>
<path d="M17.9998 13.7944C19.6543 13.7944 21.0006 12.4481 21.0006 10.7936C21.0006 9.13911 19.6543 7.79285 17.9998 7.79285C16.3453 7.79285 14.999 9.13911 14.999 10.7936C14.9991 12.4481 16.3453 13.7944 17.9998 13.7944ZM17.9998 8.99317C18.9927 8.99317 19.8003 9.80077 19.8003 10.7936C19.8003 11.7865 18.9927 12.5941 17.9998 12.5941C17.007 12.5941 16.1993 11.7865 16.1993 10.7936C16.1993 9.80077 17.007 8.99317 17.9998 8.99317Z" fill="white"/>
</g>
<defs>
<clipPath id="clip0_460_442">
<rect width="36" height="36" fill="white"/>
</clipPath>
</defs>
</svg>
