<svg width="36" height="36" viewBox="0 0 36 36" fill="none" xmlns="http://www.w3.org/2000/svg">
<path fill-rule="evenodd" clip-rule="evenodd" d="M22.9537 32.8415C21.0446 34.1347 18.8571 35.0578 16.4881 35.4964C16.4201 35.5091 16.3503 35.5091 16.2824 35.4964C8.19839 33.9987 2.22705 26.8512 2.22705 18.611V6.88123C2.22705 6.65528 2.36173 6.45113 2.5694 6.36219L16.1629 0.539723C16.3049 0.478947 16.4655 0.478947 16.6076 0.539723L30.2058 6.36212C30.4135 6.45106 30.5482 6.65528 30.5482 6.88123V18.611C30.5482 19.4553 30.4856 20.2881 30.3644 21.1045C32.4026 22.3177 33.7729 24.5441 33.7729 27.0801C33.7729 30.9065 30.6534 34.026 26.827 34.026C25.395 34.026 24.0616 33.589 22.9537 32.8415ZM29.2954 20.5866C29.3769 19.9377 29.4188 19.2781 29.4188 18.611V7.25372L16.3853 1.67316L3.35646 7.25372V18.611C3.35646 26.2744 8.885 32.9259 16.3854 34.3665C18.4396 33.9721 20.3458 33.1872 22.0309 32.098C20.7063 30.832 19.8793 29.0497 19.8793 27.0801C19.8793 26.4154 19.9735 25.7719 20.1493 25.1624H15.9805C14.0413 25.1624 12.8733 24.6166 11.6623 24.1881V24.4719C11.6623 25.0893 11.1579 25.5937 10.5406 25.5937H8.28324C7.66813 25.5937 7.16152 25.0893 7.16152 24.4719V14.7229C7.16152 14.1055 7.66813 13.6012 8.28324 13.6012H10.5406C11.1514 13.6012 11.6515 14.0948 11.6621 14.7032C12.0759 14.6776 12.3575 14.4959 12.5581 14.2062C13.4629 12.897 13.3822 12.9216 14.5664 12.148C16.1686 11.1001 16.1094 10.672 16.7194 8.02095C16.7533 7.87356 16.8449 7.74593 16.9736 7.66666C17.1024 7.58739 17.2576 7.56304 17.4044 7.59911C18.736 7.92615 19.3239 8.92892 19.4554 10.1145C19.5767 11.2081 19.2759 12.4556 18.8926 13.3406H22.9815C24.0278 13.3406 24.8838 14.1954 24.8838 15.2417C24.8838 15.6049 24.7803 15.9454 24.6013 16.235C25.2025 16.5551 25.6137 17.1887 25.6137 17.9145C25.6137 18.5601 25.2885 19.1326 24.7937 19.4765C24.9746 19.7264 25.0964 20.0214 25.1383 20.3406C25.6793 20.2046 26.245 20.1323 26.827 20.1323C27.6957 20.1323 28.5279 20.2932 29.2954 20.5866ZM20.5856 24.033C20.861 23.4722 21.2098 22.9535 21.6193 22.4896H19.4945C19.1828 22.4896 18.9298 22.2366 18.9298 21.9249C18.9298 21.6132 19.1828 21.3601 19.4945 21.3601H22.8912C23.2427 21.1173 23.6176 20.9059 24.0116 20.7302C24.0204 20.6838 24.025 20.6361 24.025 20.5873C24.025 20.1633 23.678 19.8157 23.2532 19.8157H19.4945C19.1828 19.8157 18.9298 19.5626 18.9298 19.251C18.9298 18.9393 19.1828 18.6863 19.4945 18.6863H23.7126C24.1374 18.6863 24.4843 18.3393 24.4843 17.9145C24.4843 17.4898 24.1374 17.1429 23.7126 17.1429H19.4945C19.1828 17.1429 18.9298 16.8898 18.9298 16.5781C18.9298 16.2664 19.1828 16.0134 19.4945 16.0134H22.9815C23.4064 16.0134 23.7543 15.6659 23.7543 15.2417C23.7543 14.8168 23.4064 14.47 22.9815 14.47H17.9233C17.7024 14.47 17.5017 14.3411 17.4098 14.1401C17.3179 13.9391 17.3517 13.703 17.4963 13.5359C17.9424 13.0201 18.4724 11.4962 18.3329 10.239C18.2744 9.7121 18.0862 9.22928 17.669 8.93351C17.0861 11.4748 16.9335 11.9493 15.1846 13.0932L15.1843 13.0933C14.1788 13.7502 14.2553 13.7368 13.487 14.8485L13.4868 14.8489C13.0826 15.4329 12.5163 15.8056 11.6623 15.834V22.9974C12.8995 23.4136 14.0163 24.033 15.9805 24.033H20.5856ZM26.827 32.8966C30.0313 32.8966 32.6435 30.2843 32.6435 27.0801C32.6435 23.8759 30.0313 21.2617 26.827 21.2617C23.6228 21.2617 21.0087 23.8758 21.0087 27.0801C21.0087 30.2843 23.6228 32.8966 26.827 32.8966ZM25.9871 26.8412L28.6899 24.1103L28.6909 24.1092C29.278 23.5191 30.2362 23.5163 30.8263 24.1033C31.4161 24.6901 31.42 25.6448 30.8332 26.2377L30.8329 26.2379C29.5736 27.5087 28.3238 28.7871 27.0588 30.0521C26.469 30.6419 25.5113 30.6419 24.9215 30.0521L22.8249 27.9536C22.2354 27.3641 22.2344 26.4099 22.8239 25.8173L22.8249 25.8163C23.4147 25.2265 24.3724 25.2265 24.9622 25.8163L25.9871 26.8412ZM25.5899 28.0412L24.1636 26.6149C24.0147 26.466 23.7731 26.4659 23.624 26.6144C23.4752 26.7645 23.4744 27.0058 23.6235 27.1549L25.7202 29.2535C25.8692 29.4025 26.1111 29.4025 26.2602 29.2535C27.524 27.9897 28.7725 26.7126 30.0305 25.4432C30.1787 25.2934 30.1788 25.0523 30.0298 24.904C29.8811 24.7561 29.6398 24.757 29.4918 24.9055L26.3906 28.0391C26.2849 28.1459 26.1409 28.2062 25.9907 28.2066C25.8404 28.207 25.6962 28.1474 25.5899 28.0412ZM8.29093 14.7306V24.4643H10.5329V14.7306H8.29093Z" fill="white"/>
</svg>
